%TF.GenerationSoftware,KiCad,Pcbnew,10.0.1*%
%TF.CreationDate,2026-08-22T00:52:01+01:00*%
%TF.ProjectId,Microphone amp,4d696372-6f70-4686-9f6e-6520616d702e,rev?*%
%TF.SameCoordinates,Original*%
%TF.FileFunction,Copper,L2,Bot*%
%TF.FilePolarity,Positive*%
%FSLAX46Y46*%
G04 Gerber Fmt 4.6, Leading zero omitted, Abs format (unit mm)*
G04 Created by KiCad (PCBNEW 10.0.1) date 2026-08-22 00:52:01*
%MOMM*%
%LPD*%
G01*
G04 APERTURE LIST*
G04 Aperture macros list*
%AMRoundRect*
0 Rectangle with rounded corners*
0 $1 Rounding radius*
0 $2 $3 $4 $5 $6 $7 $8 $9 X,Y pos of 4 corners*
0 Add a 4 corners polygon primitive as box body*
4,1,4,$2,$3,$4,$5,$6,$7,$8,$9,$2,$3,0*
0 Add four circle primitives for the rounded corners*
1,1,$1+$1,$2,$3*
1,1,$1+$1,$4,$5*
1,1,$1+$1,$6,$7*
1,1,$1+$1,$8,$9*
0 Add four rect primitives between the rounded corners*
20,1,$1+$1,$2,$3,$4,$5,0*
20,1,$1+$1,$4,$5,$6,$7,0*
20,1,$1+$1,$6,$7,$8,$9,0*
20,1,$1+$1,$8,$9,$2,$3,0*%
%AMFreePoly0*
4,1,33,0.243839,0.803830,0.395973,0.740814,0.532890,0.649329,0.649329,0.532890,0.740814,0.395973,0.803830,0.243839,0.835955,0.082334,0.835955,-0.082334,0.803830,-0.243839,0.740814,-0.395973,0.649329,-0.532890,0.532890,-0.649329,0.395973,-0.740814,0.243839,-0.803830,0.082334,-0.835955,-0.082334,-0.835955,-0.243839,-0.803830,-0.395973,-0.740814,-0.532890,-0.649329,-0.649329,-0.532890,
-0.740814,-0.395973,-0.803830,-0.243839,-0.835955,-0.082334,-0.835955,0.082334,-0.803830,0.243839,-0.740814,0.395973,-0.649329,0.532890,-0.532890,0.649329,-0.395973,0.740814,-0.243839,0.803830,-0.082334,0.835955,0.082334,0.835955,0.243839,0.803830,0.243839,0.803830,$1*%
%AMFreePoly1*
4,1,33,0.238033,0.784691,0.386545,0.723175,0.520202,0.633869,0.633869,0.520202,0.723175,0.386545,0.784691,0.238033,0.816051,0.080374,0.816051,-0.080374,0.784691,-0.238033,0.723175,-0.386545,0.633869,-0.520202,0.520202,-0.633869,0.386545,-0.723175,0.238033,-0.784691,0.080374,-0.816051,-0.080374,-0.816051,-0.238033,-0.784691,-0.386545,-0.723175,-0.520202,-0.633869,-0.633869,-0.520202,
-0.723175,-0.386545,-0.784691,-0.238033,-0.816051,-0.080374,-0.816051,0.080374,-0.784691,0.238033,-0.723175,0.386545,-0.633869,0.520202,-0.520202,0.633869,-0.386545,0.723175,-0.238033,0.784691,-0.080374,0.816051,0.080374,0.816051,0.238033,0.784691,0.238033,0.784691,$1*%
G04 Aperture macros list end*
%TA.AperFunction,ComponentPad*%
%ADD10R,1.700000X1.700000*%
%TD*%
%TA.AperFunction,ComponentPad*%
%ADD11C,1.700000*%
%TD*%
%TA.AperFunction,ComponentPad*%
%ADD12C,1.600000*%
%TD*%
%TA.AperFunction,ComponentPad*%
%ADD13C,1.440000*%
%TD*%
%TA.AperFunction,ComponentPad*%
%ADD14RoundRect,0.250000X0.550000X-0.550000X0.550000X0.550000X-0.550000X0.550000X-0.550000X-0.550000X0*%
%TD*%
%TA.AperFunction,ComponentPad*%
%ADD15R,1.905000X2.000000*%
%TD*%
%TA.AperFunction,ComponentPad*%
%ADD16O,1.905000X2.000000*%
%TD*%
%TA.AperFunction,ComponentPad*%
%ADD17RoundRect,0.250000X-0.550000X-0.550000X0.550000X-0.550000X0.550000X0.550000X-0.550000X0.550000X0*%
%TD*%
%TA.AperFunction,ComponentPad*%
%ADD18RoundRect,0.250000X0.550000X-0.950000X0.550000X0.950000X-0.550000X0.950000X-0.550000X-0.950000X0*%
%TD*%
%TA.AperFunction,ComponentPad*%
%ADD19O,1.600000X2.400000*%
%TD*%
%TA.AperFunction,ComponentPad*%
%ADD20FreePoly0,180.000000*%
%TD*%
%TA.AperFunction,ComponentPad*%
%ADD21FreePoly1,0.000000*%
%TD*%
%TA.AperFunction,ViaPad*%
%ADD22C,0.600000*%
%TD*%
%TA.AperFunction,ViaPad*%
%ADD23C,0.450000*%
%TD*%
%TA.AperFunction,Conductor*%
%ADD24C,0.800000*%
%TD*%
%TA.AperFunction,Conductor*%
%ADD25C,0.400000*%
%TD*%
G04 APERTURE END LIST*
D10*
%TO.P,J1,1,Pin_1_1*%
%TO.N,+5V*%
X172125000Y-123650000D03*
D11*
%TO.P,J1,2,Pin_2_2*%
%TO.N,GND*%
X172125000Y-126190000D03*
%TD*%
D12*
%TO.P,C6,1*%
%TO.N,Net-(C6-Pad1)*%
X155700000Y-118450000D03*
%TO.P,C6,2*%
%TO.N,Net-(C6-Pad2)*%
X155700000Y-120950000D03*
%TD*%
D13*
%TO.P,RV1,1,1_1*%
%TO.N,Signal-preamped*%
X171165000Y-117140000D03*
%TO.P,RV1,2,2_2*%
%TO.N,Net-(U4--)*%
X176245000Y-114600000D03*
%TO.P,RV1,3,3_3*%
%TO.N,GND*%
X171165000Y-112060000D03*
%TD*%
D14*
%TO.P,U2,1,NC_1*%
%TO.N,unconnected-(U2-NC-Pad1)*%
X134880000Y-104145000D03*
D12*
%TO.P,U2,2,-_2*%
%TO.N,Net-(U2--)*%
X137420000Y-104145000D03*
%TO.P,U2,3,+_3*%
%TO.N,Net-(U2-+)*%
X139960000Y-104145000D03*
%TO.P,U2,4,V-_4*%
%TO.N,GND*%
X142500000Y-104145000D03*
%TO.P,U2,5,NC_5*%
%TO.N,unconnected-(U2-NC-Pad5)*%
X142500000Y-96525000D03*
%TO.P,U2,6*%
%TO.N,Net-(C13-Pad1)*%
X139960000Y-96525000D03*
%TO.P,U2,7,V+_7*%
%TO.N,+5V*%
X137420000Y-96525000D03*
%TO.P,U2,8,NC_8*%
%TO.N,unconnected-(U2-NC-Pad8)*%
X134880000Y-96525000D03*
%TD*%
D15*
%TO.P,U3,1,GND_1*%
%TO.N,GND*%
X141720000Y-125362500D03*
D16*
%TO.P,U3,2,VO_2*%
%TO.N,+3.3V*%
X144260000Y-125362500D03*
%TO.P,U3,3,VI_3*%
%TO.N,+5V*%
X146800000Y-125362500D03*
%TD*%
D10*
%TO.P,LS1,1,1_1*%
%TO.N,Net-(C6-Pad2)*%
X155875000Y-125650000D03*
D11*
%TO.P,LS1,2,2_2*%
%TO.N,GND*%
X158415000Y-125650000D03*
%TD*%
D17*
%TO.P,MK3,1,-_1*%
%TO.N,GND*%
X140150000Y-83025000D03*
D12*
%TO.P,MK3,2,+_2*%
%TO.N,Net-(MK3-+)*%
X142150000Y-83025000D03*
%TD*%
D18*
%TO.P,U4,1,GAIN_1*%
%TO.N,Net-(R2-Pad1)*%
X170115000Y-104245000D03*
D19*
%TO.P,U4,2,-_2*%
%TO.N,Net-(U4--)*%
X172655000Y-104245000D03*
%TO.P,U4,3,+_3*%
%TO.N,GND*%
X175195000Y-104245000D03*
%TO.P,U4,4,GND_4*%
X177735000Y-104245000D03*
%TO.P,U4,5*%
%TO.N,Net-(C6-Pad1)*%
X177735000Y-96625000D03*
%TO.P,U4,6,V+_6*%
%TO.N,+5V*%
X175195000Y-96625000D03*
%TO.P,U4,7,BYPASS_7*%
%TO.N,Net-(U4-BYPASS)*%
X172655000Y-96625000D03*
%TO.P,U4,8,GAIN_8*%
%TO.N,Net-(C4-Pad1)*%
X170115000Y-96625000D03*
%TD*%
D20*
%TO.P,INMP1,3,GND_3*%
%TO.N,GND*%
X153780000Y-82575000D03*
%TD*%
D21*
%TO.P,IM68A130V1,4,GND_4*%
%TO.N,GND*%
X166900000Y-81575000D03*
%TD*%
D22*
%TO.N,+5V*%
X170825000Y-122475000D03*
D23*
%TO.N,GND*%
X146500000Y-115150000D03*
X137525000Y-88800000D03*
X152475000Y-94800000D03*
X147925000Y-80275000D03*
X131200000Y-120300000D03*
X132275000Y-120125000D03*
X157975000Y-99925000D03*
X172725000Y-87725000D03*
X170600000Y-83400000D03*
X143050000Y-118350000D03*
%TO.N,Net-(C13-Pad1)*%
X162050000Y-117725000D03*
%TO.N,Mic-out*%
X133200000Y-88900000D03*
X143700000Y-107450000D03*
%TO.N,Net-(MK3-+)*%
X147800000Y-86975000D03*
%TD*%
%TO.N,Net-(C13-Pad1)*%
D24*
X162050000Y-117725000D02*
X161160000Y-117725000D01*
X161160000Y-117725000D02*
X139960000Y-96525000D01*
%TO.N,Mic-out*%
D25*
X138725000Y-94425000D02*
X138725000Y-98672943D01*
X143700000Y-103647943D02*
X143700000Y-107450000D01*
X138725000Y-98672943D02*
X143700000Y-103647943D01*
X133200000Y-88900000D02*
X138725000Y-94425000D01*
%TO.N,Net-(MK3-+)*%
X143850000Y-83025000D02*
X147800000Y-86975000D01*
X142150000Y-83025000D02*
X143850000Y-83025000D01*
%TD*%
%TA.AperFunction,Conductor*%
%TO.N,GND*%
G36*
X177414920Y-103999394D02*
G01*
X177362259Y-104090606D01*
X177335000Y-104192339D01*
X177335000Y-104297661D01*
X177362259Y-104399394D01*
X177414920Y-104490606D01*
X177419314Y-104495000D01*
X175510686Y-104495000D01*
X175515080Y-104490606D01*
X175567741Y-104399394D01*
X175595000Y-104297661D01*
X175595000Y-104192339D01*
X175567741Y-104090606D01*
X175515080Y-103999394D01*
X175510686Y-103995000D01*
X177419314Y-103995000D01*
X177414920Y-103999394D01*
G37*
%TD.AperFunction*%
%TA.AperFunction,Conductor*%
G36*
X179562539Y-78695185D02*
G01*
X179608294Y-78747989D01*
X179619500Y-78799500D01*
X179619500Y-127550500D01*
X179599815Y-127617539D01*
X179547011Y-127663294D01*
X179495500Y-127674500D01*
X172701633Y-127674500D01*
X172634594Y-127654815D01*
X172588839Y-127602011D01*
X172578895Y-127532853D01*
X172607920Y-127469297D01*
X172645338Y-127440015D01*
X172832554Y-127344622D01*
X172886716Y-127305270D01*
X172886717Y-127305270D01*
X172254408Y-126672962D01*
X172317993Y-126655925D01*
X172432007Y-126590099D01*
X172525099Y-126497007D01*
X172590925Y-126382993D01*
X172607962Y-126319408D01*
X173240270Y-126951717D01*
X173240270Y-126951716D01*
X173279622Y-126897554D01*
X173376095Y-126708217D01*
X173441757Y-126506130D01*
X173441757Y-126506127D01*
X173475000Y-126296246D01*
X173475000Y-126083753D01*
X173441757Y-125873872D01*
X173441757Y-125873869D01*
X173376095Y-125671782D01*
X173279624Y-125482449D01*
X173240270Y-125428282D01*
X173240269Y-125428282D01*
X172607962Y-126060590D01*
X172590925Y-125997007D01*
X172525099Y-125882993D01*
X172432007Y-125789901D01*
X172317993Y-125724075D01*
X172254409Y-125707037D01*
X172924627Y-125036818D01*
X172985950Y-125003333D01*
X173012307Y-125000499D01*
X173022872Y-125000499D01*
X173082483Y-124994091D01*
X173217331Y-124943796D01*
X173332546Y-124857546D01*
X173418796Y-124742331D01*
X173418797Y-124742328D01*
X173419322Y-124741627D01*
X173475256Y-124699756D01*
X173544948Y-124694772D01*
X173606271Y-124728257D01*
X173639480Y-124788345D01*
X173663440Y-124893320D01*
X173663443Y-124893329D01*
X173756200Y-125158411D01*
X173878053Y-125411442D01*
X173878055Y-125411445D01*
X174027477Y-125649248D01*
X174108023Y-125750249D01*
X174176762Y-125836446D01*
X174202584Y-125868825D01*
X174401175Y-126067416D01*
X174620752Y-126242523D01*
X174858555Y-126391945D01*
X175111592Y-126513801D01*
X175310680Y-126583465D01*
X175376670Y-126606556D01*
X175376682Y-126606560D01*
X175650491Y-126669055D01*
X175650497Y-126669055D01*
X175650505Y-126669057D01*
X175836384Y-126690000D01*
X175929569Y-126700499D01*
X175929572Y-126700500D01*
X175929575Y-126700500D01*
X176210428Y-126700500D01*
X176210429Y-126700499D01*
X176365814Y-126682992D01*
X176489494Y-126669057D01*
X176489499Y-126669056D01*
X176489509Y-126669055D01*
X176763318Y-126606560D01*
X177028408Y-126513801D01*
X177281445Y-126391945D01*
X177519248Y-126242523D01*
X177738825Y-126067416D01*
X177937416Y-125868825D01*
X178112523Y-125649248D01*
X178261945Y-125411445D01*
X178383801Y-125158408D01*
X178476560Y-124893318D01*
X178539055Y-124619509D01*
X178539338Y-124617002D01*
X178567344Y-124368432D01*
X178570500Y-124340425D01*
X178570500Y-124059575D01*
X178554678Y-123919149D01*
X178539057Y-123780505D01*
X178539054Y-123780487D01*
X178515243Y-123676166D01*
X178476560Y-123506682D01*
X178383801Y-123241592D01*
X178261945Y-122988555D01*
X178112523Y-122750752D01*
X177937416Y-122531175D01*
X177738825Y-122332584D01*
X177519248Y-122157477D01*
X177281445Y-122008055D01*
X177281442Y-122008053D01*
X177028411Y-121886200D01*
X176763329Y-121793443D01*
X176763317Y-121793439D01*
X176489512Y-121730945D01*
X176489494Y-121730942D01*
X176210431Y-121699500D01*
X176210425Y-121699500D01*
X175929575Y-121699500D01*
X175929568Y-121699500D01*
X175650505Y-121730942D01*
X175650487Y-121730945D01*
X175376682Y-121793439D01*
X175376670Y-121793443D01*
X175111588Y-121886200D01*
X174858557Y-122008053D01*
X174620753Y-122157476D01*
X174401175Y-122332583D01*
X174202583Y-122531175D01*
X174027476Y-122750753D01*
X173878053Y-122988557D01*
X173756200Y-123241588D01*
X173716540Y-123354929D01*
X173675818Y-123411705D01*
X173610865Y-123437452D01*
X173542304Y-123423995D01*
X173491901Y-123375608D01*
X173475499Y-123313974D01*
X173475499Y-122752129D01*
X173475498Y-122752123D01*
X173474402Y-122741931D01*
X173469091Y-122692517D01*
X173418796Y-122557669D01*
X173418795Y-122557668D01*
X173418793Y-122557664D01*
X173332547Y-122442455D01*
X173332544Y-122442452D01*
X173217335Y-122356206D01*
X173217328Y-122356202D01*
X173082482Y-122305908D01*
X173082483Y-122305908D01*
X173022883Y-122299501D01*
X173022881Y-122299500D01*
X173022873Y-122299500D01*
X173022865Y-122299500D01*
X171701614Y-122299500D01*
X171634575Y-122279815D01*
X171588820Y-122227011D01*
X171587053Y-122222952D01*
X171534397Y-122095827D01*
X171534390Y-122095814D01*
X171446789Y-121964711D01*
X171446786Y-121964707D01*
X171335292Y-121853213D01*
X171335288Y-121853210D01*
X171204185Y-121765609D01*
X171204172Y-121765602D01*
X171058501Y-121705264D01*
X171058489Y-121705261D01*
X170903845Y-121674500D01*
X170903842Y-121674500D01*
X170746158Y-121674500D01*
X170746155Y-121674500D01*
X170591510Y-121705261D01*
X170591498Y-121705264D01*
X170445827Y-121765602D01*
X170445814Y-121765609D01*
X170314711Y-121853210D01*
X170314707Y-121853213D01*
X170203213Y-121964707D01*
X170203210Y-121964711D01*
X170115609Y-122095814D01*
X170115602Y-122095827D01*
X170055264Y-122241498D01*
X170055261Y-122241510D01*
X170024500Y-122396153D01*
X170024500Y-122553846D01*
X170055261Y-122708489D01*
X170055264Y-122708501D01*
X170115602Y-122854172D01*
X170115609Y-122854185D01*
X170203210Y-122985288D01*
X170203213Y-122985292D01*
X170314707Y-123096786D01*
X170314711Y-123096789D01*
X170445814Y-123184390D01*
X170445827Y-123184397D01*
X170583910Y-123241592D01*
X170591503Y-123244737D01*
X170674693Y-123261284D01*
X170736602Y-123293668D01*
X170771176Y-123354384D01*
X170774500Y-123382901D01*
X170774500Y-124547870D01*
X170774501Y-124547876D01*
X170780908Y-124607483D01*
X170831202Y-124742328D01*
X170831206Y-124742335D01*
X170917452Y-124857544D01*
X170917455Y-124857547D01*
X171032664Y-124943793D01*
X171032671Y-124943797D01*
X171077618Y-124960561D01*
X171167517Y-124994091D01*
X171227127Y-125000500D01*
X171237685Y-125000499D01*
X171304723Y-125020179D01*
X171325372Y-125036818D01*
X171995591Y-125707037D01*
X171932007Y-125724075D01*
X171817993Y-125789901D01*
X171724901Y-125882993D01*
X171659075Y-125997007D01*
X171642037Y-126060591D01*
X171009728Y-125428282D01*
X171009727Y-125428282D01*
X170970380Y-125482439D01*
X170873904Y-125671782D01*
X170808242Y-125873869D01*
X170808242Y-125873872D01*
X170775000Y-126083753D01*
X170775000Y-126296246D01*
X170808242Y-126506127D01*
X170808242Y-126506130D01*
X170873904Y-126708217D01*
X170970375Y-126897550D01*
X171009728Y-126951716D01*
X171642037Y-126319408D01*
X171659075Y-126382993D01*
X171724901Y-126497007D01*
X171817993Y-126590099D01*
X171932007Y-126655925D01*
X171995590Y-126672962D01*
X171363282Y-127305269D01*
X171363282Y-127305270D01*
X171417449Y-127344624D01*
X171604662Y-127440015D01*
X171655458Y-127487990D01*
X171672253Y-127555811D01*
X171649715Y-127621946D01*
X171595000Y-127665397D01*
X171548367Y-127674500D01*
X130744500Y-127674500D01*
X130677461Y-127654815D01*
X130631706Y-127602011D01*
X130620500Y-127550500D01*
X130620500Y-124109568D01*
X131619500Y-124109568D01*
X131619500Y-124390431D01*
X131650942Y-124669494D01*
X131650945Y-124669512D01*
X131713439Y-124943317D01*
X131713443Y-124943329D01*
X131806200Y-125208411D01*
X131928053Y-125461442D01*
X131928055Y-125461445D01*
X132077477Y-125699248D01*
X132252584Y-125918825D01*
X132451175Y-126117416D01*
X132670752Y-126292523D01*
X132860448Y-126411717D01*
X132908557Y-126441946D01*
X132924540Y-126449643D01*
X133161592Y-126563801D01*
X133360680Y-126633465D01*
X133426670Y-126656556D01*
X133426682Y-126656560D01*
X133700491Y-126719055D01*
X133700497Y-126719055D01*
X133700505Y-126719057D01*
X133886547Y-126740018D01*
X133979569Y-126750499D01*
X133979572Y-126750500D01*
X133979575Y-126750500D01*
X134260428Y-126750500D01*
X134260429Y-126750499D01*
X134403055Y-126734429D01*
X134539494Y-126719057D01*
X134539499Y-126719056D01*
X134539509Y-126719055D01*
X134813318Y-126656560D01*
X135078408Y-126563801D01*
X135331445Y-126441945D01*
X135569248Y-126292523D01*
X135788825Y-126117416D01*
X135987416Y-125918825D01*
X136162523Y-125699248D01*
X136311945Y-125461445D01*
X136433801Y-125208408D01*
X136526560Y-124943318D01*
X136589055Y-124669509D01*
X136620500Y-124390425D01*
X136620500Y-124314655D01*
X140267500Y-124314655D01*
X140267500Y-125112500D01*
X141229252Y-125112500D01*
X141207482Y-125150208D01*
X141170000Y-125290091D01*
X141170000Y-125434909D01*
X141207482Y-125574792D01*
X141229252Y-125612500D01*
X140267500Y-125612500D01*
X140267500Y-126410344D01*
X140273901Y-126469872D01*
X140273903Y-126469879D01*
X140324145Y-126604586D01*
X140324149Y-126604593D01*
X140410309Y-126719687D01*
X140410312Y-126719690D01*
X140525406Y-126805850D01*
X140525413Y-126805854D01*
X140660120Y-126856096D01*
X140660127Y-126856098D01*
X140719655Y-126862499D01*
X140719672Y-126862500D01*
X141470000Y-126862500D01*
X141470000Y-125853247D01*
X141507708Y-125875018D01*
X141647591Y-125912500D01*
X141792409Y-125912500D01*
X141932292Y-125875018D01*
X141970000Y-125853247D01*
X141970000Y-126862500D01*
X142720328Y-126862500D01*
X142720344Y-126862499D01*
X142779872Y-126856098D01*
X142779879Y-126856096D01*
X142914586Y-126805854D01*
X142914593Y-126805850D01*
X143029687Y-126719690D01*
X143029690Y-126719687D01*
X143115850Y-126604593D01*
X143115854Y-126604586D01*
X143126272Y-126576655D01*
X143168143Y-126520721D01*
X143233607Y-126496304D01*
X143301880Y-126511155D01*
X143315331Y-126519664D01*
X143498462Y-126652717D01*
X143690370Y-126750499D01*
X143702244Y-126756549D01*
X143919751Y-126827221D01*
X143919752Y-126827221D01*
X143919755Y-126827222D01*
X144145646Y-126863000D01*
X144145647Y-126863000D01*
X144374353Y-126863000D01*
X144374354Y-126863000D01*
X144600245Y-126827222D01*
X144600248Y-126827221D01*
X144600249Y-126827221D01*
X144817755Y-126756549D01*
X144817755Y-126756548D01*
X144817758Y-126756548D01*
X145021538Y-126652717D01*
X145206566Y-126518286D01*
X145368286Y-126356566D01*
X145429683Y-126272059D01*
X145485012Y-126229396D01*
X145554625Y-126223417D01*
X145616420Y-126256023D01*
X145630314Y-126272056D01*
X145691714Y-126356566D01*
X145853434Y-126518286D01*
X146038462Y-126652717D01*
X146230370Y-126750499D01*
X146242244Y-126756549D01*
X146459751Y-126827221D01*
X146459752Y-126827221D01*
X146459755Y-126827222D01*
X146685646Y-126863000D01*
X146685647Y-126863000D01*
X146914353Y-126863000D01*
X146914354Y-126863000D01*
X147140245Y-126827222D01*
X147140248Y-126827221D01*
X147140249Y-126827221D01*
X147357755Y-126756549D01*
X147357755Y-126756548D01*
X147357758Y-126756548D01*
X147561538Y-126652717D01*
X147746566Y-126518286D01*
X147908286Y-126356566D01*
X148042717Y-126171538D01*
X148146548Y-125967758D01*
X148178693Y-125868825D01*
X148217221Y-125750249D01*
X148217221Y-125750248D01*
X148217222Y-125750245D01*
X148253000Y-125524354D01*
X148253000Y-125200646D01*
X148217222Y-124974755D01*
X148217221Y-124974751D01*
X148217221Y-124974750D01*
X148156258Y-124787124D01*
X148146549Y-124757244D01*
X148143946Y-124752135D01*
X154524500Y-124752135D01*
X154524500Y-126547870D01*
X154524501Y-126547876D01*
X154530908Y-126607483D01*
X154581202Y-126742328D01*
X154581206Y-126742335D01*
X154667452Y-126857544D01*
X154667455Y-126857547D01*
X154782664Y-126943793D01*
X154782671Y-126943797D01*
X154917517Y-126994091D01*
X154917516Y-126994091D01*
X154924444Y-126994835D01*
X154977127Y-127000500D01*
X156772872Y-127000499D01*
X156832483Y-126994091D01*
X156967331Y-126943796D01*
X157082546Y-126857546D01*
X157168796Y-126742331D01*
X157219091Y-126607483D01*
X157225500Y-126547873D01*
X157225499Y-126523979D01*
X157228330Y-126510963D01*
X157238940Y-126491525D01*
X157245179Y-126470275D01*
X157261803Y-126449643D01*
X157261808Y-126449636D01*
X157261811Y-126449634D01*
X157261818Y-126449626D01*
X157932037Y-125779408D01*
X157949075Y-125842993D01*
X158014901Y-125957007D01*
X158107993Y-126050099D01*
X158222007Y-126115925D01*
X158285590Y-126132962D01*
X157653282Y-126765269D01*
X157653282Y-126765270D01*
X157707449Y-126804624D01*
X157896782Y-126901095D01*
X158098870Y-126966757D01*
X158308754Y-127000000D01*
X158521246Y-127000000D01*
X158731127Y-126966757D01*
X158731130Y-126966757D01*
X158933217Y-126901095D01*
X159122554Y-126804622D01*
X159176716Y-126765270D01*
X159176717Y-126765270D01*
X158544408Y-126132962D01*
X158607993Y-126115925D01*
X158722007Y-126050099D01*
X158815099Y-125957007D01*
X158880925Y-125842993D01*
X158897962Y-125779409D01*
X159530270Y-126411717D01*
X159530270Y-126411716D01*
X159569622Y-126357554D01*
X159666095Y-126168217D01*
X159707573Y-126040563D01*
X159731757Y-125966130D01*
X159731757Y-125966127D01*
X159765000Y-125756246D01*
X159765000Y-125543753D01*
X159731757Y-125333872D01*
X159731757Y-125333869D01*
X159666095Y-125131782D01*
X159569624Y-124942449D01*
X159530270Y-124888282D01*
X159530269Y-124888282D01*
X158897962Y-125520590D01*
X158880925Y-125457007D01*
X158815099Y-125342993D01*
X158722007Y-125249901D01*
X158607993Y-125184075D01*
X158544409Y-125167037D01*
X159176716Y-124534728D01*
X159122550Y-124495375D01*
X158933217Y-124398904D01*
X158731129Y-124333242D01*
X158521246Y-124300000D01*
X158308754Y-124300000D01*
X158098872Y-124333242D01*
X158098869Y-124333242D01*
X157896782Y-124398904D01*
X157707439Y-124495380D01*
X157653282Y-124534727D01*
X157653282Y-124534728D01*
X158285591Y-125167037D01*
X158222007Y-125184075D01*
X158107993Y-125249901D01*
X158014901Y-125342993D01*
X157949075Y-125457007D01*
X157932037Y-125520591D01*
X157261818Y-124850372D01*
X157228333Y-124789049D01*
X157228330Y-124789036D01*
X157225499Y-124776015D01*
X157225499Y-124752128D01*
X157219091Y-124692517D01*
X157190926Y-124617002D01*
X157168798Y-124557673D01*
X157168793Y-124557664D01*
X157082547Y-124442455D01*
X157082544Y-124442452D01*
X156967335Y-124356206D01*
X156967328Y-124356202D01*
X156832482Y-124305908D01*
X156832483Y-124305908D01*
X156772883Y-124299501D01*
X156772881Y-124299500D01*
X156772873Y-124299500D01*
X156772864Y-124299500D01*
X154977129Y-124299500D01*
X154977123Y-124299501D01*
X154917516Y-124305908D01*
X154782671Y-124356202D01*
X154782664Y-124356206D01*
X154667455Y-124442452D01*
X154667452Y-124442455D01*
X154581206Y-124557664D01*
X154581202Y-124557671D01*
X154530908Y-124692517D01*
X154524501Y-124752116D01*
X154524500Y-124752135D01*
X148143946Y-124752135D01*
X148143936Y-124752116D01*
X148042717Y-124553462D01*
X147908286Y-124368434D01*
X147746566Y-124206714D01*
X147561538Y-124072283D01*
X147430100Y-124005312D01*
X147357755Y-123968450D01*
X147140248Y-123897778D01*
X146957925Y-123868901D01*
X146914354Y-123862000D01*
X146685646Y-123862000D01*
X146642063Y-123868903D01*
X146459753Y-123897778D01*
X146459750Y-123897778D01*
X146242244Y-123968450D01*
X146038461Y-124072283D01*
X145933772Y-124148345D01*
X145853434Y-124206714D01*
X145853432Y-124206716D01*
X145853431Y-124206716D01*
X145691715Y-124368432D01*
X145630318Y-124452938D01*
X145574987Y-124495603D01*
X145505374Y-124501582D01*
X145443579Y-124468976D01*
X145429682Y-124452938D01*
X145418773Y-124437923D01*
X145368286Y-124368434D01*
X145206566Y-124206714D01*
X145021538Y-124072283D01*
X144890100Y-124005312D01*
X144817755Y-123968450D01*
X144600248Y-123897778D01*
X144417925Y-123868901D01*
X144374354Y-123862000D01*
X144145646Y-123862000D01*
X144102063Y-123868903D01*
X143919753Y-123897778D01*
X143919750Y-123897778D01*
X143702244Y-123968450D01*
X143498458Y-124072285D01*
X143315339Y-124205329D01*
X143249533Y-124228809D01*
X143181479Y-124212984D01*
X143132784Y-124162878D01*
X143126272Y-124148345D01*
X143115853Y-124120411D01*
X143115850Y-124120406D01*
X143029690Y-124005312D01*
X143029687Y-124005309D01*
X142914593Y-123919149D01*
X142914586Y-123919145D01*
X142779879Y-123868903D01*
X142779872Y-123868901D01*
X142720344Y-123862500D01*
X141970000Y-123862500D01*
X141970000Y-124871752D01*
X141932292Y-124849982D01*
X141792409Y-124812500D01*
X141647591Y-124812500D01*
X141507708Y-124849982D01*
X141470000Y-124871752D01*
X141470000Y-123862500D01*
X140719655Y-123862500D01*
X140660127Y-123868901D01*
X140660120Y-123868903D01*
X140525413Y-123919145D01*
X140525406Y-123919149D01*
X140410312Y-124005309D01*
X140410309Y-124005312D01*
X140324149Y-124120406D01*
X140324145Y-124120413D01*
X140273903Y-124255120D01*
X140273901Y-124255127D01*
X140267500Y-124314655D01*
X136620500Y-124314655D01*
X136620500Y-124109575D01*
X136604599Y-123968450D01*
X136589057Y-123830505D01*
X136589054Y-123830487D01*
X136526560Y-123556682D01*
X136526556Y-123556670D01*
X136503465Y-123490680D01*
X136433801Y-123291592D01*
X136311945Y-123038555D01*
X136162523Y-122800752D01*
X135987416Y-122581175D01*
X135788825Y-122382584D01*
X135569248Y-122207477D01*
X135338180Y-122062287D01*
X135331442Y-122058053D01*
X135078411Y-121936200D01*
X134813329Y-121843443D01*
X134813317Y-121843439D01*
X134539512Y-121780945D01*
X134539494Y-121780942D01*
X134260431Y-121749500D01*
X134260425Y-121749500D01*
X133979575Y-121749500D01*
X133979568Y-121749500D01*
X133700505Y-121780942D01*
X133700487Y-121780945D01*
X133426682Y-121843439D01*
X133426670Y-121843443D01*
X133161588Y-121936200D01*
X132908557Y-122058053D01*
X132670753Y-122207476D01*
X132451175Y-122382583D01*
X132252583Y-122581175D01*
X132077476Y-122800753D01*
X131928053Y-123038557D01*
X131806200Y-123291588D01*
X131713443Y-123556670D01*
X131713439Y-123556682D01*
X131650945Y-123830487D01*
X131650942Y-123830505D01*
X131619500Y-124109568D01*
X130620500Y-124109568D01*
X130620500Y-118347648D01*
X154399500Y-118347648D01*
X154399500Y-118552351D01*
X154431522Y-118754534D01*
X154494781Y-118949223D01*
X154587715Y-119131613D01*
X154708028Y-119297213D01*
X154852786Y-119441971D01*
X155018388Y-119562286D01*
X155071828Y-119589516D01*
X155122623Y-119637490D01*
X155139418Y-119705312D01*
X155116880Y-119771446D01*
X155071828Y-119810484D01*
X155018388Y-119837713D01*
X154852786Y-119958028D01*
X154708028Y-120102786D01*
X154587715Y-120268386D01*
X154494781Y-120450776D01*
X154431522Y-120645465D01*
X154399500Y-120847648D01*
X154399500Y-121052351D01*
X154431522Y-121254534D01*
X154494781Y-121449223D01*
X154587715Y-121631613D01*
X154708028Y-121797213D01*
X154852786Y-121941971D01*
X154943745Y-122008055D01*
X155018390Y-122062287D01*
X155134607Y-122121503D01*
X155200776Y-122155218D01*
X155200778Y-122155218D01*
X155200781Y-122155220D01*
X155305137Y-122189127D01*
X155395465Y-122218477D01*
X155496557Y-122234488D01*
X155597648Y-122250500D01*
X155597649Y-122250500D01*
X155802351Y-122250500D01*
X155802352Y-122250500D01*
X156004534Y-122218477D01*
X156199219Y-122155220D01*
X156381610Y-122062287D01*
X156515913Y-121964711D01*
X156547213Y-121941971D01*
X156547215Y-121941968D01*
X156547219Y-121941966D01*
X156691966Y-121797219D01*
X156691968Y-121797215D01*
X156691971Y-121797213D01*
X156762962Y-121699500D01*
X156812287Y-121631610D01*
X156905220Y-121449219D01*
X156968477Y-121254534D01*
X157000500Y-121052352D01*
X157000500Y-120847648D01*
X156968477Y-120645466D01*
X156905220Y-120450781D01*
X156905218Y-120450778D01*
X156905218Y-120450776D01*
X156871503Y-120384607D01*
X156812287Y-120268390D01*
X156804556Y-120257749D01*
X156691971Y-120102786D01*
X156547213Y-119958028D01*
X156381613Y-119837715D01*
X156381612Y-119837714D01*
X156381610Y-119837713D01*
X156328171Y-119810484D01*
X156277376Y-119762510D01*
X156260581Y-119694689D01*
X156283118Y-119628554D01*
X156328172Y-119589515D01*
X156381610Y-119562287D01*
X156474590Y-119494732D01*
X156547213Y-119441971D01*
X156547215Y-119441968D01*
X156547219Y-119441966D01*
X156691966Y-119297219D01*
X156691968Y-119297215D01*
X156691971Y-119297213D01*
X156744732Y-119224590D01*
X156812287Y-119131610D01*
X156905220Y-118949219D01*
X156968477Y-118754534D01*
X157000500Y-118552352D01*
X157000500Y-118347648D01*
X156968477Y-118145466D01*
X156905220Y-117950781D01*
X156905218Y-117950778D01*
X156905218Y-117950776D01*
X156871503Y-117884607D01*
X156812287Y-117768390D01*
X156804556Y-117757749D01*
X156691971Y-117602786D01*
X156547213Y-117458028D01*
X156381613Y-117337715D01*
X156381612Y-117337714D01*
X156381610Y-117337713D01*
X156304558Y-117298453D01*
X156199223Y-117244781D01*
X156004534Y-117181522D01*
X155811576Y-117150961D01*
X155802352Y-117149500D01*
X155597648Y-117149500D01*
X155588424Y-117150961D01*
X155395465Y-117181522D01*
X155200776Y-117244781D01*
X155018386Y-117337715D01*
X154852786Y-117458028D01*
X154708028Y-117602786D01*
X154587715Y-117768386D01*
X154494781Y-117950776D01*
X154431522Y-118145465D01*
X154399500Y-118347648D01*
X130620500Y-118347648D01*
X130620500Y-88971457D01*
X132474499Y-88971457D01*
X132502379Y-89111614D01*
X132502381Y-89111620D01*
X132557069Y-89243650D01*
X132557074Y-89243659D01*
X132636467Y-89362478D01*
X132636470Y-89362482D01*
X132737517Y-89463529D01*
X132737525Y-89463535D01*
X132833912Y-89527939D01*
X132852703Y-89543360D01*
X137988181Y-94678838D01*
X138021666Y-94740161D01*
X138024500Y-94766519D01*
X138024500Y-95183315D01*
X138004815Y-95250354D01*
X137952011Y-95296109D01*
X137882853Y-95306053D01*
X137862183Y-95301246D01*
X137724542Y-95256524D01*
X137724535Y-95256523D01*
X137623443Y-95240511D01*
X137522352Y-95224500D01*
X137317648Y-95224500D01*
X137293329Y-95228351D01*
X137115465Y-95256522D01*
X136920776Y-95319781D01*
X136738386Y-95412715D01*
X136572786Y-95533028D01*
X136428028Y-95677786D01*
X136307715Y-95843386D01*
X136260485Y-95936080D01*
X136212510Y-95986876D01*
X136144689Y-96003671D01*
X136078554Y-95981134D01*
X136039515Y-95936080D01*
X136031559Y-95920465D01*
X135992287Y-95843390D01*
X135984556Y-95832749D01*
X135871971Y-95677786D01*
X135727213Y-95533028D01*
X135561613Y-95412715D01*
X135561612Y-95412714D01*
X135561610Y-95412713D01*
X135484499Y-95373423D01*
X135379223Y-95319781D01*
X135184534Y-95256522D01*
X135009995Y-95228878D01*
X134982352Y-95224500D01*
X134777648Y-95224500D01*
X134753329Y-95228351D01*
X134575465Y-95256522D01*
X134380776Y-95319781D01*
X134198386Y-95412715D01*
X134032786Y-95533028D01*
X133888028Y-95677786D01*
X133767715Y-95843386D01*
X133674781Y-96025776D01*
X133611522Y-96220465D01*
X133579500Y-96422648D01*
X133579500Y-96627351D01*
X133611522Y-96829534D01*
X133674781Y-97024223D01*
X133767715Y-97206613D01*
X133888028Y-97372213D01*
X134032786Y-97516971D01*
X134166226Y-97613919D01*
X134198390Y-97637287D01*
X134314607Y-97696503D01*
X134380776Y-97730218D01*
X134380778Y-97730218D01*
X134380781Y-97730220D01*
X134431677Y-97746757D01*
X134575465Y-97793477D01*
X134596288Y-97796775D01*
X134777648Y-97825500D01*
X134777649Y-97825500D01*
X134982351Y-97825500D01*
X134982352Y-97825500D01*
X135184534Y-97793477D01*
X135379219Y-97730220D01*
X135561610Y-97637287D01*
X135663689Y-97563123D01*
X135727213Y-97516971D01*
X135727215Y-97516968D01*
X135727219Y-97516966D01*
X135871966Y-97372219D01*
X135871968Y-97372215D01*
X135871971Y-97372213D01*
X135992284Y-97206614D01*
X135992285Y-97206613D01*
X135992287Y-97206610D01*
X136039516Y-97113917D01*
X136087489Y-97063123D01*
X136155310Y-97046328D01*
X136221445Y-97068865D01*
X136260483Y-97113917D01*
X136267329Y-97127352D01*
X136307715Y-97206614D01*
X136428028Y-97372213D01*
X136572786Y-97516971D01*
X136706226Y-97613919D01*
X136738390Y-97637287D01*
X136854607Y-97696503D01*
X136920776Y-97730218D01*
X136920778Y-97730218D01*
X136920781Y-97730220D01*
X136971677Y-97746757D01*
X137115465Y-97793477D01*
X137136288Y-97796775D01*
X137317648Y-97825500D01*
X137317649Y-97825500D01*
X137522351Y-97825500D01*
X137522352Y-97825500D01*
X137724534Y-97793477D01*
X137862183Y-97748751D01*
X137932022Y-97746757D01*
X137991855Y-97782837D01*
X138022684Y-97845537D01*
X138024500Y-97866683D01*
X138024500Y-98603949D01*
X138024500Y-98741937D01*
X138024500Y-98741939D01*
X138024499Y-98741939D01*
X138051418Y-98877265D01*
X138051421Y-98877275D01*
X138104222Y-99004750D01*
X138180887Y-99119488D01*
X138180888Y-99119489D01*
X141880734Y-102819333D01*
X141914219Y-102880656D01*
X141909235Y-102950348D01*
X141867363Y-103006281D01*
X141849350Y-103017498D01*
X141818644Y-103033143D01*
X141774077Y-103065523D01*
X141774077Y-103065524D01*
X142453553Y-103745000D01*
X142447339Y-103745000D01*
X142345606Y-103772259D01*
X142254394Y-103824920D01*
X142179920Y-103899394D01*
X142127259Y-103990606D01*
X142100000Y-104092339D01*
X142100000Y-104098553D01*
X141420524Y-103419077D01*
X141420523Y-103419077D01*
X141388143Y-103463644D01*
X141340765Y-103556630D01*
X141292790Y-103607426D01*
X141224969Y-103624221D01*
X141158834Y-103601683D01*
X141119795Y-103556630D01*
X141072284Y-103463385D01*
X140951971Y-103297786D01*
X140807213Y-103153028D01*
X140641613Y-103032715D01*
X140641612Y-103032714D01*
X140641610Y-103032713D01*
X140573052Y-102997781D01*
X140459223Y-102939781D01*
X140264534Y-102876522D01*
X140089995Y-102848878D01*
X140062352Y-102844500D01*
X139857648Y-102844500D01*
X139833329Y-102848351D01*
X139655465Y-102876522D01*
X139460776Y-102939781D01*
X139278386Y-103032715D01*
X139112786Y-103153028D01*
X138968028Y-103297786D01*
X138847715Y-103463386D01*
X138800485Y-103556080D01*
X138752510Y-103606876D01*
X138684689Y-103623671D01*
X138618554Y-103601134D01*
X138579515Y-103556080D01*
X138571559Y-103540466D01*
X138532287Y-103463390D01*
X138471052Y-103379106D01*
X138411971Y-103297786D01*
X138267213Y-103153028D01*
X138101613Y-103032715D01*
X138101612Y-103032714D01*
X138101610Y-103032713D01*
X138033052Y-102997781D01*
X137919223Y-102939781D01*
X137724534Y-102876522D01*
X137549995Y-102848878D01*
X137522352Y-102844500D01*
X137317648Y-102844500D01*
X137293329Y-102848351D01*
X137115465Y-102876522D01*
X136920776Y-102939781D01*
X136738386Y-103032715D01*
X136572786Y-103153028D01*
X136428032Y-103297782D01*
X136428028Y-103297787D01*
X136359978Y-103391451D01*
X136304648Y-103434117D01*
X136235035Y-103440096D01*
X136173240Y-103407490D01*
X136141954Y-103357570D01*
X136114814Y-103275666D01*
X136022712Y-103126344D01*
X135898656Y-103002288D01*
X135749334Y-102910186D01*
X135582797Y-102855001D01*
X135582795Y-102855000D01*
X135480010Y-102844500D01*
X134279998Y-102844500D01*
X134279981Y-102844501D01*
X134177203Y-102855000D01*
X134177200Y-102855001D01*
X134010668Y-102910185D01*
X134010663Y-102910187D01*
X133861342Y-103002289D01*
X133737289Y-103126342D01*
X133645187Y-103275663D01*
X133645185Y-103275668D01*
X133627342Y-103329515D01*
X133590001Y-103442203D01*
X133590001Y-103442204D01*
X133590000Y-103442204D01*
X133579500Y-103544983D01*
X133579500Y-104745001D01*
X133579501Y-104745018D01*
X133590000Y-104847796D01*
X133590001Y-104847799D01*
X133623713Y-104949534D01*
X133645186Y-105014334D01*
X133737288Y-105163656D01*
X133861344Y-105287712D01*
X134010666Y-105379814D01*
X134177203Y-105434999D01*
X134279991Y-105445500D01*
X135480008Y-105445499D01*
X135582797Y-105434999D01*
X135749334Y-105379814D01*
X135898656Y-105287712D01*
X136022712Y-105163656D01*
X136114814Y-105014334D01*
X136141955Y-104932427D01*
X136181726Y-104874984D01*
X136246242Y-104848161D01*
X136315018Y-104860476D01*
X136359977Y-104898547D01*
X136396937Y-104949417D01*
X136428034Y-104992219D01*
X136572786Y-105136971D01*
X136693226Y-105224474D01*
X136738390Y-105257287D01*
X136854607Y-105316503D01*
X136920776Y-105350218D01*
X136920778Y-105350218D01*
X136920781Y-105350220D01*
X136996997Y-105374984D01*
X137115465Y-105413477D01*
X137216557Y-105429488D01*
X137317648Y-105445500D01*
X137317649Y-105445500D01*
X137522351Y-105445500D01*
X137522352Y-105445500D01*
X137724534Y-105413477D01*
X137919219Y-105350220D01*
X138101610Y-105257287D01*
X138197298Y-105187766D01*
X138267213Y-105136971D01*
X138267215Y-105136968D01*
X138267219Y-105136966D01*
X138411966Y-104992219D01*
X138411968Y-104992215D01*
X138411971Y-104992213D01*
X138532284Y-104826614D01*
X138532286Y-104826611D01*
X138532287Y-104826610D01*
X138579516Y-104733917D01*
X138627489Y-104683123D01*
X138695310Y-104666328D01*
X138761445Y-104688865D01*
X138800483Y-104733917D01*
X138807329Y-104747352D01*
X138847715Y-104826614D01*
X138968028Y-104992213D01*
X139112786Y-105136971D01*
X139233226Y-105224474D01*
X139278390Y-105257287D01*
X139394607Y-105316503D01*
X139460776Y-105350218D01*
X139460778Y-105350218D01*
X139460781Y-105350220D01*
X139536997Y-105374984D01*
X139655465Y-105413477D01*
X139756557Y-105429488D01*
X139857648Y-105445500D01*
X139857649Y-105445500D01*
X140062351Y-105445500D01*
X140062352Y-105445500D01*
X140264534Y-105413477D01*
X140459219Y-105350220D01*
X140641610Y-105257287D01*
X140737298Y-105187766D01*
X140807213Y-105136971D01*
X140807215Y-105136968D01*
X140807219Y-105136966D01*
X140951966Y-104992219D01*
X140951968Y-104992215D01*
X140951971Y-104992213D01*
X141056894Y-104847797D01*
X141072287Y-104826610D01*
X141119795Y-104733369D01*
X141167769Y-104682573D01*
X141235590Y-104665778D01*
X141301725Y-104688315D01*
X141340765Y-104733369D01*
X141388141Y-104826350D01*
X141388147Y-104826359D01*
X141420523Y-104870921D01*
X141420524Y-104870922D01*
X142100000Y-104191446D01*
X142100000Y-104197661D01*
X142127259Y-104299394D01*
X142179920Y-104390606D01*
X142254394Y-104465080D01*
X142345606Y-104517741D01*
X142447339Y-104545000D01*
X142453552Y-104545000D01*
X141774076Y-105224474D01*
X141818650Y-105256859D01*
X142000968Y-105349755D01*
X142195582Y-105412990D01*
X142397683Y-105445000D01*
X142602317Y-105445000D01*
X142804418Y-105412989D01*
X142804424Y-105412988D01*
X142837180Y-105402345D01*
X142907021Y-105400348D01*
X142966855Y-105436428D01*
X142997684Y-105499128D01*
X142999500Y-105520275D01*
X142999500Y-107240651D01*
X142997117Y-107264843D01*
X142974500Y-107378542D01*
X142974500Y-107378545D01*
X142974500Y-107521455D01*
X142974500Y-107521457D01*
X142974499Y-107521457D01*
X143002379Y-107661614D01*
X143002381Y-107661620D01*
X143057069Y-107793650D01*
X143057074Y-107793659D01*
X143136467Y-107912478D01*
X143136470Y-107912482D01*
X143237517Y-108013529D01*
X143237521Y-108013532D01*
X143356340Y-108092925D01*
X143356346Y-108092928D01*
X143356347Y-108092929D01*
X143488380Y-108147619D01*
X143488384Y-108147619D01*
X143488385Y-108147620D01*
X143628542Y-108175500D01*
X143628545Y-108175500D01*
X143771457Y-108175500D01*
X143865751Y-108156742D01*
X143911620Y-108147619D01*
X144043653Y-108092929D01*
X144162479Y-108013532D01*
X144263532Y-107912479D01*
X144342929Y-107793653D01*
X144397619Y-107661620D01*
X144425500Y-107521455D01*
X144425500Y-107378545D01*
X144425500Y-107378542D01*
X144402883Y-107264843D01*
X144400500Y-107240651D01*
X144400500Y-103578947D01*
X144390438Y-103528370D01*
X144373580Y-103443615D01*
X144372995Y-103442203D01*
X144346860Y-103379106D01*
X144320777Y-103316136D01*
X144320773Y-103316129D01*
X144244117Y-103201405D01*
X144244116Y-103201404D01*
X144244114Y-103201401D01*
X144146542Y-103103829D01*
X139461819Y-98419105D01*
X139428334Y-98357782D01*
X139425500Y-98331424D01*
X139425500Y-97889428D01*
X139445185Y-97822389D01*
X139497989Y-97776634D01*
X139567147Y-97766690D01*
X139587819Y-97771497D01*
X139655465Y-97793477D01*
X139676288Y-97796775D01*
X139857648Y-97825500D01*
X139935638Y-97825500D01*
X140002677Y-97845185D01*
X140023319Y-97861819D01*
X160460536Y-118299035D01*
X160585965Y-118424464D01*
X160733453Y-118523013D01*
X160781452Y-118542895D01*
X160897334Y-118590895D01*
X161071304Y-118625499D01*
X161071308Y-118625500D01*
X161071309Y-118625500D01*
X162138693Y-118625500D01*
X162138694Y-118625499D01*
X162196682Y-118613964D01*
X162312658Y-118590896D01*
X162312661Y-118590894D01*
X162312666Y-118590894D01*
X162476547Y-118523013D01*
X162624035Y-118424464D01*
X162749464Y-118299035D01*
X162848013Y-118151547D01*
X162915894Y-117987666D01*
X162926350Y-117935104D01*
X162950499Y-117813695D01*
X162950500Y-117813693D01*
X162950500Y-117636306D01*
X162950499Y-117636304D01*
X162915896Y-117462341D01*
X162915893Y-117462332D01*
X162848016Y-117298459D01*
X162848009Y-117298446D01*
X162749464Y-117150965D01*
X162749461Y-117150961D01*
X162642445Y-117043945D01*
X169944500Y-117043945D01*
X169944500Y-117236054D01*
X169974553Y-117425802D01*
X170033916Y-117608506D01*
X170115380Y-117768386D01*
X170121135Y-117779681D01*
X170234055Y-117935102D01*
X170369898Y-118070945D01*
X170525319Y-118183865D01*
X170696491Y-118271082D01*
X170696493Y-118271083D01*
X170782519Y-118299034D01*
X170879199Y-118330447D01*
X171068945Y-118360500D01*
X171068946Y-118360500D01*
X171261054Y-118360500D01*
X171261055Y-118360500D01*
X171450801Y-118330447D01*
X171633509Y-118271082D01*
X171804681Y-118183865D01*
X171960102Y-118070945D01*
X172095945Y-117935102D01*
X172208865Y-117779681D01*
X172296082Y-117608509D01*
X172355447Y-117425801D01*
X172385500Y-117236055D01*
X172385500Y-117043945D01*
X172355447Y-116854199D01*
X172296082Y-116671491D01*
X172208865Y-116500319D01*
X172095945Y-116344898D01*
X171960102Y-116209055D01*
X171804681Y-116096135D01*
X171633506Y-116008916D01*
X171450802Y-115949553D01*
X171355928Y-115934526D01*
X171261055Y-115919500D01*
X171068945Y-115919500D01*
X171005696Y-115929517D01*
X170879197Y-115949553D01*
X170696493Y-116008916D01*
X170525318Y-116096135D01*
X170436645Y-116160560D01*
X170369898Y-116209055D01*
X170369896Y-116209057D01*
X170369895Y-116209057D01*
X170234057Y-116344895D01*
X170234057Y-116344896D01*
X170234055Y-116344898D01*
X170185560Y-116411645D01*
X170121135Y-116500318D01*
X170033916Y-116671493D01*
X169974553Y-116854197D01*
X169944500Y-117043945D01*
X162642445Y-117043945D01*
X162624038Y-117025538D01*
X162624034Y-117025535D01*
X162476553Y-116926990D01*
X162476540Y-116926983D01*
X162312667Y-116859106D01*
X162312658Y-116859103D01*
X162138694Y-116824500D01*
X162138691Y-116824500D01*
X161584361Y-116824500D01*
X161517322Y-116804815D01*
X161496680Y-116788181D01*
X159212444Y-114503945D01*
X175024500Y-114503945D01*
X175024500Y-114696054D01*
X175054553Y-114885802D01*
X175113916Y-115068506D01*
X175113918Y-115068509D01*
X175201135Y-115239681D01*
X175314055Y-115395102D01*
X175449898Y-115530945D01*
X175605319Y-115643865D01*
X175776491Y-115731082D01*
X175776493Y-115731083D01*
X175867845Y-115760764D01*
X175959199Y-115790447D01*
X176148945Y-115820500D01*
X176148946Y-115820500D01*
X176341054Y-115820500D01*
X176341055Y-115820500D01*
X176530801Y-115790447D01*
X176713509Y-115731082D01*
X176884681Y-115643865D01*
X177040102Y-115530945D01*
X177175945Y-115395102D01*
X177288865Y-115239681D01*
X177376082Y-115068509D01*
X177435447Y-114885801D01*
X177465500Y-114696055D01*
X177465500Y-114503945D01*
X177435447Y-114314199D01*
X177376082Y-114131491D01*
X177288865Y-113960319D01*
X177175945Y-113804898D01*
X177040102Y-113669055D01*
X176884681Y-113556135D01*
X176713506Y-113468916D01*
X176530802Y-113409553D01*
X176435928Y-113394526D01*
X176341055Y-113379500D01*
X176148945Y-113379500D01*
X176085696Y-113389517D01*
X175959197Y-113409553D01*
X175776493Y-113468916D01*
X175605318Y-113556135D01*
X175516645Y-113620560D01*
X175449898Y-113669055D01*
X175449896Y-113669057D01*
X175449895Y-113669057D01*
X175314057Y-113804895D01*
X175314057Y-113804896D01*
X175314055Y-113804898D01*
X175265560Y-113871645D01*
X175201135Y-113960318D01*
X175113916Y-114131493D01*
X175054553Y-114314197D01*
X175024500Y-114503945D01*
X159212444Y-114503945D01*
X156672483Y-111963984D01*
X169945000Y-111963984D01*
X169945000Y-112156015D01*
X169975040Y-112345684D01*
X170034383Y-112528321D01*
X170121561Y-112699415D01*
X170142798Y-112728646D01*
X170765000Y-112106445D01*
X170765000Y-112112661D01*
X170792259Y-112214394D01*
X170844920Y-112305606D01*
X170919394Y-112380080D01*
X171010606Y-112432741D01*
X171112339Y-112460000D01*
X171118554Y-112460000D01*
X170496351Y-113082200D01*
X170496352Y-113082201D01*
X170525577Y-113103434D01*
X170696678Y-113190616D01*
X170879315Y-113249959D01*
X171068985Y-113280000D01*
X171261015Y-113280000D01*
X171450684Y-113249959D01*
X171633321Y-113190616D01*
X171804419Y-113103436D01*
X171833646Y-113082201D01*
X171833646Y-113082200D01*
X171211447Y-112460000D01*
X171217661Y-112460000D01*
X171319394Y-112432741D01*
X171410606Y-112380080D01*
X171485080Y-112305606D01*
X171537741Y-112214394D01*
X171565000Y-112112661D01*
X171565000Y-112106446D01*
X172187200Y-112728646D01*
X172187201Y-112728646D01*
X172208436Y-112699419D01*
X172295616Y-112528321D01*
X172354959Y-112345684D01*
X172385000Y-112156015D01*
X172385000Y-111963984D01*
X172354959Y-111774315D01*
X172295616Y-111591678D01*
X172208434Y-111420577D01*
X172187201Y-111391352D01*
X172187200Y-111391351D01*
X171565000Y-112013552D01*
X171565000Y-112007339D01*
X171537741Y-111905606D01*
X171485080Y-111814394D01*
X171410606Y-111739920D01*
X171319394Y-111687259D01*
X171217661Y-111660000D01*
X171211447Y-111660000D01*
X171833646Y-111037798D01*
X171804415Y-111016561D01*
X171633321Y-110929383D01*
X171450684Y-110870040D01*
X171261015Y-110840000D01*
X171068985Y-110840000D01*
X170879315Y-110870040D01*
X170696678Y-110929383D01*
X170525578Y-111016564D01*
X170496352Y-111037798D01*
X170496351Y-111037798D01*
X171118554Y-111660000D01*
X171112339Y-111660000D01*
X171010606Y-111687259D01*
X170919394Y-111739920D01*
X170844920Y-111814394D01*
X170792259Y-111905606D01*
X170765000Y-112007339D01*
X170765000Y-112013553D01*
X170142798Y-111391351D01*
X170142798Y-111391352D01*
X170121564Y-111420578D01*
X170034383Y-111591678D01*
X169975040Y-111774315D01*
X169945000Y-111963984D01*
X156672483Y-111963984D01*
X155881237Y-111172738D01*
X151973342Y-107264843D01*
X147953482Y-103244983D01*
X168814500Y-103244983D01*
X168814500Y-105245001D01*
X168814501Y-105245018D01*
X168825000Y-105347796D01*
X168825001Y-105347799D01*
X168872750Y-105491894D01*
X168880186Y-105514334D01*
X168972288Y-105663656D01*
X169096344Y-105787712D01*
X169245666Y-105879814D01*
X169412203Y-105934999D01*
X169514991Y-105945500D01*
X170715008Y-105945499D01*
X170817797Y-105934999D01*
X170984334Y-105879814D01*
X171133656Y-105787712D01*
X171257712Y-105663656D01*
X171349814Y-105514334D01*
X171376955Y-105432427D01*
X171416726Y-105374984D01*
X171481242Y-105348161D01*
X171550018Y-105360476D01*
X171594977Y-105398547D01*
X171629090Y-105445499D01*
X171663034Y-105492219D01*
X171807786Y-105636971D01*
X171962749Y-105749556D01*
X171973390Y-105757287D01*
X172089607Y-105816503D01*
X172155776Y-105850218D01*
X172155778Y-105850218D01*
X172155781Y-105850220D01*
X172246856Y-105879812D01*
X172350465Y-105913477D01*
X172451557Y-105929488D01*
X172552648Y-105945500D01*
X172552649Y-105945500D01*
X172757351Y-105945500D01*
X172757352Y-105945500D01*
X172959534Y-105913477D01*
X173154219Y-105850220D01*
X173336610Y-105757287D01*
X173465482Y-105663657D01*
X173502213Y-105636971D01*
X173502215Y-105636968D01*
X173502219Y-105636966D01*
X173646966Y-105492219D01*
X173646968Y-105492215D01*
X173646971Y-105492213D01*
X173767284Y-105326614D01*
X173767283Y-105326614D01*
X173767287Y-105326610D01*
X173814795Y-105233369D01*
X173862770Y-105182574D01*
X173930591Y-105165779D01*
X173996725Y-105188316D01*
X174035765Y-105233370D01*
X174083140Y-105326349D01*
X174203417Y-105491894D01*
X174203417Y-105491895D01*
X174348104Y-105636582D01*
X174513650Y-105756859D01*
X174695968Y-105849754D01*
X174890578Y-105912988D01*
X174945000Y-105921607D01*
X174945000Y-104560686D01*
X174949394Y-104565080D01*
X175040606Y-104617741D01*
X175142339Y-104645000D01*
X175247661Y-104645000D01*
X175349394Y-104617741D01*
X175440606Y-104565080D01*
X175445000Y-104560686D01*
X175445000Y-105921606D01*
X175499421Y-105912988D01*
X175694031Y-105849754D01*
X175876349Y-105756859D01*
X176041894Y-105636582D01*
X176041895Y-105636582D01*
X176186582Y-105491895D01*
X176186582Y-105491894D01*
X176306859Y-105326349D01*
X176354515Y-105232820D01*
X176402489Y-105182024D01*
X176470310Y-105165229D01*
X176536445Y-105187766D01*
X176575485Y-105232820D01*
X176623140Y-105326349D01*
X176743417Y-105491894D01*
X176743417Y-105491895D01*
X176888104Y-105636582D01*
X177053650Y-105756859D01*
X177235968Y-105849754D01*
X177430578Y-105912988D01*
X177485000Y-105921607D01*
X177485000Y-104560686D01*
X177489394Y-104565080D01*
X177580606Y-104617741D01*
X177682339Y-104645000D01*
X177787661Y-104645000D01*
X177889394Y-104617741D01*
X177980606Y-104565080D01*
X177985000Y-104560686D01*
X177985000Y-105921606D01*
X178039421Y-105912988D01*
X178234031Y-105849754D01*
X178416349Y-105756859D01*
X178581894Y-105636582D01*
X178581895Y-105636582D01*
X178726582Y-105491895D01*
X178726582Y-105491894D01*
X178846859Y-105326349D01*
X178939755Y-105144031D01*
X179002990Y-104949417D01*
X179035000Y-104747317D01*
X179035000Y-104495000D01*
X178050686Y-104495000D01*
X178055080Y-104490606D01*
X178107741Y-104399394D01*
X178135000Y-104297661D01*
X178135000Y-104192339D01*
X178107741Y-104090606D01*
X178055080Y-103999394D01*
X178050686Y-103995000D01*
X179035000Y-103995000D01*
X179035000Y-103742682D01*
X179002990Y-103540582D01*
X178939755Y-103345968D01*
X178846859Y-103163650D01*
X178726582Y-102998105D01*
X178726582Y-102998104D01*
X178581895Y-102853417D01*
X178416349Y-102733140D01*
X178234029Y-102640244D01*
X178039413Y-102577009D01*
X177985000Y-102568390D01*
X177985000Y-103929314D01*
X177980606Y-103924920D01*
X177889394Y-103872259D01*
X177787661Y-103845000D01*
X177682339Y-103845000D01*
X177580606Y-103872259D01*
X177489394Y-103924920D01*
X177485000Y-103929314D01*
X177485000Y-102568390D01*
X177430586Y-102577009D01*
X177235970Y-102640244D01*
X177053650Y-102733140D01*
X176888105Y-102853417D01*
X176888104Y-102853417D01*
X176743417Y-102998104D01*
X176743417Y-102998105D01*
X176623140Y-103163650D01*
X176575485Y-103257179D01*
X176527510Y-103307975D01*
X176459689Y-103324770D01*
X176393554Y-103302232D01*
X176354515Y-103257179D01*
X176306859Y-103163650D01*
X176186582Y-102998105D01*
X176186582Y-102998104D01*
X176041895Y-102853417D01*
X175876349Y-102733140D01*
X175694029Y-102640244D01*
X175499413Y-102577009D01*
X175445000Y-102568390D01*
X175445000Y-103929314D01*
X175440606Y-103924920D01*
X175349394Y-103872259D01*
X175247661Y-103845000D01*
X175142339Y-103845000D01*
X175040606Y-103872259D01*
X174949394Y-103924920D01*
X174945000Y-103929314D01*
X174945000Y-102568390D01*
X174890586Y-102577009D01*
X174695970Y-102640244D01*
X174513650Y-102733140D01*
X174348105Y-102853417D01*
X174348104Y-102853417D01*
X174203417Y-102998104D01*
X174203417Y-102998105D01*
X174083140Y-103163650D01*
X174035765Y-103256629D01*
X173987790Y-103307425D01*
X173919969Y-103324220D01*
X173853834Y-103301682D01*
X173814795Y-103256629D01*
X173803990Y-103235424D01*
X173767287Y-103163390D01*
X173740372Y-103126344D01*
X173646971Y-102997786D01*
X173502213Y-102853028D01*
X173336613Y-102732715D01*
X173336612Y-102732714D01*
X173336610Y-102732713D01*
X173276898Y-102702288D01*
X173154223Y-102639781D01*
X172959534Y-102576522D01*
X172784995Y-102548878D01*
X172757352Y-102544500D01*
X172552648Y-102544500D01*
X172528329Y-102548351D01*
X172350465Y-102576522D01*
X172155776Y-102639781D01*
X171973386Y-102732715D01*
X171807786Y-102853028D01*
X171663032Y-102997782D01*
X171663028Y-102997787D01*
X171594978Y-103091451D01*
X171539648Y-103134117D01*
X171470035Y-103140096D01*
X171408240Y-103107490D01*
X171376954Y-103057570D01*
X171368718Y-103032715D01*
X171349814Y-102975666D01*
X171257712Y-102826344D01*
X171133656Y-102702288D01*
X170984334Y-102610186D01*
X170817797Y-102555001D01*
X170817795Y-102555000D01*
X170715010Y-102544500D01*
X169514998Y-102544500D01*
X169514981Y-102544501D01*
X169412203Y-102555000D01*
X169412200Y-102555001D01*
X169245668Y-102610185D01*
X169245663Y-102610187D01*
X169096342Y-102702289D01*
X168972289Y-102826342D01*
X168880187Y-102975663D01*
X168880186Y-102975666D01*
X168825001Y-103142203D01*
X168825001Y-103142204D01*
X168825000Y-103142204D01*
X168814500Y-103244983D01*
X147953482Y-103244983D01*
X142715429Y-98006929D01*
X142681944Y-97945606D01*
X142686928Y-97875914D01*
X142728800Y-97819981D01*
X142783712Y-97796775D01*
X142784999Y-97796570D01*
X142804534Y-97793477D01*
X142999219Y-97730220D01*
X143181610Y-97637287D01*
X143283689Y-97563123D01*
X143347213Y-97516971D01*
X143347215Y-97516968D01*
X143347219Y-97516966D01*
X143491966Y-97372219D01*
X143491968Y-97372215D01*
X143491971Y-97372213D01*
X143544732Y-97299590D01*
X143612287Y-97206610D01*
X143705220Y-97024219D01*
X143768477Y-96829534D01*
X143800500Y-96627352D01*
X143800500Y-96422648D01*
X143768477Y-96220466D01*
X143768476Y-96220462D01*
X143768476Y-96220461D01*
X143747562Y-96156094D01*
X143736694Y-96122648D01*
X168814500Y-96122648D01*
X168814500Y-97127351D01*
X168846522Y-97329534D01*
X168909781Y-97524223D01*
X169002715Y-97706613D01*
X169123028Y-97872213D01*
X169267786Y-98016971D01*
X169422749Y-98129556D01*
X169433390Y-98137287D01*
X169549607Y-98196503D01*
X169615776Y-98230218D01*
X169615778Y-98230218D01*
X169615781Y-98230220D01*
X169720137Y-98264127D01*
X169810465Y-98293477D01*
X169911557Y-98309488D01*
X170012648Y-98325500D01*
X170012649Y-98325500D01*
X170217351Y-98325500D01*
X170217352Y-98325500D01*
X170419534Y-98293477D01*
X170614219Y-98230220D01*
X170796610Y-98137287D01*
X170889590Y-98069732D01*
X170962213Y-98016971D01*
X170962215Y-98016968D01*
X170962219Y-98016966D01*
X171106966Y-97872219D01*
X171106968Y-97872215D01*
X171106971Y-97872213D01*
X171227284Y-97706614D01*
X171227285Y-97706613D01*
X171227287Y-97706610D01*
X171274516Y-97613917D01*
X171322489Y-97563123D01*
X171390310Y-97546328D01*
X171456445Y-97568865D01*
X171495485Y-97613919D01*
X171542715Y-97706614D01*
X171663028Y-97872213D01*
X171807786Y-98016971D01*
X171962749Y-98129556D01*
X171973390Y-98137287D01*
X172089607Y-98196503D01*
X172155776Y-98230218D01*
X172155778Y-98230218D01*
X172155781Y-98230220D01*
X172260137Y-98264127D01*
X172350465Y-98293477D01*
X172451557Y-98309488D01*
X172552648Y-98325500D01*
X172552649Y-98325500D01*
X172757351Y-98325500D01*
X172757352Y-98325500D01*
X172959534Y-98293477D01*
X173154219Y-98230220D01*
X173336610Y-98137287D01*
X173429590Y-98069732D01*
X173502213Y-98016971D01*
X173502215Y-98016968D01*
X173502219Y-98016966D01*
X173646966Y-97872219D01*
X173646968Y-97872215D01*
X173646971Y-97872213D01*
X173767284Y-97706614D01*
X173767285Y-97706613D01*
X173767287Y-97706610D01*
X173814516Y-97613917D01*
X173862489Y-97563123D01*
X173930310Y-97546328D01*
X173996445Y-97568865D01*
X174035485Y-97613919D01*
X174082715Y-97706614D01*
X174203028Y-97872213D01*
X174347786Y-98016971D01*
X174502749Y-98129556D01*
X174513390Y-98137287D01*
X174629607Y-98196503D01*
X174695776Y-98230218D01*
X174695778Y-98230218D01*
X174695781Y-98230220D01*
X174800137Y-98264127D01*
X174890465Y-98293477D01*
X174991557Y-98309488D01*
X175092648Y-98325500D01*
X175092649Y-98325500D01*
X175297351Y-98325500D01*
X175297352Y-98325500D01*
X175499534Y-98293477D01*
X175694219Y-98230220D01*
X175876610Y-98137287D01*
X175969590Y-98069732D01*
X176042213Y-98016971D01*
X176042215Y-98016968D01*
X176042219Y-98016966D01*
X176186966Y-97872219D01*
X176186968Y-97872215D01*
X176186971Y-97872213D01*
X176307284Y-97706614D01*
X176307285Y-97706613D01*
X176307287Y-97706610D01*
X176354516Y-97613917D01*
X176402489Y-97563123D01*
X176470310Y-97546328D01*
X176536445Y-97568865D01*
X176575485Y-97613919D01*
X176622715Y-97706614D01*
X176743028Y-97872213D01*
X176887786Y-98016971D01*
X177042749Y-98129556D01*
X177053390Y-98137287D01*
X177169607Y-98196503D01*
X177235776Y-98230218D01*
X177235778Y-98230218D01*
X177235781Y-98230220D01*
X177340137Y-98264127D01*
X177430465Y-98293477D01*
X177531557Y-98309488D01*
X177632648Y-98325500D01*
X177632649Y-98325500D01*
X177837351Y-98325500D01*
X177837352Y-98325500D01*
X178039534Y-98293477D01*
X178234219Y-98230220D01*
X178416610Y-98137287D01*
X178509590Y-98069732D01*
X178582213Y-98016971D01*
X178582215Y-98016968D01*
X178582219Y-98016966D01*
X178726966Y-97872219D01*
X178726968Y-97872215D01*
X178726971Y-97872213D01*
X178800144Y-97771497D01*
X178847287Y-97706610D01*
X178940220Y-97524219D01*
X179003477Y-97329534D01*
X179035500Y-97127352D01*
X179035500Y-96122648D01*
X179016656Y-96003671D01*
X179003477Y-95920465D01*
X178940218Y-95725776D01*
X178894515Y-95636080D01*
X178847287Y-95543390D01*
X178839556Y-95532749D01*
X178726971Y-95377786D01*
X178582213Y-95233028D01*
X178416613Y-95112715D01*
X178416612Y-95112714D01*
X178416610Y-95112713D01*
X178359653Y-95083691D01*
X178234223Y-95019781D01*
X178039534Y-94956522D01*
X177864995Y-94928878D01*
X177837352Y-94924500D01*
X177632648Y-94924500D01*
X177608329Y-94928351D01*
X177430465Y-94956522D01*
X177235776Y-95019781D01*
X177053386Y-95112715D01*
X176887786Y-95233028D01*
X176743028Y-95377786D01*
X176622715Y-95543386D01*
X176575485Y-95636080D01*
X176527510Y-95686876D01*
X176459689Y-95703671D01*
X176393554Y-95681134D01*
X176354515Y-95636080D01*
X176353883Y-95634840D01*
X176307287Y-95543390D01*
X176299556Y-95532749D01*
X176186971Y-95377786D01*
X176042213Y-95233028D01*
X175876613Y-95112715D01*
X175876612Y-95112714D01*
X175876610Y-95112713D01*
X175819653Y-95083691D01*
X175694223Y-95019781D01*
X175499534Y-94956522D01*
X175324995Y-94928878D01*
X175297352Y-94924500D01*
X175092648Y-94924500D01*
X175068329Y-94928351D01*
X174890465Y-94956522D01*
X174695776Y-95019781D01*
X174513386Y-95112715D01*
X174347786Y-95233028D01*
X174203028Y-95377786D01*
X174082715Y-95543386D01*
X174035485Y-95636080D01*
X173987510Y-95686876D01*
X173919689Y-95703671D01*
X173853554Y-95681134D01*
X173814515Y-95636080D01*
X173813883Y-95634840D01*
X173767287Y-95543390D01*
X173759556Y-95532749D01*
X173646971Y-95377786D01*
X173502213Y-95233028D01*
X173336613Y-95112715D01*
X173336612Y-95112714D01*
X173336610Y-95112713D01*
X173279653Y-95083691D01*
X173154223Y-95019781D01*
X172959534Y-94956522D01*
X172784995Y-94928878D01*
X172757352Y-94924500D01*
X172552648Y-94924500D01*
X172528329Y-94928351D01*
X172350465Y-94956522D01*
X172155776Y-95019781D01*
X171973386Y-95112715D01*
X171807786Y-95233028D01*
X171663028Y-95377786D01*
X171542715Y-95543386D01*
X171495485Y-95636080D01*
X171447510Y-95686876D01*
X171379689Y-95703671D01*
X171313554Y-95681134D01*
X171274515Y-95636080D01*
X171273883Y-95634840D01*
X171227287Y-95543390D01*
X171219556Y-95532749D01*
X171106971Y-95377786D01*
X170962213Y-95233028D01*
X170796613Y-95112715D01*
X170796612Y-95112714D01*
X170796610Y-95112713D01*
X170739653Y-95083691D01*
X170614223Y-95019781D01*
X170419534Y-94956522D01*
X170244995Y-94928878D01*
X170217352Y-94924500D01*
X170012648Y-94924500D01*
X169988329Y-94928351D01*
X169810465Y-94956522D01*
X169615776Y-95019781D01*
X169433386Y-95112715D01*
X169267786Y-95233028D01*
X169123028Y-95377786D01*
X169002715Y-95543386D01*
X168909781Y-95725776D01*
X168846522Y-95920465D01*
X168814500Y-96122648D01*
X143736694Y-96122648D01*
X143705218Y-96025776D01*
X143651559Y-95920466D01*
X143612287Y-95843390D01*
X143604556Y-95832749D01*
X143491971Y-95677786D01*
X143347213Y-95533028D01*
X143181613Y-95412715D01*
X143181612Y-95412714D01*
X143181610Y-95412713D01*
X143104499Y-95373423D01*
X142999223Y-95319781D01*
X142804534Y-95256522D01*
X142629995Y-95228878D01*
X142602352Y-95224500D01*
X142397648Y-95224500D01*
X142373329Y-95228351D01*
X142195465Y-95256522D01*
X142000776Y-95319781D01*
X141818386Y-95412715D01*
X141652786Y-95533028D01*
X141508028Y-95677786D01*
X141387715Y-95843386D01*
X141340485Y-95936080D01*
X141292510Y-95986876D01*
X141224689Y-96003671D01*
X141158554Y-95981134D01*
X141119515Y-95936080D01*
X141111559Y-95920465D01*
X141072287Y-95843390D01*
X141064556Y-95832749D01*
X140951971Y-95677786D01*
X140807213Y-95533028D01*
X140641613Y-95412715D01*
X140641612Y-95412714D01*
X140641610Y-95412713D01*
X140564499Y-95373423D01*
X140459223Y-95319781D01*
X140264534Y-95256522D01*
X140089995Y-95228878D01*
X140062352Y-95224500D01*
X139857648Y-95224500D01*
X139790254Y-95235174D01*
X139655464Y-95256523D01*
X139655457Y-95256524D01*
X139587817Y-95278502D01*
X139517976Y-95280497D01*
X139458144Y-95244416D01*
X139427316Y-95181715D01*
X139425500Y-95160571D01*
X139425500Y-94356004D01*
X139398581Y-94220677D01*
X139398580Y-94220676D01*
X139398580Y-94220672D01*
X139398578Y-94220667D01*
X139345777Y-94093192D01*
X139269112Y-93978454D01*
X139269111Y-93978453D01*
X133843360Y-88552703D01*
X133827939Y-88533912D01*
X133763535Y-88437525D01*
X133763529Y-88437517D01*
X133662482Y-88336470D01*
X133662478Y-88336467D01*
X133543659Y-88257074D01*
X133543650Y-88257069D01*
X133411620Y-88202381D01*
X133411614Y-88202379D01*
X133271457Y-88174500D01*
X133271455Y-88174500D01*
X133128545Y-88174500D01*
X133128543Y-88174500D01*
X132988385Y-88202379D01*
X132988379Y-88202381D01*
X132856349Y-88257069D01*
X132856340Y-88257074D01*
X132737521Y-88336467D01*
X132737517Y-88336470D01*
X132636470Y-88437517D01*
X132636467Y-88437521D01*
X132557074Y-88556340D01*
X132557069Y-88556349D01*
X132502381Y-88688379D01*
X132502379Y-88688385D01*
X132474500Y-88828542D01*
X132474500Y-88828545D01*
X132474500Y-88971455D01*
X132474500Y-88971457D01*
X132474499Y-88971457D01*
X130620500Y-88971457D01*
X130620500Y-82084568D01*
X131619500Y-82084568D01*
X131619500Y-82365431D01*
X131650942Y-82644494D01*
X131650945Y-82644512D01*
X131713439Y-82918317D01*
X131713443Y-82918329D01*
X131806200Y-83183411D01*
X131928053Y-83436442D01*
X131928055Y-83436445D01*
X132077477Y-83674248D01*
X132139615Y-83752166D01*
X132235350Y-83872215D01*
X132252584Y-83893825D01*
X132451175Y-84092416D01*
X132670752Y-84267523D01*
X132908555Y-84416945D01*
X133161592Y-84538801D01*
X133360680Y-84608465D01*
X133426670Y-84631556D01*
X133426682Y-84631560D01*
X133700491Y-84694055D01*
X133700497Y-84694055D01*
X133700505Y-84694057D01*
X133886547Y-84715018D01*
X133979569Y-84725499D01*
X133979572Y-84725500D01*
X133979575Y-84725500D01*
X134260428Y-84725500D01*
X134260429Y-84725499D01*
X134403055Y-84709429D01*
X134539494Y-84694057D01*
X134539499Y-84694056D01*
X134539509Y-84694055D01*
X134813318Y-84631560D01*
X135078408Y-84538801D01*
X135331445Y-84416945D01*
X135569248Y-84267523D01*
X135788825Y-84092416D01*
X135987416Y-83893825D01*
X136162523Y-83674248D01*
X136311945Y-83436445D01*
X136433801Y-83183408D01*
X136526560Y-82918318D01*
X136589055Y-82644509D01*
X136609683Y-82461431D01*
X136613787Y-82425013D01*
X138850000Y-82425013D01*
X138850000Y-82775000D01*
X139834314Y-82775000D01*
X139829920Y-82779394D01*
X139777259Y-82870606D01*
X139750000Y-82972339D01*
X139750000Y-83077661D01*
X139777259Y-83179394D01*
X139829920Y-83270606D01*
X139834314Y-83275000D01*
X138850001Y-83275000D01*
X138850001Y-83624986D01*
X138860494Y-83727697D01*
X138915641Y-83894119D01*
X138915643Y-83894124D01*
X139007684Y-84043345D01*
X139131654Y-84167315D01*
X139280875Y-84259356D01*
X139280880Y-84259358D01*
X139447302Y-84314505D01*
X139447309Y-84314506D01*
X139550019Y-84324999D01*
X139899999Y-84324999D01*
X139900000Y-84324998D01*
X139900000Y-83340686D01*
X139904394Y-83345080D01*
X139995606Y-83397741D01*
X140097339Y-83425000D01*
X140202661Y-83425000D01*
X140304394Y-83397741D01*
X140395606Y-83345080D01*
X140400000Y-83340686D01*
X140400000Y-84324999D01*
X140749972Y-84324999D01*
X140749986Y-84324998D01*
X140852697Y-84314505D01*
X141019119Y-84259358D01*
X141019124Y-84259356D01*
X141168345Y-84167315D01*
X141237112Y-84098549D01*
X141298435Y-84065064D01*
X141368127Y-84070048D01*
X141397674Y-84085909D01*
X141468390Y-84137287D01*
X141527323Y-84167315D01*
X141650776Y-84230218D01*
X141650778Y-84230218D01*
X141650781Y-84230220D01*
X141740459Y-84259358D01*
X141845465Y-84293477D01*
X141946557Y-84309488D01*
X142047648Y-84325500D01*
X142047649Y-84325500D01*
X142252351Y-84325500D01*
X142252352Y-84325500D01*
X142454534Y-84293477D01*
X142649219Y-84230220D01*
X142831610Y-84137287D01*
X142931017Y-84065064D01*
X142997213Y-84016971D01*
X142997215Y-84016968D01*
X142997219Y-84016966D01*
X143141966Y-83872219D01*
X143211425Y-83776615D01*
X143215757Y-83773274D01*
X143218031Y-83768297D01*
X143243130Y-83752166D01*
X143266755Y-83733949D01*
X143273428Y-83732695D01*
X143276809Y-83730523D01*
X143311744Y-83725500D01*
X143508481Y-83725500D01*
X143575520Y-83745185D01*
X143596162Y-83761819D01*
X147156639Y-87322296D01*
X147172060Y-87341086D01*
X147236467Y-87437478D01*
X147236470Y-87437482D01*
X147337517Y-87538529D01*
X147337521Y-87538532D01*
X147456340Y-87617925D01*
X147456346Y-87617928D01*
X147456347Y-87617929D01*
X147588380Y-87672619D01*
X147588384Y-87672619D01*
X147588385Y-87672620D01*
X147728542Y-87700500D01*
X147728545Y-87700500D01*
X147871457Y-87700500D01*
X147965751Y-87681742D01*
X148011620Y-87672619D01*
X148143653Y-87617929D01*
X148262479Y-87538532D01*
X148363532Y-87437479D01*
X148442929Y-87318653D01*
X148497619Y-87186620D01*
X148525500Y-87046455D01*
X148525500Y-86903545D01*
X148525500Y-86903542D01*
X148497620Y-86763385D01*
X148497619Y-86763384D01*
X148497619Y-86763380D01*
X148442929Y-86631347D01*
X148442928Y-86631346D01*
X148442925Y-86631340D01*
X148363532Y-86512521D01*
X148363529Y-86512517D01*
X148262482Y-86411470D01*
X148262478Y-86411467D01*
X148166086Y-86347060D01*
X148147296Y-86331639D01*
X144695010Y-82879352D01*
X144296546Y-82480888D01*
X144296542Y-82480885D01*
X144267427Y-82461431D01*
X144234018Y-82439109D01*
X144181811Y-82404225D01*
X144181808Y-82404223D01*
X144181807Y-82404223D01*
X144054332Y-82351421D01*
X144054322Y-82351418D01*
X143921505Y-82324999D01*
X152458378Y-82324999D01*
X152458378Y-82325000D01*
X153289252Y-82325000D01*
X153267482Y-82362708D01*
X153230000Y-82502591D01*
X153230000Y-82647409D01*
X153267482Y-82787292D01*
X153289252Y-82825000D01*
X152458378Y-82825000D01*
X152476984Y-82918537D01*
X152505722Y-83013276D01*
X152569043Y-83166145D01*
X152615708Y-83253448D01*
X152615714Y-83253458D01*
X152707641Y-83391037D01*
X152770445Y-83467563D01*
X152887436Y-83584554D01*
X152963962Y-83647358D01*
X153101541Y-83739285D01*
X153101551Y-83739291D01*
X153188854Y-83785956D01*
X153341723Y-83849277D01*
X153436462Y-83878015D01*
X153530000Y-83896620D01*
X153530000Y-83065747D01*
X153567708Y-83087518D01*
X153707591Y-83125000D01*
X153852409Y-83125000D01*
X153992292Y-83087518D01*
X154030000Y-83065747D01*
X154030000Y-83896620D01*
X154123537Y-83878015D01*
X154218276Y-83849277D01*
X154371145Y-83785956D01*
X154458448Y-83739291D01*
X154458458Y-83739285D01*
X154596037Y-83647358D01*
X154672563Y-83584554D01*
X154789554Y-83467563D01*
X154852358Y-83391037D01*
X154944285Y-83253458D01*
X154944291Y-83253448D01*
X154990956Y-83166145D01*
X155054277Y-83013276D01*
X155083015Y-82918537D01*
X155101622Y-82825000D01*
X154270748Y-82825000D01*
X154292518Y-82787292D01*
X154330000Y-82647409D01*
X154330000Y-82502591D01*
X154292518Y-82362708D01*
X154270748Y-82325000D01*
X155101622Y-82325000D01*
X155101621Y-82324999D01*
X155083015Y-82231462D01*
X155054277Y-82136723D01*
X154990956Y-81983854D01*
X154944291Y-81896551D01*
X154944288Y-81896546D01*
X154920244Y-81860561D01*
X154920243Y-81860560D01*
X154852358Y-81758962D01*
X154789554Y-81682436D01*
X154672563Y-81565445D01*
X154596039Y-81502643D01*
X154534362Y-81461432D01*
X154534361Y-81461431D01*
X154458458Y-81410714D01*
X154458448Y-81410708D01*
X154371145Y-81364043D01*
X154276885Y-81324999D01*
X165598769Y-81324999D01*
X165598769Y-81325000D01*
X166518950Y-81325000D01*
X166476008Y-81399377D01*
X166445000Y-81515098D01*
X166445000Y-81634902D01*
X166476008Y-81750623D01*
X166518950Y-81825000D01*
X165598769Y-81825000D01*
X165616214Y-81912701D01*
X165644954Y-82007444D01*
X165706763Y-82156665D01*
X165706764Y-82156668D01*
X165753431Y-82243975D01*
X165753437Y-82243985D01*
X165843175Y-82378288D01*
X165905979Y-82454814D01*
X166020185Y-82569020D01*
X166096711Y-82631824D01*
X166231014Y-82721562D01*
X166231024Y-82721568D01*
X166318331Y-82768235D01*
X166318334Y-82768236D01*
X166467555Y-82830045D01*
X166562300Y-82858786D01*
X166650000Y-82876229D01*
X166650000Y-81956050D01*
X166724377Y-81998992D01*
X166840098Y-82030000D01*
X166959902Y-82030000D01*
X167075623Y-81998992D01*
X167150000Y-81956050D01*
X167150000Y-82876229D01*
X167237699Y-82858786D01*
X167332444Y-82830045D01*
X167481665Y-82768236D01*
X167481668Y-82768235D01*
X167568975Y-82721568D01*
X167568985Y-82721562D01*
X167703288Y-82631824D01*
X167779814Y-82569020D01*
X167894020Y-82454814D01*
X167956824Y-82378288D01*
X168046562Y-82243985D01*
X168046568Y-82243975D01*
X168093234Y-82156670D01*
X168123100Y-82084568D01*
X173719500Y-82084568D01*
X173719500Y-82365431D01*
X173750942Y-82644494D01*
X173750945Y-82644512D01*
X173813439Y-82918317D01*
X173813443Y-82918329D01*
X173906200Y-83183411D01*
X174028053Y-83436442D01*
X174028055Y-83436445D01*
X174177477Y-83674248D01*
X174239615Y-83752166D01*
X174335350Y-83872215D01*
X174352584Y-83893825D01*
X174551175Y-84092416D01*
X174770752Y-84267523D01*
X175008555Y-84416945D01*
X175261592Y-84538801D01*
X175460680Y-84608465D01*
X175526670Y-84631556D01*
X175526682Y-84631560D01*
X175800491Y-84694055D01*
X175800497Y-84694055D01*
X175800505Y-84694057D01*
X175986547Y-84715018D01*
X176079569Y-84725499D01*
X176079572Y-84725500D01*
X176079575Y-84725500D01*
X176360428Y-84725500D01*
X176360429Y-84725499D01*
X176503055Y-84709429D01*
X176639494Y-84694057D01*
X176639499Y-84694056D01*
X176639509Y-84694055D01*
X176913318Y-84631560D01*
X177178408Y-84538801D01*
X177431445Y-84416945D01*
X177669248Y-84267523D01*
X177888825Y-84092416D01*
X178087416Y-83893825D01*
X178262523Y-83674248D01*
X178411945Y-83436445D01*
X178533801Y-83183408D01*
X178626560Y-82918318D01*
X178689055Y-82644509D01*
X178689056Y-82644499D01*
X178689057Y-82644494D01*
X178705045Y-82502591D01*
X178720500Y-82365425D01*
X178720500Y-82084575D01*
X178707787Y-81971740D01*
X178689057Y-81805505D01*
X178689054Y-81805487D01*
X178626560Y-81531682D01*
X178626556Y-81531670D01*
X178601978Y-81461431D01*
X178533801Y-81266592D01*
X178411945Y-81013555D01*
X178262523Y-80775752D01*
X178087416Y-80556175D01*
X177888825Y-80357584D01*
X177669248Y-80182477D01*
X177431445Y-80033055D01*
X177431442Y-80033053D01*
X177178411Y-79911200D01*
X176913329Y-79818443D01*
X176913317Y-79818439D01*
X176639512Y-79755945D01*
X176639494Y-79755942D01*
X176360431Y-79724500D01*
X176360425Y-79724500D01*
X176079575Y-79724500D01*
X176079568Y-79724500D01*
X175800505Y-79755942D01*
X175800487Y-79755945D01*
X175526682Y-79818439D01*
X175526670Y-79818443D01*
X175261588Y-79911200D01*
X175008557Y-80033053D01*
X174770753Y-80182476D01*
X174551175Y-80357583D01*
X174352583Y-80556175D01*
X174177476Y-80775753D01*
X174028053Y-81013557D01*
X173906200Y-81266588D01*
X173813443Y-81531670D01*
X173813439Y-81531682D01*
X173750945Y-81805487D01*
X173750942Y-81805505D01*
X173719500Y-82084568D01*
X168123100Y-82084568D01*
X168144194Y-82033643D01*
X168144194Y-82033641D01*
X168155045Y-82007444D01*
X168183785Y-81912701D01*
X168201231Y-81825000D01*
X167281050Y-81825000D01*
X167323992Y-81750623D01*
X167355000Y-81634902D01*
X167355000Y-81515098D01*
X167323992Y-81399377D01*
X167281050Y-81325000D01*
X168201231Y-81325000D01*
X168201230Y-81324999D01*
X168183785Y-81237298D01*
X168155045Y-81142555D01*
X168093236Y-80993334D01*
X168093235Y-80993331D01*
X168046568Y-80906024D01*
X168046562Y-80906014D01*
X167956824Y-80771711D01*
X167894020Y-80695185D01*
X167779814Y-80580979D01*
X167703288Y-80518175D01*
X167568985Y-80428437D01*
X167568975Y-80428431D01*
X167481668Y-80381764D01*
X167481665Y-80381763D01*
X167332444Y-80319954D01*
X167237701Y-80291214D01*
X167150000Y-80273769D01*
X167150000Y-81193949D01*
X167075623Y-81151008D01*
X166959902Y-81120000D01*
X166840098Y-81120000D01*
X166724377Y-81151008D01*
X166650000Y-81193949D01*
X166650000Y-80273769D01*
X166649999Y-80273769D01*
X166562298Y-80291214D01*
X166467555Y-80319954D01*
X166318334Y-80381763D01*
X166318331Y-80381764D01*
X166231024Y-80428431D01*
X166231014Y-80428437D01*
X166096711Y-80518175D01*
X166020185Y-80580979D01*
X165905979Y-80695185D01*
X165843175Y-80771711D01*
X165753437Y-80906014D01*
X165753431Y-80906024D01*
X165706764Y-80993331D01*
X165706763Y-80993334D01*
X165644954Y-81142555D01*
X165616214Y-81237298D01*
X165598769Y-81324999D01*
X154276885Y-81324999D01*
X154218276Y-81300722D01*
X154123537Y-81271984D01*
X154030000Y-81253378D01*
X154030000Y-82084252D01*
X153992292Y-82062482D01*
X153852409Y-82025000D01*
X153707591Y-82025000D01*
X153567708Y-82062482D01*
X153530000Y-82084252D01*
X153530000Y-81253378D01*
X153529999Y-81253378D01*
X153436462Y-81271984D01*
X153341723Y-81300722D01*
X153188854Y-81364043D01*
X153101551Y-81410708D01*
X153101541Y-81410714D01*
X152963962Y-81502641D01*
X152887436Y-81565445D01*
X152770445Y-81682436D01*
X152707641Y-81758962D01*
X152615714Y-81896541D01*
X152615708Y-81896551D01*
X152569043Y-81983854D01*
X152505722Y-82136723D01*
X152476984Y-82231462D01*
X152458378Y-82324999D01*
X143921505Y-82324999D01*
X143918996Y-82324500D01*
X143918994Y-82324500D01*
X143918993Y-82324500D01*
X143311744Y-82324500D01*
X143244705Y-82304815D01*
X143211425Y-82273384D01*
X143141969Y-82177784D01*
X142997213Y-82033028D01*
X142831613Y-81912715D01*
X142831612Y-81912714D01*
X142831610Y-81912713D01*
X142757494Y-81874949D01*
X142649223Y-81819781D01*
X142454534Y-81756522D01*
X142279995Y-81728878D01*
X142252352Y-81724500D01*
X142047648Y-81724500D01*
X142023329Y-81728351D01*
X141845465Y-81756522D01*
X141650776Y-81819781D01*
X141468391Y-81912712D01*
X141468389Y-81912713D01*
X141397676Y-81964088D01*
X141331869Y-81987567D01*
X141263815Y-81971740D01*
X141237111Y-81951450D01*
X141168345Y-81882684D01*
X141019124Y-81790643D01*
X141019119Y-81790641D01*
X140852697Y-81735494D01*
X140852690Y-81735493D01*
X140749986Y-81725000D01*
X140400000Y-81725000D01*
X140400000Y-82709314D01*
X140395606Y-82704920D01*
X140304394Y-82652259D01*
X140202661Y-82625000D01*
X140097339Y-82625000D01*
X139995606Y-82652259D01*
X139904394Y-82704920D01*
X139900000Y-82709314D01*
X139900000Y-81725000D01*
X139550028Y-81725000D01*
X139550012Y-81725001D01*
X139447302Y-81735494D01*
X139280880Y-81790641D01*
X139280875Y-81790643D01*
X139131654Y-81882684D01*
X139007684Y-82006654D01*
X138915643Y-82155875D01*
X138915641Y-82155880D01*
X138860494Y-82322302D01*
X138860493Y-82322309D01*
X138850000Y-82425013D01*
X136613787Y-82425013D01*
X136615706Y-82407980D01*
X136615706Y-82407979D01*
X136620499Y-82365433D01*
X136620500Y-82365427D01*
X136620500Y-82084572D01*
X136620499Y-82084568D01*
X136613787Y-82025000D01*
X136607787Y-81971740D01*
X136589057Y-81805505D01*
X136589054Y-81805487D01*
X136526560Y-81531682D01*
X136526556Y-81531670D01*
X136501978Y-81461431D01*
X136433801Y-81266592D01*
X136311945Y-81013555D01*
X136162523Y-80775752D01*
X135987416Y-80556175D01*
X135788825Y-80357584D01*
X135569248Y-80182477D01*
X135331445Y-80033055D01*
X135331442Y-80033053D01*
X135078411Y-79911200D01*
X134813329Y-79818443D01*
X134813317Y-79818439D01*
X134539512Y-79755945D01*
X134539494Y-79755942D01*
X134260431Y-79724500D01*
X134260425Y-79724500D01*
X133979575Y-79724500D01*
X133979568Y-79724500D01*
X133700505Y-79755942D01*
X133700487Y-79755945D01*
X133426682Y-79818439D01*
X133426670Y-79818443D01*
X133161588Y-79911200D01*
X132908557Y-80033053D01*
X132670753Y-80182476D01*
X132451175Y-80357583D01*
X132252583Y-80556175D01*
X132077476Y-80775753D01*
X131928053Y-81013557D01*
X131806200Y-81266588D01*
X131713443Y-81531670D01*
X131713439Y-81531682D01*
X131650945Y-81805487D01*
X131650942Y-81805505D01*
X131619500Y-82084568D01*
X130620500Y-82084568D01*
X130620500Y-78799500D01*
X130640185Y-78732461D01*
X130692989Y-78686706D01*
X130744500Y-78675500D01*
X179495500Y-78675500D01*
X179562539Y-78695185D01*
G37*
%TD.AperFunction*%
%TD*%
M02*
