M48
; DRILL file KiCad 10.0.1 date 2026-08-22T00:52:00
; FORMAT={-:-/ absolute / metric / decimal}
; #@! TF.CreationDate,2026-08-22T00:52:00+01:00
; #@! TF.GenerationSoftware,Kicad,Pcbnew,10.0.1
; #@! TF.FileFunction,Plated,1,2,PTH
FMAT,2
METRIC
; #@! TA.AperFunction,Plated,PTH,ViaDrill
T1C0.300
; #@! TA.AperFunction,Plated,PTH,ComponentDrill
T2C0.800
; #@! TA.AperFunction,Plated,PTH,ComponentDrill
T3C0.910
; #@! TA.AperFunction,Plated,PTH,ComponentDrill
T4C1.000
; #@! TA.AperFunction,Plated,PTH,ComponentDrill
T5C1.100
%
G90
G05
T1
X131.2Y-120.3
X132.275Y-120.125
X133.2Y-88.9
X137.525Y-88.8
X143.05Y-118.35
X143.7Y-107.45
X146.5Y-115.15
X147.8Y-86.975
X147.925Y-80.275
X152.475Y-94.8
X157.975Y-99.925
X162.05Y-117.725
X170.6Y-83.4
X170.825Y-122.475
X172.725Y-87.725
T2
X134.88Y-96.525
X134.88Y-104.145
X137.42Y-96.525
X137.42Y-104.145
X139.96Y-96.525
X139.96Y-104.145
X140.15Y-83.025
X142.15Y-83.025
X142.5Y-96.525
X142.5Y-104.145
X155.7Y-118.45
X155.7Y-120.95
X170.115Y-96.625
X170.115Y-104.245
X171.165Y-112.06
X171.165Y-117.14
X172.655Y-96.625
X172.655Y-104.245
X175.195Y-96.625
X175.195Y-104.245
X176.245Y-114.6
X177.735Y-96.625
X177.735Y-104.245
T3
X166.9Y-81.575
T4
X155.875Y-125.65
X158.415Y-125.65
X172.125Y-123.65
X172.125Y-126.19
T5
X141.72Y-125.362
X144.26Y-125.362
X146.8Y-125.362
X153.78Y-82.575
M30
