%TF.GenerationSoftware,KiCad,Pcbnew,10.0.1*%
%TF.CreationDate,2026-08-22T00:52:01+01:00*%
%TF.ProjectId,Microphone amp,4d696372-6f70-4686-9f6e-6520616d702e,rev?*%
%TF.SameCoordinates,Original*%
%TF.FileFunction,Copper,L1,Top*%
%TF.FilePolarity,Positive*%
%FSLAX46Y46*%
G04 Gerber Fmt 4.6, Leading zero omitted, Abs format (unit mm)*
G04 Created by KiCad (PCBNEW 10.0.1) date 2026-08-22 00:52:01*
%MOMM*%
%LPD*%
G01*
G04 APERTURE LIST*
G04 Aperture macros list*
%AMRoundRect*
0 Rectangle with rounded corners*
0 $1 Rounding radius*
0 $2 $3 $4 $5 $6 $7 $8 $9 X,Y pos of 4 corners*
0 Add a 4 corners polygon primitive as box body*
4,1,4,$2,$3,$4,$5,$6,$7,$8,$9,$2,$3,0*
0 Add four circle primitives for the rounded corners*
1,1,$1+$1,$2,$3*
1,1,$1+$1,$4,$5*
1,1,$1+$1,$6,$7*
1,1,$1+$1,$8,$9*
0 Add four rect primitives between the rounded corners*
20,1,$1+$1,$2,$3,$4,$5,0*
20,1,$1+$1,$4,$5,$6,$7,0*
20,1,$1+$1,$6,$7,$8,$9,0*
20,1,$1+$1,$8,$9,$2,$3,0*%
%AMFreePoly0*
4,1,25,0.172208,0.415746,0.273943,0.357009,0.357009,0.273943,0.415746,0.172208,0.446150,0.058737,0.446150,-0.058737,0.415746,-0.172208,0.357009,-0.273943,0.273943,-0.357009,0.172208,-0.415746,0.058737,-0.446150,-0.058737,-0.446150,-0.172208,-0.415746,-0.273943,-0.357009,-0.357009,-0.273943,-0.415746,-0.172208,-0.446150,-0.058737,-0.446150,0.058737,-0.415746,0.172208,-0.357009,0.273943,
-0.273943,0.357009,-0.172208,0.415746,-0.058737,0.446150,0.058737,0.446150,0.172208,0.415746,0.172208,0.415746,$1*%
%AMFreePoly1*
4,1,25,0.133939,0.323358,0.213067,0.277674,0.277674,0.213067,0.323358,0.133939,0.347006,0.045684,0.347006,-0.045684,0.323358,-0.133939,0.277674,-0.213067,0.213067,-0.277674,0.133939,-0.323358,0.045684,-0.347006,-0.045684,-0.347006,-0.133939,-0.323358,-0.213067,-0.277674,-0.277674,-0.213067,-0.323358,-0.133939,-0.347006,-0.045684,-0.347006,0.045684,-0.323358,0.133939,-0.277674,0.213067,
-0.213067,0.277674,-0.133939,0.323358,-0.045684,0.347006,0.045684,0.347006,0.133939,0.323358,0.133939,0.323358,$1*%
%AMFreePoly2*
4,1,33,0.243839,0.803830,0.395973,0.740814,0.532890,0.649329,0.649329,0.532890,0.740814,0.395973,0.803830,0.243839,0.835955,0.082334,0.835955,-0.082334,0.803830,-0.243839,0.740814,-0.395973,0.649329,-0.532890,0.532890,-0.649329,0.395973,-0.740814,0.243839,-0.803830,0.082334,-0.835955,-0.082334,-0.835955,-0.243839,-0.803830,-0.395973,-0.740814,-0.532890,-0.649329,-0.649329,-0.532890,
-0.740814,-0.395973,-0.803830,-0.243839,-0.835955,-0.082334,-0.835955,0.082334,-0.803830,0.243839,-0.740814,0.395973,-0.649329,0.532890,-0.532890,0.649329,-0.395973,0.740814,-0.243839,0.803830,-0.082334,0.835955,0.082334,0.835955,0.243839,0.803830,0.243839,0.803830,$1*%
%AMFreePoly3*
4,1,5,0.385000,-0.285000,-0.385000,-0.285000,-0.385000,0.285000,0.385000,0.285000,0.385000,-0.285000,0.385000,-0.285000,$1*%
%AMFreePoly4*
4,1,33,0.238033,0.784691,0.386545,0.723175,0.520202,0.633869,0.633869,0.520202,0.723175,0.386545,0.784691,0.238033,0.816051,0.080374,0.816051,-0.080374,0.784691,-0.238033,0.723175,-0.386545,0.633869,-0.520202,0.520202,-0.633869,0.386545,-0.723175,0.238033,-0.784691,0.080374,-0.816051,-0.080374,-0.816051,-0.238033,-0.784691,-0.386545,-0.723175,-0.520202,-0.633869,-0.633869,-0.520202,
-0.723175,-0.386545,-0.784691,-0.238033,-0.816051,-0.080374,-0.816051,0.080374,-0.784691,0.238033,-0.723175,0.386545,-0.633869,0.520202,-0.520202,0.633869,-0.386545,0.723175,-0.238033,0.784691,-0.080374,0.816051,0.080374,0.816051,0.238033,0.784691,0.238033,0.784691,$1*%
G04 Aperture macros list end*
%TA.AperFunction,ComponentPad*%
%ADD10R,1.700000X1.700000*%
%TD*%
%TA.AperFunction,ComponentPad*%
%ADD11C,1.700000*%
%TD*%
%TA.AperFunction,SMDPad,CuDef*%
%ADD12RoundRect,0.250000X0.450000X-0.350000X0.450000X0.350000X-0.450000X0.350000X-0.450000X-0.350000X0*%
%TD*%
%TA.AperFunction,ComponentPad*%
%ADD13C,1.600000*%
%TD*%
%TA.AperFunction,SMDPad,CuDef*%
%ADD14RoundRect,0.250000X0.337500X0.475000X-0.337500X0.475000X-0.337500X-0.475000X0.337500X-0.475000X0*%
%TD*%
%TA.AperFunction,SMDPad,CuDef*%
%ADD15RoundRect,0.250000X0.350000X0.450000X-0.350000X0.450000X-0.350000X-0.450000X0.350000X-0.450000X0*%
%TD*%
%TA.AperFunction,SMDPad,CuDef*%
%ADD16RoundRect,0.135000X0.185000X-0.135000X0.185000X0.135000X-0.185000X0.135000X-0.185000X-0.135000X0*%
%TD*%
%TA.AperFunction,SMDPad,CuDef*%
%ADD17RoundRect,0.250000X-0.475000X0.337500X-0.475000X-0.337500X0.475000X-0.337500X0.475000X0.337500X0*%
%TD*%
%TA.AperFunction,ComponentPad*%
%ADD18C,1.440000*%
%TD*%
%TA.AperFunction,ComponentPad*%
%ADD19RoundRect,0.250000X0.550000X-0.550000X0.550000X0.550000X-0.550000X0.550000X-0.550000X-0.550000X0*%
%TD*%
%TA.AperFunction,SMDPad,CuDef*%
%ADD20RoundRect,0.250000X-0.350000X-0.450000X0.350000X-0.450000X0.350000X0.450000X-0.350000X0.450000X0*%
%TD*%
%TA.AperFunction,SMDPad,CuDef*%
%ADD21RoundRect,0.375000X0.375000X-0.625000X0.375000X0.625000X-0.375000X0.625000X-0.375000X-0.625000X0*%
%TD*%
%TA.AperFunction,SMDPad,CuDef*%
%ADD22RoundRect,0.500000X1.400000X-0.500000X1.400000X0.500000X-1.400000X0.500000X-1.400000X-0.500000X0*%
%TD*%
%TA.AperFunction,SMDPad,CuDef*%
%ADD23RoundRect,0.250000X0.475000X-0.337500X0.475000X0.337500X-0.475000X0.337500X-0.475000X-0.337500X0*%
%TD*%
%TA.AperFunction,ComponentPad*%
%ADD24R,1.905000X2.000000*%
%TD*%
%TA.AperFunction,ComponentPad*%
%ADD25O,1.905000X2.000000*%
%TD*%
%TA.AperFunction,ComponentPad*%
%ADD26RoundRect,0.250000X-0.550000X-0.550000X0.550000X-0.550000X0.550000X0.550000X-0.550000X0.550000X0*%
%TD*%
%TA.AperFunction,SMDPad,CuDef*%
%ADD27RoundRect,0.250000X-0.337500X-0.475000X0.337500X-0.475000X0.337500X0.475000X-0.337500X0.475000X0*%
%TD*%
%TA.AperFunction,SMDPad,CuDef*%
%ADD28RoundRect,0.250000X-0.450000X0.350000X-0.450000X-0.350000X0.450000X-0.350000X0.450000X0.350000X0*%
%TD*%
%TA.AperFunction,ComponentPad*%
%ADD29RoundRect,0.250000X0.550000X-0.950000X0.550000X0.950000X-0.550000X0.950000X-0.550000X-0.950000X0*%
%TD*%
%TA.AperFunction,ComponentPad*%
%ADD30O,1.600000X2.400000*%
%TD*%
%TA.AperFunction,SMDPad,CuDef*%
%ADD31FreePoly0,180.000000*%
%TD*%
%TA.AperFunction,SMDPad,CuDef*%
%ADD32FreePoly1,180.000000*%
%TD*%
%TA.AperFunction,ComponentPad*%
%ADD33FreePoly2,180.000000*%
%TD*%
%TA.AperFunction,SMDPad,CuDef*%
%ADD34FreePoly3,0.000000*%
%TD*%
%TA.AperFunction,SMDPad,CuDef*%
%ADD35R,0.770000X0.570000*%
%TD*%
%TA.AperFunction,ComponentPad*%
%ADD36FreePoly4,0.000000*%
%TD*%
%TA.AperFunction,ViaPad*%
%ADD37C,0.600000*%
%TD*%
%TA.AperFunction,ViaPad*%
%ADD38C,0.450000*%
%TD*%
%TA.AperFunction,Conductor*%
%ADD39C,1.000000*%
%TD*%
%TA.AperFunction,Conductor*%
%ADD40C,0.800000*%
%TD*%
%TA.AperFunction,Conductor*%
%ADD41C,0.400000*%
%TD*%
G04 APERTURE END LIST*
D10*
%TO.P,J1,1,Pin_1_1*%
%TO.N,+5V*%
X172125000Y-123650000D03*
D11*
%TO.P,J1,2,Pin_2_2*%
%TO.N,GND*%
X172125000Y-126190000D03*
%TD*%
D12*
%TO.P,R8,1*%
%TO.N,Net-(C11-Pad2)*%
X152520000Y-98075000D03*
%TO.P,R8,2*%
%TO.N,GND*%
X152520000Y-96075000D03*
%TD*%
D13*
%TO.P,C6,1*%
%TO.N,Net-(C6-Pad1)*%
X155700000Y-118450000D03*
%TO.P,C6,2*%
%TO.N,Net-(C6-Pad2)*%
X155700000Y-120950000D03*
%TD*%
D14*
%TO.P,C12,1*%
%TO.N,GND*%
X157845000Y-97925000D03*
%TO.P,C12,2*%
%TO.N,Net-(C11-Pad2)*%
X155770000Y-97925000D03*
%TD*%
D15*
%TO.P,R5,1*%
%TO.N,Net-(U2--)*%
X144050000Y-92425000D03*
%TO.P,R5,2*%
%TO.N,Net-(C13-Pad1)*%
X142050000Y-92425000D03*
%TD*%
D16*
%TO.P,R9,1*%
%TO.N,Mic-out*%
X165200000Y-88020000D03*
%TO.P,R9,2*%
%TO.N,Net-(IM68A130V1-Output)*%
X165200000Y-87000000D03*
%TD*%
D15*
%TO.P,R6,1*%
%TO.N,Net-(C11-Pad2)*%
X148945000Y-98175000D03*
%TO.P,R6,2*%
%TO.N,Net-(U2--)*%
X146945000Y-98175000D03*
%TD*%
D17*
%TO.P,C8,1*%
%TO.N,+3.3V*%
X141620000Y-116375000D03*
%TO.P,C8,2*%
%TO.N,GND*%
X141620000Y-118450000D03*
%TD*%
D18*
%TO.P,RV1,1,1_1*%
%TO.N,Signal-preamped*%
X171165000Y-117140000D03*
%TO.P,RV1,2,2_2*%
%TO.N,Net-(U4--)*%
X176245000Y-114600000D03*
%TO.P,RV1,3,3_3*%
%TO.N,GND*%
X171165000Y-112060000D03*
%TD*%
D14*
%TO.P,C9,1*%
%TO.N,Mic-out*%
X143550000Y-109200000D03*
%TO.P,C9,2*%
%TO.N,Net-(U2-+)*%
X141475000Y-109200000D03*
%TD*%
D17*
%TO.P,C15,1*%
%TO.N,GND*%
X147800000Y-81150000D03*
%TO.P,C15,2*%
%TO.N,+3.3V*%
X147800000Y-83225000D03*
%TD*%
D19*
%TO.P,U2,1,NC_1*%
%TO.N,unconnected-(U2-NC-Pad1)*%
X134880000Y-104145000D03*
D13*
%TO.P,U2,2,-_2*%
%TO.N,Net-(U2--)*%
X137420000Y-104145000D03*
%TO.P,U2,3,+_3*%
%TO.N,Net-(U2-+)*%
X139960000Y-104145000D03*
%TO.P,U2,4,V-_4*%
%TO.N,GND*%
X142500000Y-104145000D03*
%TO.P,U2,5,NC_5*%
%TO.N,unconnected-(U2-NC-Pad5)*%
X142500000Y-96525000D03*
%TO.P,U2,6*%
%TO.N,Net-(C13-Pad1)*%
X139960000Y-96525000D03*
%TO.P,U2,7,V+_7*%
%TO.N,+5V*%
X137420000Y-96525000D03*
%TO.P,U2,8,NC_8*%
%TO.N,unconnected-(U2-NC-Pad8)*%
X134880000Y-96525000D03*
%TD*%
D14*
%TO.P,C11,1*%
%TO.N,GND*%
X157820000Y-102325000D03*
%TO.P,C11,2*%
%TO.N,Net-(C11-Pad2)*%
X155745000Y-102325000D03*
%TD*%
D20*
%TO.P,R3,1*%
%TO.N,Net-(C6-Pad1)*%
X155825000Y-113475000D03*
%TO.P,R3,2*%
%TO.N,Net-(C5-Pad1)*%
X157825000Y-113475000D03*
%TD*%
D21*
%TO.P,U1,1,GND_1*%
%TO.N,GND*%
X132175000Y-118475000D03*
%TO.P,U1,2,VO_2*%
%TO.N,+3.3V*%
X134475000Y-118475000D03*
D22*
X134475000Y-112175000D03*
D21*
%TO.P,U1,3,VI_3*%
%TO.N,+5V*%
X136775000Y-118475000D03*
%TD*%
D17*
%TO.P,C3,1*%
%TO.N,GND*%
X172675000Y-89100000D03*
%TO.P,C3,2*%
%TO.N,Net-(U4-BYPASS)*%
X172675000Y-91175000D03*
%TD*%
D12*
%TO.P,R7,1*%
%TO.N,+5V*%
X152545000Y-104075000D03*
%TO.P,R7,2*%
%TO.N,Net-(C11-Pad2)*%
X152545000Y-102075000D03*
%TD*%
D14*
%TO.P,C4,1*%
%TO.N,Net-(C4-Pad1)*%
X165375000Y-96600000D03*
%TO.P,C4,2*%
%TO.N,Net-(C4-Pad2)*%
X163300000Y-96600000D03*
%TD*%
D23*
%TO.P,C7,1*%
%TO.N,+5V*%
X146450000Y-118500000D03*
%TO.P,C7,2*%
%TO.N,GND*%
X146450000Y-116425000D03*
%TD*%
D24*
%TO.P,U3,1,GND_1*%
%TO.N,GND*%
X141720000Y-125362500D03*
D25*
%TO.P,U3,2,VO_2*%
%TO.N,+3.3V*%
X144260000Y-125362500D03*
%TO.P,U3,3,VI_3*%
%TO.N,+5V*%
X146800000Y-125362500D03*
%TD*%
D10*
%TO.P,LS1,1,1_1*%
%TO.N,Net-(C6-Pad2)*%
X155875000Y-125650000D03*
D11*
%TO.P,LS1,2,2_2*%
%TO.N,GND*%
X158415000Y-125650000D03*
%TD*%
D23*
%TO.P,C10,1*%
%TO.N,+5V*%
X137450000Y-92000000D03*
%TO.P,C10,2*%
%TO.N,GND*%
X137450000Y-89925000D03*
%TD*%
%TO.P,C5,1*%
%TO.N,Net-(C5-Pad1)*%
X162225000Y-113475000D03*
%TO.P,C5,2*%
%TO.N,GND*%
X162225000Y-111400000D03*
%TD*%
D26*
%TO.P,MK3,1,-_1*%
%TO.N,GND*%
X140150000Y-83025000D03*
D13*
%TO.P,MK3,2,+_2*%
%TO.N,Net-(MK3-+)*%
X142150000Y-83025000D03*
%TD*%
D27*
%TO.P,C13,1*%
%TO.N,Net-(C13-Pad1)*%
X163825000Y-118900000D03*
%TO.P,C13,2*%
%TO.N,Signal-preamped*%
X165900000Y-118900000D03*
%TD*%
D28*
%TO.P,R11,1*%
%TO.N,Net-(MK3-+)*%
X147875000Y-88300000D03*
%TO.P,R11,2*%
%TO.N,+3.3V*%
X147875000Y-90300000D03*
%TD*%
D20*
%TO.P,R4,1*%
%TO.N,Net-(U2-+)*%
X146945000Y-102100000D03*
%TO.P,R4,2*%
%TO.N,Net-(C11-Pad2)*%
X148945000Y-102100000D03*
%TD*%
D15*
%TO.P,R2,1*%
%TO.N,Net-(R2-Pad1)*%
X165320000Y-104200000D03*
%TO.P,R2,2*%
%TO.N,Net-(C4-Pad2)*%
X163320000Y-104200000D03*
%TD*%
D23*
%TO.P,C14,1*%
%TO.N,GND*%
X171575000Y-82750000D03*
%TO.P,C14,2*%
%TO.N,+3.3V*%
X171575000Y-80675000D03*
%TD*%
D29*
%TO.P,U4,1,GAIN_1*%
%TO.N,Net-(R2-Pad1)*%
X170115000Y-104245000D03*
D30*
%TO.P,U4,2,-_2*%
%TO.N,Net-(U4--)*%
X172655000Y-104245000D03*
%TO.P,U4,3,+_3*%
%TO.N,GND*%
X175195000Y-104245000D03*
%TO.P,U4,4,GND_4*%
X177735000Y-104245000D03*
%TO.P,U4,5*%
%TO.N,Net-(C6-Pad1)*%
X177735000Y-96625000D03*
%TO.P,U4,6,V+_6*%
%TO.N,+5V*%
X175195000Y-96625000D03*
%TO.P,U4,7,BYPASS_7*%
%TO.N,Net-(U4-BYPASS)*%
X172655000Y-96625000D03*
%TO.P,U4,8,GAIN_8*%
%TO.N,Net-(C4-Pad1)*%
X170115000Y-96625000D03*
%TD*%
D16*
%TO.P,R10,1*%
%TO.N,Mic-out*%
X133350000Y-87995000D03*
%TO.P,R10,2*%
%TO.N,Net-(MK3-+)*%
X133350000Y-86975000D03*
%TD*%
D31*
%TO.P,INMP1,1,OUTPUT_1*%
%TO.N,Net-(INMP1-OUTPUT)*%
X156400000Y-83775000D03*
D32*
%TO.P,INMP1,2,GND_2*%
%TO.N,GND*%
X152990000Y-83775000D03*
D33*
%TO.P,INMP1,3,GND_3*%
X153780000Y-82575000D03*
D32*
%TO.P,INMP1,4,GND_4*%
X152990000Y-81375000D03*
D31*
%TO.P,INMP1,5,Power_Supply_5*%
%TO.N,+3.3V*%
X156400000Y-81375000D03*
%TO.P,INMP1,6,GND_6*%
%TO.N,GND*%
X156400000Y-82575000D03*
%TD*%
D16*
%TO.P,R1,1*%
%TO.N,Mic-out*%
X156575000Y-88520000D03*
%TO.P,R1,2*%
%TO.N,Net-(INMP1-OUTPUT)*%
X156575000Y-87500000D03*
%TD*%
D34*
%TO.P,IM68A130V1,1,Output_1*%
%TO.N,Net-(IM68A130V1-Output)*%
X165235000Y-82350000D03*
%TO.P,IM68A130V1,2,GND_2*%
%TO.N,GND*%
X165235000Y-81575000D03*
D35*
%TO.P,IM68A130V1,3,Vdd-3.3_3*%
%TO.N,+3.3V*%
X165235000Y-80800000D03*
D36*
%TO.P,IM68A130V1,4,GND_4*%
%TO.N,GND*%
X166900000Y-81575000D03*
%TD*%
D37*
%TO.N,+5V*%
X170825000Y-122475000D03*
D38*
%TO.N,GND*%
X146500000Y-115150000D03*
X137525000Y-88800000D03*
X152475000Y-94800000D03*
X147925000Y-80275000D03*
X131200000Y-120300000D03*
X132275000Y-120125000D03*
X157975000Y-99925000D03*
X172725000Y-87725000D03*
X170600000Y-83400000D03*
X143050000Y-118350000D03*
%TO.N,Net-(C13-Pad1)*%
X162050000Y-117725000D03*
%TO.N,Mic-out*%
X133200000Y-88900000D03*
X143700000Y-107450000D03*
%TO.N,Net-(MK3-+)*%
X147800000Y-86975000D03*
%TD*%
%TO.N,+5V*%
D39*
X172000000Y-123650000D02*
X170825000Y-122475000D01*
D40*
X170825000Y-122475000D02*
X166200000Y-127100000D01*
D39*
X172125000Y-123650000D02*
X172000000Y-123650000D01*
D40*
X166200000Y-127100000D02*
X148537500Y-127100000D01*
X148537500Y-127100000D02*
X146800000Y-125362500D01*
X179220000Y-114080000D02*
X170825000Y-122475000D01*
X179220000Y-100650000D02*
X179220000Y-114080000D01*
X175195000Y-96625000D02*
X179220000Y-100650000D01*
%TO.N,Net-(C11-Pad2)*%
X152420000Y-98175000D02*
X152520000Y-98075000D01*
X152520000Y-102100000D02*
X152545000Y-102075000D01*
X152545000Y-102075000D02*
X155495000Y-102075000D01*
X148945000Y-98175000D02*
X152420000Y-98175000D01*
X152670000Y-97925000D02*
X152520000Y-98075000D01*
X148945000Y-102100000D02*
X148945000Y-98175000D01*
X155745000Y-97950000D02*
X155770000Y-97925000D01*
X155745000Y-102325000D02*
X155745000Y-97950000D01*
X155770000Y-97925000D02*
X152670000Y-97925000D01*
X148945000Y-102100000D02*
X152520000Y-102100000D01*
X155495000Y-102075000D02*
X155745000Y-102325000D01*
%TO.N,GND*%
X146450000Y-116425000D02*
X146450000Y-115200000D01*
X157845000Y-97925000D02*
X157845000Y-99795000D01*
X152520000Y-96075000D02*
X152520000Y-94845000D01*
X146450000Y-115200000D02*
X146500000Y-115150000D01*
X157820000Y-100080000D02*
X157975000Y-99925000D01*
X157820000Y-102325000D02*
X157820000Y-100080000D01*
X142950000Y-118450000D02*
X143050000Y-118350000D01*
X132175000Y-119325000D02*
X131200000Y-120300000D01*
D41*
X152990000Y-83775000D02*
X152990000Y-83365000D01*
D40*
X172675000Y-87775000D02*
X172725000Y-87725000D01*
D41*
X152990000Y-81375000D02*
X152990000Y-81785000D01*
X165235000Y-81575000D02*
X166900000Y-81575000D01*
D40*
X137450000Y-89925000D02*
X137450000Y-88875000D01*
X132175000Y-118475000D02*
X132175000Y-119325000D01*
X147800000Y-81150000D02*
X147800000Y-80400000D01*
X132175000Y-118475000D02*
X132175000Y-120025000D01*
X137450000Y-88875000D02*
X137525000Y-88800000D01*
D41*
X152990000Y-83365000D02*
X153780000Y-82575000D01*
D40*
X171250000Y-82750000D02*
X170600000Y-83400000D01*
X171575000Y-82750000D02*
X171250000Y-82750000D01*
X157845000Y-99795000D02*
X157975000Y-99925000D01*
X147800000Y-80400000D02*
X147925000Y-80275000D01*
X132175000Y-120025000D02*
X132275000Y-120125000D01*
X141620000Y-118450000D02*
X142950000Y-118450000D01*
X172675000Y-89100000D02*
X172675000Y-87775000D01*
X152520000Y-94845000D02*
X152475000Y-94800000D01*
D41*
X152990000Y-81785000D02*
X153780000Y-82575000D01*
X156400000Y-82575000D02*
X153780000Y-82575000D01*
%TO.N,Net-(C6-Pad1)*%
D40*
X155825000Y-113475000D02*
X155825000Y-109950000D01*
X155700000Y-113600000D02*
X155825000Y-113475000D01*
X161275000Y-104500000D02*
X161275000Y-94325000D01*
X161275000Y-94325000D02*
X169400000Y-86200000D01*
X155825000Y-109950000D02*
X161275000Y-104500000D01*
X173900000Y-86200000D02*
X177735000Y-90035000D01*
X169400000Y-86200000D02*
X173900000Y-86200000D01*
X177735000Y-90035000D02*
X177735000Y-96625000D01*
X155700000Y-118450000D02*
X155700000Y-113600000D01*
%TO.N,Net-(C6-Pad2)*%
X155700000Y-120950000D02*
X155700000Y-125475000D01*
X155700000Y-125475000D02*
X155875000Y-125650000D01*
%TO.N,Net-(U2--)*%
X137420000Y-104145000D02*
X143390000Y-98175000D01*
X144050000Y-95280000D02*
X146945000Y-98175000D01*
X144050000Y-92425000D02*
X144050000Y-95280000D01*
X143390000Y-98175000D02*
X146945000Y-98175000D01*
%TO.N,Net-(C13-Pad1)*%
X163225000Y-118900000D02*
X162050000Y-117725000D01*
X142050000Y-94435000D02*
X139960000Y-96525000D01*
X142050000Y-92425000D02*
X142050000Y-94435000D01*
X163825000Y-118900000D02*
X163225000Y-118900000D01*
%TO.N,Mic-out*%
D41*
X143700000Y-109050000D02*
X143550000Y-109200000D01*
X156575000Y-88520000D02*
X147945000Y-97150000D01*
X147945000Y-97150000D02*
X147945000Y-104805000D01*
X133350000Y-88750000D02*
X133200000Y-88900000D01*
X143700000Y-107450000D02*
X143700000Y-109050000D01*
X133350000Y-87995000D02*
X133350000Y-88750000D01*
X165200000Y-88020000D02*
X164700000Y-88520000D01*
X147945000Y-104805000D02*
X143550000Y-109200000D01*
X164700000Y-88520000D02*
X156575000Y-88520000D01*
%TO.N,Net-(IM68A130V1-Output)*%
X165200000Y-87000000D02*
X165200000Y-82385000D01*
X165200000Y-82385000D02*
X165235000Y-82350000D01*
%TO.N,+3.3V*%
X165235000Y-79360000D02*
X165200000Y-79325000D01*
D40*
X139662741Y-87775000D02*
X140712740Y-86725000D01*
D41*
X156400000Y-81375000D02*
X156400000Y-79400000D01*
D40*
X145050000Y-86725000D02*
X147800000Y-83975000D01*
X134475000Y-112175000D02*
X134475000Y-118475000D01*
X141620000Y-116375000D02*
X135575000Y-116375000D01*
X134475000Y-119475000D02*
X134475000Y-118475000D01*
X156475000Y-79325000D02*
X165200000Y-79325000D01*
X132000000Y-109700000D02*
X132000000Y-91850000D01*
D39*
X147175000Y-90300000D02*
X145050000Y-88175000D01*
D40*
X147800000Y-83975000D02*
X147800000Y-83225000D01*
D39*
X147875000Y-90300000D02*
X147175000Y-90300000D01*
D40*
X134475000Y-112175000D02*
X132000000Y-109700000D01*
X171575000Y-80675000D02*
X170225000Y-79325000D01*
D41*
X147980000Y-83405000D02*
X147800000Y-83225000D01*
D40*
X135575000Y-116375000D02*
X134475000Y-117475000D01*
X147800000Y-83225000D02*
X151700000Y-79325000D01*
X170225000Y-79325000D02*
X165200000Y-79325000D01*
X151700000Y-79325000D02*
X156475000Y-79325000D01*
D41*
X156400000Y-79400000D02*
X156475000Y-79325000D01*
D39*
X145050000Y-88175000D02*
X145050000Y-86725000D01*
D40*
X144260000Y-124750000D02*
X139585000Y-120075000D01*
X136075000Y-87775000D02*
X139662741Y-87775000D01*
X139585000Y-120075000D02*
X135075000Y-120075000D01*
X140712740Y-86725000D02*
X145050000Y-86725000D01*
X132000000Y-91850000D02*
X136075000Y-87775000D01*
X134475000Y-117475000D02*
X134475000Y-118475000D01*
X144260000Y-125362500D02*
X144260000Y-124750000D01*
D41*
X165235000Y-80800000D02*
X165235000Y-79360000D01*
D40*
X135075000Y-120075000D02*
X134475000Y-119475000D01*
%TO.N,Signal-preamped*%
X165900000Y-118900000D02*
X169405000Y-118900000D01*
X169405000Y-118900000D02*
X171165000Y-117140000D01*
%TO.N,Net-(U4--)*%
X176245000Y-114600000D02*
X176245000Y-107835000D01*
X176245000Y-107835000D02*
X172655000Y-104245000D01*
%TO.N,Net-(U2-+)*%
X139960000Y-107685000D02*
X141475000Y-109200000D01*
X139960000Y-104145000D02*
X142005000Y-102100000D01*
X139960000Y-104145000D02*
X139960000Y-107685000D01*
X142005000Y-102100000D02*
X146945000Y-102100000D01*
%TO.N,+5V*%
X133480000Y-105530000D02*
X146450000Y-118500000D01*
X139615567Y-118475000D02*
X146503067Y-125362500D01*
X137420000Y-92030000D02*
X137450000Y-92000000D01*
X137420000Y-96525000D02*
X137420000Y-92030000D01*
X133480000Y-100465000D02*
X133480000Y-105530000D01*
X146450000Y-118500000D02*
X146450000Y-125012500D01*
X146503067Y-125362500D02*
X146800000Y-125362500D01*
X147350000Y-118500000D02*
X146450000Y-118500000D01*
X146450000Y-125012500D02*
X146800000Y-125362500D01*
X137420000Y-96525000D02*
X133480000Y-100465000D01*
X136775000Y-118475000D02*
X139615567Y-118475000D01*
X152545000Y-104075000D02*
X152545000Y-113305000D01*
X152545000Y-113305000D02*
X147350000Y-118500000D01*
%TO.N,Net-(C5-Pad1)*%
X157825000Y-113475000D02*
X162225000Y-113475000D01*
%TO.N,Net-(U4-BYPASS)*%
X172675000Y-96605000D02*
X172655000Y-96625000D01*
X172675000Y-91175000D02*
X172675000Y-96605000D01*
%TO.N,Net-(C4-Pad1)*%
X170090000Y-96600000D02*
X170115000Y-96625000D01*
X165375000Y-96600000D02*
X170090000Y-96600000D01*
%TO.N,Net-(C4-Pad2)*%
X163320000Y-104200000D02*
X163320000Y-96620000D01*
X163320000Y-96620000D02*
X163300000Y-96600000D01*
%TO.N,Net-(MK3-+)*%
D41*
X136525000Y-84700000D02*
X134250000Y-86975000D01*
X140975000Y-84700000D02*
X136525000Y-84700000D01*
X134250000Y-86975000D02*
X133350000Y-86975000D01*
X147800000Y-88225000D02*
X147875000Y-88300000D01*
X147800000Y-86975000D02*
X147800000Y-88225000D01*
X142150000Y-83025000D02*
X142150000Y-83525000D01*
X142150000Y-83525000D02*
X140975000Y-84700000D01*
%TO.N,Net-(R2-Pad1)*%
D40*
X170070000Y-104200000D02*
X170115000Y-104245000D01*
X165320000Y-104200000D02*
X170070000Y-104200000D01*
%TO.N,Net-(INMP1-OUTPUT)*%
D41*
X156400000Y-83775000D02*
X156400000Y-87325000D01*
X156400000Y-87325000D02*
X156575000Y-87500000D01*
%TD*%
%TA.AperFunction,Conductor*%
%TO.N,GND*%
G36*
X150843677Y-78695185D02*
G01*
X150889432Y-78747989D01*
X150899376Y-78817147D01*
X150870351Y-78880703D01*
X150864319Y-78887181D01*
X149175870Y-80575629D01*
X149114547Y-80609114D01*
X149044855Y-80604130D01*
X148988922Y-80562258D01*
X148970483Y-80526952D01*
X148959358Y-80493380D01*
X148959356Y-80493375D01*
X148867315Y-80344154D01*
X148743345Y-80220184D01*
X148594124Y-80128143D01*
X148594119Y-80128141D01*
X148427697Y-80072994D01*
X148427690Y-80072993D01*
X148324986Y-80062500D01*
X148050000Y-80062500D01*
X148050000Y-81026000D01*
X148030315Y-81093039D01*
X147977511Y-81138794D01*
X147926000Y-81150000D01*
X147800000Y-81150000D01*
X147800000Y-81276000D01*
X147780315Y-81343039D01*
X147727511Y-81388794D01*
X147676000Y-81400000D01*
X146575001Y-81400000D01*
X146575001Y-81537486D01*
X146585494Y-81640197D01*
X146640641Y-81806619D01*
X146640643Y-81806624D01*
X146732684Y-81955845D01*
X146856655Y-82079816D01*
X146856659Y-82079819D01*
X146859656Y-82081668D01*
X146861279Y-82083472D01*
X146862323Y-82084298D01*
X146862181Y-82084476D01*
X146906381Y-82133616D01*
X146917602Y-82202579D01*
X146889759Y-82266661D01*
X146859661Y-82292741D01*
X146856349Y-82294783D01*
X146856343Y-82294788D01*
X146732289Y-82418842D01*
X146640187Y-82568163D01*
X146640185Y-82568168D01*
X146621353Y-82625000D01*
X146585001Y-82734703D01*
X146585001Y-82734704D01*
X146585000Y-82734704D01*
X146574500Y-82837483D01*
X146574500Y-83612501D01*
X146574501Y-83612519D01*
X146585000Y-83715296D01*
X146585001Y-83715299D01*
X146611020Y-83793818D01*
X146613422Y-83863646D01*
X146580995Y-83920503D01*
X144742123Y-85759375D01*
X144735192Y-85764005D01*
X144732250Y-85768244D01*
X144701896Y-85786254D01*
X144632355Y-85815060D01*
X144584901Y-85824500D01*
X140624043Y-85824500D01*
X140450081Y-85859103D01*
X140450073Y-85859105D01*
X140286195Y-85926985D01*
X140286186Y-85926990D01*
X140138704Y-86025535D01*
X140138700Y-86025538D01*
X139326060Y-86838181D01*
X139264737Y-86871666D01*
X139238379Y-86874500D01*
X135986306Y-86874500D01*
X135902640Y-86891142D01*
X135860807Y-86899464D01*
X135821975Y-86907188D01*
X135812333Y-86909106D01*
X135812332Y-86909106D01*
X135648459Y-86976983D01*
X135648446Y-86976990D01*
X135500966Y-87075534D01*
X135500964Y-87075537D01*
X134382180Y-88194319D01*
X134320857Y-88227804D01*
X134251165Y-88222820D01*
X134195232Y-88180948D01*
X134170815Y-88115484D01*
X134170499Y-88106659D01*
X134170499Y-87799499D01*
X134190184Y-87732461D01*
X134242988Y-87686706D01*
X134294499Y-87675500D01*
X134318996Y-87675500D01*
X134410040Y-87657389D01*
X134454328Y-87648580D01*
X134558065Y-87605611D01*
X134581807Y-87595777D01*
X134581808Y-87595776D01*
X134581811Y-87595775D01*
X134696543Y-87519114D01*
X136778838Y-85436819D01*
X136840161Y-85403334D01*
X136866519Y-85400500D01*
X141043996Y-85400500D01*
X141135040Y-85382389D01*
X141179328Y-85373580D01*
X141274627Y-85334106D01*
X141306807Y-85320777D01*
X141306808Y-85320776D01*
X141306811Y-85320775D01*
X141421543Y-85244114D01*
X142328193Y-84337462D01*
X142389514Y-84303979D01*
X142396433Y-84302678D01*
X142454534Y-84293477D01*
X142649219Y-84230220D01*
X142831610Y-84137287D01*
X142924590Y-84069732D01*
X142997213Y-84016971D01*
X142997215Y-84016968D01*
X142997219Y-84016966D01*
X143141966Y-83872219D01*
X143141968Y-83872215D01*
X143141971Y-83872213D01*
X143238547Y-83739285D01*
X143262287Y-83706610D01*
X143355220Y-83524219D01*
X143418477Y-83329534D01*
X143450500Y-83127352D01*
X143450500Y-82922648D01*
X143434163Y-82819500D01*
X143418477Y-82720465D01*
X143355218Y-82525776D01*
X143303876Y-82425013D01*
X143262287Y-82343390D01*
X143246966Y-82322302D01*
X143141971Y-82177786D01*
X142997213Y-82033028D01*
X142831613Y-81912715D01*
X142831612Y-81912714D01*
X142831610Y-81912713D01*
X142757494Y-81874949D01*
X142649223Y-81819781D01*
X142454534Y-81756522D01*
X142275466Y-81728161D01*
X142252352Y-81724500D01*
X142047648Y-81724500D01*
X142024534Y-81728161D01*
X141845465Y-81756522D01*
X141650776Y-81819781D01*
X141468391Y-81912712D01*
X141468389Y-81912713D01*
X141397676Y-81964088D01*
X141331869Y-81987567D01*
X141263815Y-81971740D01*
X141237111Y-81951450D01*
X141168345Y-81882684D01*
X141019124Y-81790643D01*
X141019119Y-81790641D01*
X140852697Y-81735494D01*
X140852690Y-81735493D01*
X140749986Y-81725000D01*
X140400000Y-81725000D01*
X140400000Y-82709314D01*
X140395606Y-82704920D01*
X140304394Y-82652259D01*
X140202661Y-82625000D01*
X140097339Y-82625000D01*
X139995606Y-82652259D01*
X139904394Y-82704920D01*
X139900000Y-82709314D01*
X139900000Y-81725000D01*
X139550028Y-81725000D01*
X139550012Y-81725001D01*
X139447302Y-81735494D01*
X139280880Y-81790641D01*
X139280875Y-81790643D01*
X139131654Y-81882684D01*
X139007684Y-82006654D01*
X138915643Y-82155875D01*
X138915641Y-82155880D01*
X138860494Y-82322302D01*
X138860493Y-82322309D01*
X138850000Y-82425013D01*
X138850000Y-82775000D01*
X139834314Y-82775000D01*
X139829920Y-82779394D01*
X139777259Y-82870606D01*
X139750000Y-82972339D01*
X139750000Y-83077661D01*
X139777259Y-83179394D01*
X139829920Y-83270606D01*
X139834314Y-83275000D01*
X138850001Y-83275000D01*
X138850001Y-83624986D01*
X138860494Y-83727697D01*
X138896547Y-83836496D01*
X138898949Y-83906324D01*
X138863217Y-83966366D01*
X138800697Y-83997559D01*
X138778841Y-83999500D01*
X136456004Y-83999500D01*
X136320677Y-84026418D01*
X136320667Y-84026421D01*
X136193192Y-84079222D01*
X136078454Y-84155887D01*
X136078453Y-84155888D01*
X133996162Y-86238181D01*
X133934839Y-86271666D01*
X133908481Y-86274500D01*
X133861139Y-86274500D01*
X133798018Y-86257232D01*
X133789393Y-86252131D01*
X133789388Y-86252129D01*
X133635208Y-86207335D01*
X133635202Y-86207334D01*
X133599181Y-86204500D01*
X133100830Y-86204500D01*
X133100808Y-86204501D01*
X133064794Y-86207335D01*
X132910611Y-86252129D01*
X132910606Y-86252131D01*
X132772404Y-86333863D01*
X132772396Y-86333869D01*
X132658869Y-86447396D01*
X132658863Y-86447404D01*
X132577131Y-86585606D01*
X132577129Y-86585611D01*
X132532335Y-86739791D01*
X132532334Y-86739797D01*
X132529500Y-86775811D01*
X132529500Y-87174169D01*
X132529501Y-87174191D01*
X132532335Y-87210205D01*
X132577129Y-87364388D01*
X132577132Y-87364395D01*
X132611128Y-87421881D01*
X132628309Y-87489605D01*
X132611128Y-87548119D01*
X132577132Y-87605604D01*
X132577129Y-87605611D01*
X132532335Y-87759791D01*
X132532334Y-87759797D01*
X132529500Y-87795811D01*
X132529500Y-88194169D01*
X132529501Y-88194191D01*
X132532335Y-88230205D01*
X132577129Y-88384388D01*
X132577131Y-88384394D01*
X132581949Y-88392540D01*
X132599129Y-88460264D01*
X132578318Y-88524547D01*
X132557071Y-88556345D01*
X132502381Y-88688379D01*
X132502379Y-88688385D01*
X132474500Y-88828542D01*
X132474500Y-88828545D01*
X132474500Y-88971455D01*
X132474500Y-88971457D01*
X132474499Y-88971457D01*
X132502379Y-89111614D01*
X132502381Y-89111620D01*
X132557069Y-89243650D01*
X132557074Y-89243659D01*
X132636467Y-89362478D01*
X132636470Y-89362482D01*
X132737517Y-89463529D01*
X132737525Y-89463535D01*
X132836953Y-89529971D01*
X132881759Y-89583583D01*
X132890466Y-89652908D01*
X132860312Y-89715935D01*
X132855744Y-89720754D01*
X131300535Y-91275964D01*
X131300533Y-91275966D01*
X131284144Y-91300497D01*
X131284142Y-91300500D01*
X131201985Y-91423455D01*
X131168046Y-91505393D01*
X131134106Y-91587330D01*
X131134103Y-91587342D01*
X131104268Y-91737332D01*
X131104269Y-91737333D01*
X131099500Y-91761309D01*
X131099500Y-109788696D01*
X131134103Y-109962659D01*
X131134105Y-109962665D01*
X131163175Y-110032847D01*
X131163178Y-110032853D01*
X131165597Y-110038692D01*
X131201987Y-110126547D01*
X131259530Y-110212666D01*
X131262785Y-110217537D01*
X131300537Y-110274038D01*
X131300538Y-110274039D01*
X132140993Y-111114493D01*
X132174478Y-111175816D01*
X132169494Y-111245507D01*
X132163221Y-111259584D01*
X132141090Y-111301951D01*
X132141090Y-111301953D01*
X132085114Y-111497583D01*
X132085113Y-111497586D01*
X132074500Y-111616966D01*
X132074500Y-112733028D01*
X132074501Y-112733034D01*
X132085113Y-112852415D01*
X132141089Y-113048045D01*
X132141090Y-113048048D01*
X132141091Y-113048049D01*
X132235302Y-113228407D01*
X132269977Y-113270933D01*
X132363890Y-113386109D01*
X132373194Y-113393695D01*
X132521593Y-113514698D01*
X132701951Y-113608909D01*
X132897582Y-113664886D01*
X133016963Y-113675500D01*
X133450500Y-113675499D01*
X133517539Y-113695183D01*
X133563294Y-113747987D01*
X133574500Y-113799499D01*
X133574500Y-117089707D01*
X133566096Y-117118324D01*
X133560175Y-117147564D01*
X133556038Y-117152580D01*
X133554815Y-117156746D01*
X133539432Y-117176119D01*
X133534116Y-117181589D01*
X133477278Y-117227278D01*
X133417679Y-117301421D01*
X133413611Y-117305609D01*
X133388064Y-117320038D01*
X133363982Y-117336803D01*
X133357993Y-117337024D01*
X133352775Y-117339972D01*
X133323483Y-117338299D01*
X133294160Y-117339383D01*
X133289001Y-117336330D01*
X133283019Y-117335989D01*
X133259284Y-117318748D01*
X133234027Y-117303804D01*
X133228031Y-117296884D01*
X133172364Y-117227630D01*
X133024025Y-117108392D01*
X133024022Y-117108390D01*
X132853523Y-117023831D01*
X132668824Y-116977897D01*
X132626097Y-116975000D01*
X132425000Y-116975000D01*
X132425000Y-119975000D01*
X132626097Y-119975000D01*
X132668824Y-119972102D01*
X132853523Y-119926168D01*
X133024022Y-119841609D01*
X133024025Y-119841607D01*
X133172366Y-119722367D01*
X133172367Y-119722366D01*
X133228033Y-119653115D01*
X133285376Y-119613196D01*
X133355198Y-119610616D01*
X133415331Y-119646194D01*
X133421305Y-119653089D01*
X133476992Y-119722366D01*
X133477280Y-119722724D01*
X133530986Y-119765894D01*
X133625704Y-119842030D01*
X133625709Y-119842032D01*
X133629071Y-119844182D01*
X133666852Y-119882014D01*
X133672690Y-119891174D01*
X133676987Y-119901547D01*
X133726401Y-119975500D01*
X133727134Y-119976597D01*
X133775537Y-120049038D01*
X133775538Y-120049039D01*
X134500964Y-120774464D01*
X134500966Y-120774466D01*
X134535326Y-120797423D01*
X134560040Y-120813936D01*
X134648453Y-120873013D01*
X134730393Y-120906953D01*
X134736480Y-120909474D01*
X134736485Y-120909477D01*
X134772940Y-120924577D01*
X134812334Y-120940895D01*
X134986303Y-120975499D01*
X134986307Y-120975500D01*
X134986308Y-120975500D01*
X134986309Y-120975500D01*
X139160638Y-120975500D01*
X139227677Y-120995185D01*
X139248319Y-121011819D01*
X141072571Y-122836071D01*
X141946819Y-123710318D01*
X141980304Y-123771641D01*
X141975320Y-123841333D01*
X141970000Y-123849611D01*
X141970000Y-124871752D01*
X141932292Y-124849982D01*
X141792409Y-124812500D01*
X141647591Y-124812500D01*
X141507708Y-124849982D01*
X141470000Y-124871752D01*
X141470000Y-123862500D01*
X140719655Y-123862500D01*
X140660127Y-123868901D01*
X140660120Y-123868903D01*
X140525413Y-123919145D01*
X140525406Y-123919149D01*
X140410312Y-124005309D01*
X140410309Y-124005312D01*
X140324149Y-124120406D01*
X140324145Y-124120413D01*
X140273903Y-124255120D01*
X140273901Y-124255127D01*
X140267500Y-124314655D01*
X140267500Y-125112500D01*
X141229252Y-125112500D01*
X141207482Y-125150208D01*
X141170000Y-125290091D01*
X141170000Y-125434909D01*
X141207482Y-125574792D01*
X141229252Y-125612500D01*
X140267500Y-125612500D01*
X140267500Y-126410344D01*
X140273901Y-126469872D01*
X140273903Y-126469879D01*
X140324145Y-126604586D01*
X140324149Y-126604593D01*
X140410309Y-126719687D01*
X140410312Y-126719690D01*
X140525406Y-126805850D01*
X140525413Y-126805854D01*
X140660120Y-126856096D01*
X140660127Y-126856098D01*
X140719655Y-126862499D01*
X140719672Y-126862500D01*
X141470000Y-126862500D01*
X141470000Y-125853247D01*
X141507708Y-125875018D01*
X141647591Y-125912500D01*
X141792409Y-125912500D01*
X141932292Y-125875018D01*
X141970000Y-125853247D01*
X141970000Y-126862500D01*
X142720328Y-126862500D01*
X142720344Y-126862499D01*
X142779872Y-126856098D01*
X142779879Y-126856096D01*
X142914586Y-126805854D01*
X142914593Y-126805850D01*
X143029687Y-126719690D01*
X143029690Y-126719687D01*
X143115850Y-126604593D01*
X143115854Y-126604586D01*
X143126272Y-126576655D01*
X143168143Y-126520721D01*
X143233607Y-126496304D01*
X143301880Y-126511155D01*
X143315331Y-126519664D01*
X143498462Y-126652717D01*
X143629904Y-126719690D01*
X143702244Y-126756549D01*
X143919751Y-126827221D01*
X143919752Y-126827221D01*
X143919755Y-126827222D01*
X144145646Y-126863000D01*
X144145647Y-126863000D01*
X144374353Y-126863000D01*
X144374354Y-126863000D01*
X144600245Y-126827222D01*
X144600248Y-126827221D01*
X144600249Y-126827221D01*
X144817755Y-126756549D01*
X144817755Y-126756548D01*
X144817758Y-126756548D01*
X145021538Y-126652717D01*
X145206566Y-126518286D01*
X145368286Y-126356566D01*
X145429683Y-126272059D01*
X145485012Y-126229396D01*
X145554625Y-126223417D01*
X145616420Y-126256023D01*
X145630314Y-126272056D01*
X145691714Y-126356566D01*
X145853434Y-126518286D01*
X146038462Y-126652717D01*
X146169904Y-126719690D01*
X146242244Y-126756549D01*
X146459751Y-126827221D01*
X146459752Y-126827221D01*
X146459755Y-126827222D01*
X146685646Y-126863000D01*
X146685647Y-126863000D01*
X146914350Y-126863000D01*
X146914354Y-126863000D01*
X146949194Y-126857481D01*
X147018485Y-126866434D01*
X147056273Y-126892273D01*
X147626819Y-127462819D01*
X147660304Y-127524142D01*
X147655320Y-127593834D01*
X147613448Y-127649767D01*
X147547984Y-127674184D01*
X147539138Y-127674500D01*
X130744500Y-127674500D01*
X130677461Y-127654815D01*
X130631706Y-127602011D01*
X130620500Y-127550500D01*
X130620500Y-124109568D01*
X131619500Y-124109568D01*
X131619500Y-124390431D01*
X131650942Y-124669494D01*
X131650945Y-124669512D01*
X131713439Y-124943317D01*
X131713443Y-124943329D01*
X131806200Y-125208411D01*
X131928053Y-125461442D01*
X131928055Y-125461445D01*
X132077477Y-125699248D01*
X132252584Y-125918825D01*
X132451175Y-126117416D01*
X132670752Y-126292523D01*
X132908555Y-126441945D01*
X133161592Y-126563801D01*
X133360680Y-126633465D01*
X133426670Y-126656556D01*
X133426682Y-126656560D01*
X133700491Y-126719055D01*
X133700497Y-126719055D01*
X133700505Y-126719057D01*
X133886547Y-126740018D01*
X133979569Y-126750499D01*
X133979572Y-126750500D01*
X133979575Y-126750500D01*
X134260428Y-126750500D01*
X134260429Y-126750499D01*
X134403055Y-126734429D01*
X134539494Y-126719057D01*
X134539499Y-126719056D01*
X134539509Y-126719055D01*
X134813318Y-126656560D01*
X135078408Y-126563801D01*
X135331445Y-126441945D01*
X135569248Y-126292523D01*
X135788825Y-126117416D01*
X135987416Y-125918825D01*
X136162523Y-125699248D01*
X136311945Y-125461445D01*
X136433801Y-125208408D01*
X136526560Y-124943318D01*
X136589055Y-124669509D01*
X136620500Y-124390425D01*
X136620500Y-124109575D01*
X136602664Y-123951276D01*
X136589057Y-123830505D01*
X136589054Y-123830487D01*
X136526560Y-123556682D01*
X136526556Y-123556670D01*
X136503465Y-123490680D01*
X136433801Y-123291592D01*
X136311945Y-123038555D01*
X136162523Y-122800752D01*
X135987416Y-122581175D01*
X135788825Y-122382584D01*
X135569248Y-122207477D01*
X135331445Y-122058055D01*
X135331442Y-122058053D01*
X135078411Y-121936200D01*
X134813329Y-121843443D01*
X134813317Y-121843439D01*
X134539512Y-121780945D01*
X134539494Y-121780942D01*
X134260431Y-121749500D01*
X134260425Y-121749500D01*
X133979575Y-121749500D01*
X133979568Y-121749500D01*
X133700505Y-121780942D01*
X133700487Y-121780945D01*
X133426682Y-121843439D01*
X133426670Y-121843443D01*
X133161588Y-121936200D01*
X132908557Y-122058053D01*
X132670753Y-122207476D01*
X132451175Y-122382583D01*
X132252583Y-122581175D01*
X132077476Y-122800753D01*
X131928053Y-123038557D01*
X131806200Y-123291588D01*
X131713443Y-123556670D01*
X131713439Y-123556682D01*
X131650945Y-123830487D01*
X131650942Y-123830505D01*
X131619500Y-124109568D01*
X130620500Y-124109568D01*
X130620500Y-119176096D01*
X130925000Y-119176096D01*
X130927897Y-119218824D01*
X130973831Y-119403523D01*
X131058390Y-119574022D01*
X131058392Y-119574025D01*
X131177632Y-119722366D01*
X131177633Y-119722367D01*
X131325974Y-119841607D01*
X131325977Y-119841609D01*
X131496476Y-119926168D01*
X131681175Y-119972102D01*
X131723903Y-119975000D01*
X131925000Y-119975000D01*
X131925000Y-118725000D01*
X130925000Y-118725000D01*
X130925000Y-119176096D01*
X130620500Y-119176096D01*
X130620500Y-117773903D01*
X130925000Y-117773903D01*
X130925000Y-118225000D01*
X131925000Y-118225000D01*
X131925000Y-116975000D01*
X131723903Y-116975000D01*
X131681175Y-116977897D01*
X131496476Y-117023831D01*
X131325977Y-117108390D01*
X131325974Y-117108392D01*
X131177633Y-117227632D01*
X131177632Y-117227633D01*
X131058392Y-117375974D01*
X131058390Y-117375977D01*
X130973831Y-117546476D01*
X130927897Y-117731175D01*
X130925000Y-117773903D01*
X130620500Y-117773903D01*
X130620500Y-82084568D01*
X131619500Y-82084568D01*
X131619500Y-82365431D01*
X131650942Y-82644494D01*
X131650945Y-82644512D01*
X131713439Y-82918317D01*
X131713443Y-82918329D01*
X131806200Y-83183411D01*
X131928053Y-83436442D01*
X131949436Y-83470472D01*
X132077477Y-83674248D01*
X132252584Y-83893825D01*
X132451175Y-84092416D01*
X132670752Y-84267523D01*
X132908555Y-84416945D01*
X133161592Y-84538801D01*
X133360680Y-84608465D01*
X133426670Y-84631556D01*
X133426682Y-84631560D01*
X133700491Y-84694055D01*
X133700497Y-84694055D01*
X133700505Y-84694057D01*
X133886547Y-84715018D01*
X133979569Y-84725499D01*
X133979572Y-84725500D01*
X133979575Y-84725500D01*
X134260428Y-84725500D01*
X134260429Y-84725499D01*
X134403055Y-84709429D01*
X134539494Y-84694057D01*
X134539499Y-84694056D01*
X134539509Y-84694055D01*
X134813318Y-84631560D01*
X135078408Y-84538801D01*
X135331445Y-84416945D01*
X135569248Y-84267523D01*
X135788825Y-84092416D01*
X135987416Y-83893825D01*
X136162523Y-83674248D01*
X136311945Y-83436445D01*
X136433801Y-83183408D01*
X136526560Y-82918318D01*
X136589055Y-82644509D01*
X136605337Y-82500000D01*
X136615706Y-82407980D01*
X136615706Y-82407979D01*
X136620499Y-82365433D01*
X136620500Y-82365427D01*
X136620500Y-82084572D01*
X136620499Y-82084568D01*
X136615964Y-82044322D01*
X136607787Y-81971740D01*
X136589057Y-81805505D01*
X136589054Y-81805487D01*
X136526560Y-81531682D01*
X136526556Y-81531670D01*
X136495369Y-81442544D01*
X136433801Y-81266592D01*
X136311945Y-81013555D01*
X136240593Y-80900000D01*
X136193679Y-80825336D01*
X136185888Y-80812937D01*
X136162523Y-80775752D01*
X136151965Y-80762513D01*
X146575000Y-80762513D01*
X146575000Y-80900000D01*
X147550000Y-80900000D01*
X147550000Y-80062500D01*
X147275029Y-80062500D01*
X147275012Y-80062501D01*
X147172302Y-80072994D01*
X147005880Y-80128141D01*
X147005875Y-80128143D01*
X146856654Y-80220184D01*
X146732684Y-80344154D01*
X146640643Y-80493375D01*
X146640641Y-80493380D01*
X146585494Y-80659802D01*
X146585493Y-80659809D01*
X146575000Y-80762513D01*
X136151965Y-80762513D01*
X135987416Y-80556175D01*
X135788825Y-80357584D01*
X135771984Y-80344154D01*
X135700940Y-80287498D01*
X135569248Y-80182477D01*
X135331445Y-80033055D01*
X135331442Y-80033053D01*
X135078411Y-79911200D01*
X134813329Y-79818443D01*
X134813317Y-79818439D01*
X134539512Y-79755945D01*
X134539494Y-79755942D01*
X134260431Y-79724500D01*
X134260425Y-79724500D01*
X133979575Y-79724500D01*
X133979568Y-79724500D01*
X133700505Y-79755942D01*
X133700487Y-79755945D01*
X133426682Y-79818439D01*
X133426670Y-79818443D01*
X133161588Y-79911200D01*
X132908557Y-80033053D01*
X132670753Y-80182476D01*
X132451175Y-80357583D01*
X132252583Y-80556175D01*
X132077476Y-80775753D01*
X131928053Y-81013557D01*
X131806200Y-81266588D01*
X131713443Y-81531670D01*
X131713439Y-81531682D01*
X131650945Y-81805487D01*
X131650942Y-81805505D01*
X131619500Y-82084568D01*
X130620500Y-82084568D01*
X130620500Y-78799500D01*
X130640185Y-78732461D01*
X130692989Y-78686706D01*
X130744500Y-78675500D01*
X150776638Y-78675500D01*
X150843677Y-78695185D01*
G37*
%TD.AperFunction*%
%TA.AperFunction,Conductor*%
G36*
X170693833Y-123982177D02*
G01*
X170749767Y-124024049D01*
X170774184Y-124089513D01*
X170774500Y-124098359D01*
X170774500Y-124547870D01*
X170774501Y-124547876D01*
X170780908Y-124607483D01*
X170831202Y-124742328D01*
X170831206Y-124742335D01*
X170917452Y-124857544D01*
X170917455Y-124857547D01*
X171032664Y-124943793D01*
X171032671Y-124943797D01*
X171077618Y-124960561D01*
X171167517Y-124994091D01*
X171227127Y-125000500D01*
X171237685Y-125000499D01*
X171304723Y-125020179D01*
X171325372Y-125036818D01*
X171995591Y-125707037D01*
X171932007Y-125724075D01*
X171817993Y-125789901D01*
X171724901Y-125882993D01*
X171659075Y-125997007D01*
X171642037Y-126060591D01*
X171009728Y-125428282D01*
X171009727Y-125428282D01*
X170970380Y-125482439D01*
X170873904Y-125671782D01*
X170808242Y-125873869D01*
X170808242Y-125873872D01*
X170775000Y-126083753D01*
X170775000Y-126296246D01*
X170808242Y-126506127D01*
X170808242Y-126506130D01*
X170873904Y-126708217D01*
X170970375Y-126897550D01*
X171009728Y-126951716D01*
X171642037Y-126319408D01*
X171659075Y-126382993D01*
X171724901Y-126497007D01*
X171817993Y-126590099D01*
X171932007Y-126655925D01*
X171995590Y-126672962D01*
X171363282Y-127305269D01*
X171363282Y-127305270D01*
X171417449Y-127344624D01*
X171604662Y-127440015D01*
X171655458Y-127487990D01*
X171672253Y-127555811D01*
X171649715Y-127621946D01*
X171595000Y-127665397D01*
X171548367Y-127674500D01*
X167198362Y-127674500D01*
X167131323Y-127654815D01*
X167085568Y-127602011D01*
X167075624Y-127532853D01*
X167104649Y-127469297D01*
X167110681Y-127462819D01*
X167823001Y-126750499D01*
X170562821Y-124010676D01*
X170624142Y-123977193D01*
X170693833Y-123982177D01*
G37*
%TD.AperFunction*%
%TA.AperFunction,Conductor*%
G36*
X179538834Y-115137179D02*
G01*
X179594767Y-115179051D01*
X179619184Y-115244515D01*
X179619500Y-115253361D01*
X179619500Y-127550500D01*
X179599815Y-127617539D01*
X179547011Y-127663294D01*
X179495500Y-127674500D01*
X172701633Y-127674500D01*
X172634594Y-127654815D01*
X172588839Y-127602011D01*
X172578895Y-127532853D01*
X172607920Y-127469297D01*
X172645338Y-127440015D01*
X172832554Y-127344622D01*
X172886716Y-127305270D01*
X172886717Y-127305270D01*
X172254408Y-126672962D01*
X172317993Y-126655925D01*
X172432007Y-126590099D01*
X172525099Y-126497007D01*
X172590925Y-126382993D01*
X172607962Y-126319408D01*
X173240270Y-126951717D01*
X173240270Y-126951716D01*
X173279622Y-126897554D01*
X173376095Y-126708217D01*
X173441757Y-126506130D01*
X173441757Y-126506127D01*
X173475000Y-126296246D01*
X173475000Y-126083753D01*
X173441757Y-125873872D01*
X173441757Y-125873869D01*
X173376095Y-125671782D01*
X173279624Y-125482449D01*
X173240270Y-125428282D01*
X173240269Y-125428282D01*
X172607962Y-126060590D01*
X172590925Y-125997007D01*
X172525099Y-125882993D01*
X172432007Y-125789901D01*
X172317993Y-125724075D01*
X172254409Y-125707037D01*
X172924627Y-125036818D01*
X172985950Y-125003333D01*
X173012307Y-125000499D01*
X173022872Y-125000499D01*
X173082483Y-124994091D01*
X173217331Y-124943796D01*
X173332546Y-124857546D01*
X173418796Y-124742331D01*
X173418797Y-124742328D01*
X173419322Y-124741627D01*
X173475256Y-124699756D01*
X173544948Y-124694772D01*
X173606271Y-124728257D01*
X173639480Y-124788345D01*
X173663440Y-124893320D01*
X173663443Y-124893329D01*
X173756200Y-125158411D01*
X173878053Y-125411442D01*
X173878055Y-125411445D01*
X174027477Y-125649248D01*
X174121857Y-125767597D01*
X174176762Y-125836446D01*
X174202584Y-125868825D01*
X174401175Y-126067416D01*
X174620752Y-126242523D01*
X174858555Y-126391945D01*
X175111592Y-126513801D01*
X175310680Y-126583465D01*
X175376670Y-126606556D01*
X175376682Y-126606560D01*
X175650491Y-126669055D01*
X175650497Y-126669055D01*
X175650505Y-126669057D01*
X175836384Y-126690000D01*
X175929569Y-126700499D01*
X175929572Y-126700500D01*
X175929575Y-126700500D01*
X176210428Y-126700500D01*
X176210429Y-126700499D01*
X176353055Y-126684429D01*
X176489494Y-126669057D01*
X176489499Y-126669056D01*
X176489509Y-126669055D01*
X176763318Y-126606560D01*
X177028408Y-126513801D01*
X177281445Y-126391945D01*
X177519248Y-126242523D01*
X177738825Y-126067416D01*
X177937416Y-125868825D01*
X178112523Y-125649248D01*
X178261945Y-125411445D01*
X178383801Y-125158408D01*
X178476560Y-124893318D01*
X178539055Y-124619509D01*
X178539338Y-124617002D01*
X178567344Y-124368432D01*
X178570500Y-124340425D01*
X178570500Y-124059575D01*
X178554678Y-123919149D01*
X178539057Y-123780505D01*
X178539054Y-123780487D01*
X178523038Y-123710318D01*
X178476560Y-123506682D01*
X178383801Y-123241592D01*
X178261945Y-122988555D01*
X178112523Y-122750752D01*
X177937416Y-122531175D01*
X177738825Y-122332584D01*
X177519248Y-122157477D01*
X177281445Y-122008055D01*
X177281442Y-122008053D01*
X177028411Y-121886200D01*
X176763329Y-121793443D01*
X176763317Y-121793439D01*
X176489512Y-121730945D01*
X176489494Y-121730942D01*
X176210431Y-121699500D01*
X176210425Y-121699500D01*
X175929575Y-121699500D01*
X175929568Y-121699500D01*
X175650505Y-121730942D01*
X175650487Y-121730945D01*
X175376682Y-121793439D01*
X175376670Y-121793443D01*
X175111588Y-121886200D01*
X174858557Y-122008053D01*
X174620753Y-122157476D01*
X174401175Y-122332583D01*
X174202583Y-122531175D01*
X174027476Y-122750753D01*
X173878053Y-122988557D01*
X173756200Y-123241588D01*
X173716540Y-123354929D01*
X173675818Y-123411705D01*
X173610865Y-123437452D01*
X173542304Y-123423995D01*
X173491901Y-123375608D01*
X173475499Y-123313974D01*
X173475499Y-122752129D01*
X173475498Y-122752123D01*
X173474402Y-122741931D01*
X173469091Y-122692517D01*
X173418796Y-122557669D01*
X173418795Y-122557668D01*
X173418793Y-122557664D01*
X173332547Y-122442455D01*
X173332544Y-122442452D01*
X173217335Y-122356206D01*
X173217328Y-122356202D01*
X173082482Y-122305908D01*
X173082483Y-122305908D01*
X173022883Y-122299501D01*
X173022881Y-122299500D01*
X173022873Y-122299500D01*
X173022865Y-122299500D01*
X172573361Y-122299500D01*
X172506322Y-122279815D01*
X172460567Y-122227011D01*
X172450623Y-122157853D01*
X172479648Y-122094297D01*
X172485680Y-122087819D01*
X175945988Y-118627511D01*
X179407821Y-115165678D01*
X179469142Y-115132195D01*
X179538834Y-115137179D01*
G37*
%TD.AperFunction*%
%TA.AperFunction,Conductor*%
G36*
X164858347Y-89222794D02*
G01*
X164913526Y-89265654D01*
X164936773Y-89331543D01*
X164920707Y-89399541D01*
X164900632Y-89425866D01*
X160575537Y-93750961D01*
X160536064Y-93810039D01*
X160536063Y-93810040D01*
X160476985Y-93898455D01*
X160443046Y-93980393D01*
X160409106Y-94062329D01*
X160409105Y-94062333D01*
X160409105Y-94062334D01*
X160387225Y-94172334D01*
X160374500Y-94236305D01*
X160374500Y-104075637D01*
X160354815Y-104142676D01*
X160338181Y-104163318D01*
X155125540Y-109375958D01*
X155125537Y-109375961D01*
X155106584Y-109404328D01*
X155026990Y-109523447D01*
X155026985Y-109523456D01*
X154997719Y-109594113D01*
X154959105Y-109687333D01*
X154959103Y-109687341D01*
X154931165Y-109827795D01*
X154931166Y-109827796D01*
X154924500Y-109861309D01*
X154924500Y-112462770D01*
X154904815Y-112529809D01*
X154888181Y-112550451D01*
X154882289Y-112556342D01*
X154790187Y-112705663D01*
X154790186Y-112705666D01*
X154735001Y-112872203D01*
X154735001Y-112872204D01*
X154735000Y-112872204D01*
X154724500Y-112974983D01*
X154724500Y-113975001D01*
X154724501Y-113975019D01*
X154735000Y-114077796D01*
X154735001Y-114077799D01*
X154792458Y-114251190D01*
X154790631Y-114251795D01*
X154799500Y-114291798D01*
X154799500Y-117459953D01*
X154779815Y-117526992D01*
X154763181Y-117547634D01*
X154708032Y-117602782D01*
X154708028Y-117602786D01*
X154587715Y-117768386D01*
X154494781Y-117950776D01*
X154431522Y-118145465D01*
X154399500Y-118347648D01*
X154399500Y-118552351D01*
X154431522Y-118754534D01*
X154494781Y-118949223D01*
X154515710Y-118990297D01*
X154574979Y-119106619D01*
X154587715Y-119131613D01*
X154708028Y-119297213D01*
X154852786Y-119441971D01*
X155018388Y-119562286D01*
X155071828Y-119589516D01*
X155122623Y-119637490D01*
X155139418Y-119705312D01*
X155116880Y-119771446D01*
X155071828Y-119810484D01*
X155018388Y-119837713D01*
X154852786Y-119958028D01*
X154708028Y-120102786D01*
X154587715Y-120268386D01*
X154494781Y-120450776D01*
X154431522Y-120645465D01*
X154399500Y-120847648D01*
X154399500Y-121052351D01*
X154431522Y-121254534D01*
X154494781Y-121449223D01*
X154587715Y-121631613D01*
X154708028Y-121797213D01*
X154763181Y-121852366D01*
X154796666Y-121913689D01*
X154799500Y-121940047D01*
X154799500Y-124281534D01*
X154779815Y-124348573D01*
X154749812Y-124380800D01*
X154667452Y-124442455D01*
X154581206Y-124557664D01*
X154581202Y-124557671D01*
X154530908Y-124692517D01*
X154524501Y-124752116D01*
X154524500Y-124752127D01*
X154524500Y-125461447D01*
X154524501Y-126075500D01*
X154504816Y-126142539D01*
X154452013Y-126188294D01*
X154400501Y-126199500D01*
X148961862Y-126199500D01*
X148894823Y-126179815D01*
X148874181Y-126163181D01*
X148289319Y-125578319D01*
X148255834Y-125516996D01*
X148253000Y-125490638D01*
X148253000Y-125200646D01*
X148248755Y-125173847D01*
X148217222Y-124974755D01*
X148217221Y-124974751D01*
X148217221Y-124974750D01*
X148146549Y-124757244D01*
X148143936Y-124752116D01*
X148042717Y-124553462D01*
X147908286Y-124368434D01*
X147746566Y-124206714D01*
X147561538Y-124072283D01*
X147536583Y-124059568D01*
X147418205Y-123999251D01*
X147367409Y-123951276D01*
X147350500Y-123888766D01*
X147350500Y-119524367D01*
X147359655Y-119493187D01*
X147367521Y-119461666D01*
X147369619Y-119459254D01*
X147370185Y-119457328D01*
X147389519Y-119434066D01*
X147393534Y-119430286D01*
X147393656Y-119430212D01*
X147394322Y-119429545D01*
X147395664Y-119428283D01*
X147397287Y-119427459D01*
X147397622Y-119427075D01*
X147399352Y-119425708D01*
X147399749Y-119426210D01*
X147425211Y-119413294D01*
X147454273Y-119397421D01*
X147456373Y-119396982D01*
X147612666Y-119365895D01*
X147707659Y-119326547D01*
X147776547Y-119298013D01*
X147904774Y-119212334D01*
X147924036Y-119199464D01*
X153244463Y-113879036D01*
X153250025Y-113870712D01*
X153255509Y-113862506D01*
X153343009Y-113731553D01*
X153343009Y-113731552D01*
X153343013Y-113731547D01*
X153410894Y-113567666D01*
X153445500Y-113393691D01*
X153445500Y-105087230D01*
X153465185Y-105020191D01*
X153481819Y-104999549D01*
X153518577Y-104962791D01*
X153587712Y-104893656D01*
X153679814Y-104744334D01*
X153734999Y-104577797D01*
X153745500Y-104475009D01*
X153745499Y-103674992D01*
X153734999Y-103572203D01*
X153679814Y-103405666D01*
X153587712Y-103256344D01*
X153518549Y-103187181D01*
X153485064Y-103125858D01*
X153490048Y-103056166D01*
X153531920Y-103000233D01*
X153597384Y-102975816D01*
X153606230Y-102975500D01*
X154585483Y-102975500D01*
X154652522Y-102995185D01*
X154698277Y-103047989D01*
X154703186Y-103060489D01*
X154722686Y-103119333D01*
X154722687Y-103119336D01*
X154743472Y-103153034D01*
X154814788Y-103268656D01*
X154938844Y-103392712D01*
X155088166Y-103484814D01*
X155254703Y-103539999D01*
X155357491Y-103550500D01*
X156132508Y-103550499D01*
X156132516Y-103550498D01*
X156132519Y-103550498D01*
X156188802Y-103544748D01*
X156235297Y-103539999D01*
X156401834Y-103484814D01*
X156551156Y-103392712D01*
X156675212Y-103268656D01*
X156677252Y-103265347D01*
X156679245Y-103263555D01*
X156679693Y-103262989D01*
X156679789Y-103263065D01*
X156729194Y-103218623D01*
X156798156Y-103207395D01*
X156862240Y-103235234D01*
X156888329Y-103265339D01*
X156890181Y-103268341D01*
X156890183Y-103268344D01*
X157014154Y-103392315D01*
X157163375Y-103484356D01*
X157163380Y-103484358D01*
X157329802Y-103539505D01*
X157329809Y-103539506D01*
X157432519Y-103549999D01*
X157569999Y-103549999D01*
X158070000Y-103549999D01*
X158207472Y-103549999D01*
X158207486Y-103549998D01*
X158310197Y-103539505D01*
X158476619Y-103484358D01*
X158476624Y-103484356D01*
X158625845Y-103392315D01*
X158749815Y-103268345D01*
X158841856Y-103119124D01*
X158841858Y-103119119D01*
X158897005Y-102952697D01*
X158897006Y-102952690D01*
X158907499Y-102849986D01*
X158907500Y-102849970D01*
X158907500Y-102575000D01*
X158070000Y-102575000D01*
X158070000Y-103549999D01*
X157569999Y-103549999D01*
X157570000Y-103549998D01*
X157570000Y-102075000D01*
X158070000Y-102075000D01*
X158907499Y-102075000D01*
X158907499Y-101800028D01*
X158907498Y-101800013D01*
X158897005Y-101697302D01*
X158841858Y-101530880D01*
X158841856Y-101530875D01*
X158749815Y-101381654D01*
X158625845Y-101257684D01*
X158476624Y-101165643D01*
X158476619Y-101165641D01*
X158310197Y-101110494D01*
X158310190Y-101110493D01*
X158207486Y-101100000D01*
X158070000Y-101100000D01*
X158070000Y-102075000D01*
X157570000Y-102075000D01*
X157570000Y-101100000D01*
X157432527Y-101100000D01*
X157432512Y-101100001D01*
X157329802Y-101110494D01*
X157163380Y-101165641D01*
X157163375Y-101165643D01*
X157014154Y-101257684D01*
X156890183Y-101381655D01*
X156890179Y-101381660D01*
X156888326Y-101384665D01*
X156886518Y-101386290D01*
X156885702Y-101387323D01*
X156885525Y-101387183D01*
X156863390Y-101407089D01*
X156838988Y-101430095D01*
X156837499Y-101430373D01*
X156836374Y-101431385D01*
X156803288Y-101436766D01*
X156770307Y-101442929D01*
X156768904Y-101442358D01*
X156767411Y-101442601D01*
X156736677Y-101429244D01*
X156705590Y-101416594D01*
X156704347Y-101415193D01*
X156703331Y-101414752D01*
X156681380Y-101390913D01*
X156679225Y-101387850D01*
X156675212Y-101381344D01*
X156673306Y-101379438D01*
X156668087Y-101372020D01*
X156657918Y-101342091D01*
X156646093Y-101312776D01*
X156645779Y-101306364D01*
X156645609Y-101305864D01*
X156645730Y-101305374D01*
X156645500Y-101300666D01*
X156645500Y-98974730D01*
X156665185Y-98907691D01*
X156681819Y-98887049D01*
X156684466Y-98884402D01*
X156700212Y-98868656D01*
X156702252Y-98865347D01*
X156704245Y-98863555D01*
X156704693Y-98862989D01*
X156704789Y-98863065D01*
X156754194Y-98818623D01*
X156823156Y-98807395D01*
X156887240Y-98835234D01*
X156913329Y-98865339D01*
X156915181Y-98868341D01*
X156915183Y-98868344D01*
X157039154Y-98992315D01*
X157188375Y-99084356D01*
X157188380Y-99084358D01*
X157354802Y-99139505D01*
X157354809Y-99139506D01*
X157457519Y-99149999D01*
X157594999Y-99149999D01*
X158095000Y-99149999D01*
X158232472Y-99149999D01*
X158232486Y-99149998D01*
X158335197Y-99139505D01*
X158501619Y-99084358D01*
X158501624Y-99084356D01*
X158650845Y-98992315D01*
X158774815Y-98868345D01*
X158866856Y-98719124D01*
X158866858Y-98719119D01*
X158922005Y-98552697D01*
X158922006Y-98552690D01*
X158932499Y-98449986D01*
X158932500Y-98449973D01*
X158932500Y-98175000D01*
X158095000Y-98175000D01*
X158095000Y-99149999D01*
X157594999Y-99149999D01*
X157595000Y-99149998D01*
X157595000Y-97675000D01*
X158095000Y-97675000D01*
X158932499Y-97675000D01*
X158932499Y-97400028D01*
X158932498Y-97400013D01*
X158922005Y-97297302D01*
X158866858Y-97130880D01*
X158866856Y-97130875D01*
X158774815Y-96981654D01*
X158650845Y-96857684D01*
X158501624Y-96765643D01*
X158501619Y-96765641D01*
X158335197Y-96710494D01*
X158335190Y-96710493D01*
X158232486Y-96700000D01*
X158095000Y-96700000D01*
X158095000Y-97675000D01*
X157595000Y-97675000D01*
X157595000Y-96700000D01*
X157457527Y-96700000D01*
X157457512Y-96700001D01*
X157354802Y-96710494D01*
X157188380Y-96765641D01*
X157188375Y-96765643D01*
X157039154Y-96857684D01*
X156915183Y-96981655D01*
X156915179Y-96981660D01*
X156913326Y-96984665D01*
X156911518Y-96986290D01*
X156910702Y-96987323D01*
X156910525Y-96987183D01*
X156861374Y-97031385D01*
X156792411Y-97042601D01*
X156728331Y-97014752D01*
X156702253Y-96984653D01*
X156702198Y-96984564D01*
X156700212Y-96981344D01*
X156576156Y-96857288D01*
X156426834Y-96765186D01*
X156260297Y-96710001D01*
X156260295Y-96710000D01*
X156157510Y-96699500D01*
X155382498Y-96699500D01*
X155382480Y-96699501D01*
X155279703Y-96710000D01*
X155279700Y-96710001D01*
X155113168Y-96765185D01*
X155113163Y-96765187D01*
X154963842Y-96857289D01*
X154834681Y-96986451D01*
X154832794Y-96984564D01*
X154785875Y-97017788D01*
X154745632Y-97024500D01*
X153703594Y-97024500D01*
X153636555Y-97004815D01*
X153590800Y-96952011D01*
X153580856Y-96882853D01*
X153598055Y-96835403D01*
X153654356Y-96744124D01*
X153654358Y-96744119D01*
X153709505Y-96577697D01*
X153709506Y-96577690D01*
X153719999Y-96474986D01*
X153720000Y-96474973D01*
X153720000Y-96325000D01*
X151320001Y-96325000D01*
X151320001Y-96474986D01*
X151330494Y-96577697D01*
X151385641Y-96744119D01*
X151385643Y-96744124D01*
X151477684Y-96893345D01*
X151571304Y-96986965D01*
X151575642Y-96994910D01*
X151582890Y-97000336D01*
X151592124Y-97025095D01*
X151604789Y-97048288D01*
X151604143Y-97057317D01*
X151607307Y-97065800D01*
X151601690Y-97091620D01*
X151599805Y-97117980D01*
X151593986Y-97127033D01*
X151592455Y-97134073D01*
X151571304Y-97162327D01*
X151495450Y-97238181D01*
X151434127Y-97271666D01*
X151407769Y-97274500D01*
X149957231Y-97274500D01*
X149890192Y-97254815D01*
X149869550Y-97238182D01*
X149825202Y-97193834D01*
X149763656Y-97132288D01*
X149624292Y-97046328D01*
X149614336Y-97040187D01*
X149614331Y-97040185D01*
X149568792Y-97025095D01*
X149447797Y-96985001D01*
X149447794Y-96985000D01*
X149392428Y-96979344D01*
X149327736Y-96952947D01*
X149287585Y-96895766D01*
X149284722Y-96825955D01*
X149317348Y-96768307D01*
X150410642Y-95675013D01*
X151320000Y-95675013D01*
X151320000Y-95825000D01*
X152270000Y-95825000D01*
X152770000Y-95825000D01*
X153719999Y-95825000D01*
X153719999Y-95675028D01*
X153719998Y-95675013D01*
X153709505Y-95572302D01*
X153654358Y-95405880D01*
X153654356Y-95405875D01*
X153562315Y-95256654D01*
X153438345Y-95132684D01*
X153289124Y-95040643D01*
X153289119Y-95040641D01*
X153122697Y-94985494D01*
X153122690Y-94985493D01*
X153019986Y-94975000D01*
X152770000Y-94975000D01*
X152770000Y-95825000D01*
X152270000Y-95825000D01*
X152270000Y-94975000D01*
X152020029Y-94975000D01*
X152020012Y-94975001D01*
X151917302Y-94985494D01*
X151750880Y-95040641D01*
X151750875Y-95040643D01*
X151601654Y-95132684D01*
X151477684Y-95256654D01*
X151385643Y-95405875D01*
X151385641Y-95405880D01*
X151330494Y-95572302D01*
X151330493Y-95572309D01*
X151320000Y-95675013D01*
X150410642Y-95675013D01*
X156760331Y-89325324D01*
X156813727Y-89293840D01*
X156825776Y-89290373D01*
X156860204Y-89287665D01*
X157014393Y-89242869D01*
X157036645Y-89229708D01*
X157051856Y-89225333D01*
X157068146Y-89225422D01*
X157086139Y-89220500D01*
X164768996Y-89220500D01*
X164781413Y-89218029D01*
X164788755Y-89216569D01*
X164858347Y-89222794D01*
G37*
%TD.AperFunction*%
%TA.AperFunction,Conductor*%
G36*
X162250348Y-104916104D02*
G01*
X162281189Y-104963232D01*
X162282136Y-104962791D01*
X162285185Y-104969333D01*
X162285186Y-104969334D01*
X162377288Y-105118656D01*
X162501344Y-105242712D01*
X162650666Y-105334814D01*
X162817203Y-105389999D01*
X162919991Y-105400500D01*
X163720008Y-105400499D01*
X163720016Y-105400498D01*
X163720019Y-105400498D01*
X163776302Y-105394748D01*
X163822797Y-105389999D01*
X163989334Y-105334814D01*
X164138656Y-105242712D01*
X164232319Y-105149049D01*
X164293642Y-105115564D01*
X164363334Y-105120548D01*
X164407681Y-105149049D01*
X164501344Y-105242712D01*
X164650666Y-105334814D01*
X164817203Y-105389999D01*
X164919991Y-105400500D01*
X165720008Y-105400499D01*
X165720016Y-105400498D01*
X165720019Y-105400498D01*
X165776302Y-105394748D01*
X165822797Y-105389999D01*
X165989334Y-105334814D01*
X166138656Y-105242712D01*
X166244550Y-105136818D01*
X166305873Y-105103334D01*
X166332231Y-105100500D01*
X168690501Y-105100500D01*
X168757540Y-105120185D01*
X168803295Y-105172989D01*
X168814501Y-105224500D01*
X168814501Y-105245018D01*
X168825000Y-105347796D01*
X168825001Y-105347799D01*
X168857481Y-105445815D01*
X168880186Y-105514334D01*
X168972288Y-105663656D01*
X169096344Y-105787712D01*
X169245666Y-105879814D01*
X169412203Y-105934999D01*
X169514991Y-105945500D01*
X170715008Y-105945499D01*
X170817797Y-105934999D01*
X170984334Y-105879814D01*
X171133656Y-105787712D01*
X171257712Y-105663656D01*
X171349814Y-105514334D01*
X171376955Y-105432427D01*
X171416726Y-105374984D01*
X171481242Y-105348161D01*
X171550018Y-105360476D01*
X171594977Y-105398547D01*
X171629090Y-105445499D01*
X171663034Y-105492219D01*
X171807786Y-105636971D01*
X171962749Y-105749556D01*
X171973390Y-105757287D01*
X172089607Y-105816503D01*
X172155776Y-105850218D01*
X172155778Y-105850218D01*
X172155781Y-105850220D01*
X172225060Y-105872730D01*
X172350465Y-105913477D01*
X172451557Y-105929488D01*
X172552648Y-105945500D01*
X172552649Y-105945500D01*
X172757351Y-105945500D01*
X172757352Y-105945500D01*
X172959534Y-105913477D01*
X172959542Y-105913474D01*
X172964270Y-105912340D01*
X172964802Y-105914559D01*
X173025150Y-105912724D01*
X173081528Y-105945027D01*
X175308181Y-108171680D01*
X175341666Y-108233003D01*
X175344500Y-108259361D01*
X175344500Y-113723505D01*
X175324815Y-113790544D01*
X175314798Y-113804028D01*
X175314059Y-113804893D01*
X175201135Y-113960318D01*
X175113916Y-114131493D01*
X175054553Y-114314197D01*
X175024500Y-114503945D01*
X175024500Y-114696054D01*
X175054553Y-114885802D01*
X175113916Y-115068506D01*
X175148907Y-115137179D01*
X175201135Y-115239681D01*
X175314055Y-115395102D01*
X175449898Y-115530945D01*
X175605319Y-115643865D01*
X175776491Y-115731082D01*
X175776493Y-115731083D01*
X175871263Y-115761875D01*
X175959199Y-115790447D01*
X175959201Y-115790447D01*
X175963930Y-115791583D01*
X175963597Y-115792968D01*
X176020950Y-115820144D01*
X176057892Y-115879449D01*
X176056907Y-115949312D01*
X176026115Y-116000384D01*
X170517123Y-121509375D01*
X170476896Y-121536254D01*
X170351094Y-121588364D01*
X170351079Y-121588372D01*
X170187219Y-121697860D01*
X170187215Y-121697863D01*
X170047863Y-121837215D01*
X170047860Y-121837219D01*
X169938372Y-122001079D01*
X169938369Y-122001086D01*
X169886255Y-122126897D01*
X169859375Y-122167124D01*
X165863319Y-126163181D01*
X165801996Y-126196666D01*
X165775638Y-126199500D01*
X159826602Y-126199500D01*
X159759563Y-126179815D01*
X159713808Y-126127011D01*
X159703864Y-126057853D01*
X159708671Y-126037182D01*
X159731757Y-125966130D01*
X159731757Y-125966127D01*
X159765000Y-125756246D01*
X159765000Y-125543753D01*
X159731757Y-125333872D01*
X159731757Y-125333869D01*
X159666095Y-125131782D01*
X159569624Y-124942449D01*
X159530270Y-124888282D01*
X159530269Y-124888282D01*
X158897962Y-125520589D01*
X158880925Y-125457007D01*
X158815099Y-125342993D01*
X158722007Y-125249901D01*
X158607993Y-125184075D01*
X158544409Y-125167037D01*
X159176716Y-124534728D01*
X159122550Y-124495375D01*
X158933217Y-124398904D01*
X158731129Y-124333242D01*
X158521246Y-124300000D01*
X158308754Y-124300000D01*
X158098872Y-124333242D01*
X158098869Y-124333242D01*
X157896782Y-124398904D01*
X157707439Y-124495380D01*
X157653282Y-124534727D01*
X157653282Y-124534728D01*
X158285591Y-125167037D01*
X158222007Y-125184075D01*
X158107993Y-125249901D01*
X158014901Y-125342993D01*
X157949075Y-125457007D01*
X157932037Y-125520591D01*
X157261818Y-124850372D01*
X157228333Y-124789049D01*
X157228330Y-124789036D01*
X157225499Y-124776015D01*
X157225499Y-124752128D01*
X157219091Y-124692517D01*
X157190926Y-124617002D01*
X157168798Y-124557673D01*
X157168793Y-124557664D01*
X157082547Y-124442455D01*
X157082544Y-124442452D01*
X156967335Y-124356206D01*
X156967328Y-124356202D01*
X156832482Y-124305908D01*
X156832483Y-124305908D01*
X156772883Y-124299501D01*
X156772881Y-124299500D01*
X156772873Y-124299500D01*
X156772865Y-124299500D01*
X156724500Y-124299500D01*
X156657461Y-124279815D01*
X156611706Y-124227011D01*
X156600500Y-124175500D01*
X156600500Y-121940047D01*
X156620185Y-121873008D01*
X156636819Y-121852366D01*
X156651970Y-121837215D01*
X156691966Y-121797219D01*
X156691968Y-121797215D01*
X156691971Y-121797213D01*
X156764154Y-121697860D01*
X156812287Y-121631610D01*
X156905220Y-121449219D01*
X156968477Y-121254534D01*
X157000500Y-121052352D01*
X157000500Y-120847648D01*
X156968477Y-120645466D01*
X156905220Y-120450781D01*
X156905218Y-120450778D01*
X156905218Y-120450776D01*
X156871503Y-120384607D01*
X156812287Y-120268390D01*
X156804556Y-120257749D01*
X156691971Y-120102786D01*
X156547213Y-119958028D01*
X156381613Y-119837715D01*
X156381612Y-119837714D01*
X156381610Y-119837713D01*
X156328171Y-119810484D01*
X156277376Y-119762510D01*
X156260581Y-119694689D01*
X156283118Y-119628554D01*
X156328172Y-119589515D01*
X156381610Y-119562287D01*
X156476719Y-119493187D01*
X156547213Y-119441971D01*
X156547215Y-119441968D01*
X156547219Y-119441966D01*
X156691966Y-119297219D01*
X156691968Y-119297215D01*
X156691971Y-119297213D01*
X156753643Y-119212327D01*
X156812287Y-119131610D01*
X156905220Y-118949219D01*
X156968477Y-118754534D01*
X157000500Y-118552352D01*
X157000500Y-118347648D01*
X156992801Y-118299041D01*
X156968477Y-118145465D01*
X156920129Y-117996666D01*
X156905220Y-117950781D01*
X156905218Y-117950778D01*
X156905218Y-117950776D01*
X156867624Y-117876995D01*
X156812287Y-117768390D01*
X156808293Y-117762893D01*
X156767125Y-117706228D01*
X156767116Y-117706218D01*
X156716321Y-117636303D01*
X161149500Y-117636303D01*
X161149500Y-117813696D01*
X161184103Y-117987658D01*
X161184105Y-117987666D01*
X161251988Y-118151548D01*
X161350534Y-118299034D01*
X161350540Y-118299041D01*
X162650964Y-119599464D01*
X162650966Y-119599466D01*
X162671516Y-119613196D01*
X162710040Y-119638936D01*
X162757698Y-119670781D01*
X162787050Y-119690394D01*
X162787056Y-119690401D01*
X162823695Y-119728398D01*
X162894785Y-119843652D01*
X162894788Y-119843656D01*
X163018844Y-119967712D01*
X163168166Y-120059814D01*
X163334703Y-120114999D01*
X163437491Y-120125500D01*
X164212508Y-120125499D01*
X164212516Y-120125498D01*
X164212519Y-120125498D01*
X164268802Y-120119748D01*
X164315297Y-120114999D01*
X164481834Y-120059814D01*
X164631156Y-119967712D01*
X164755212Y-119843656D01*
X164756961Y-119840819D01*
X164758669Y-119839283D01*
X164759693Y-119837989D01*
X164759914Y-119838163D01*
X164808906Y-119794096D01*
X164877868Y-119782872D01*
X164941951Y-119810713D01*
X164968037Y-119840817D01*
X164969788Y-119843656D01*
X165093844Y-119967712D01*
X165243166Y-120059814D01*
X165409703Y-120114999D01*
X165512491Y-120125500D01*
X166287508Y-120125499D01*
X166287516Y-120125498D01*
X166287519Y-120125498D01*
X166343802Y-120119748D01*
X166390297Y-120114999D01*
X166556834Y-120059814D01*
X166706156Y-119967712D01*
X166830212Y-119843656D01*
X166830212Y-119843655D01*
X166835319Y-119838549D01*
X166837205Y-119840435D01*
X166884125Y-119807212D01*
X166924368Y-119800500D01*
X169493693Y-119800500D01*
X169493694Y-119800499D01*
X169667666Y-119765895D01*
X169749606Y-119731953D01*
X169831547Y-119698013D01*
X169919959Y-119638936D01*
X169979036Y-119599464D01*
X171181976Y-118396523D01*
X171243297Y-118363040D01*
X171259928Y-118360588D01*
X171261036Y-118360500D01*
X171261055Y-118360500D01*
X171450801Y-118330447D01*
X171633509Y-118271082D01*
X171804681Y-118183865D01*
X171960102Y-118070945D01*
X172095945Y-117935102D01*
X172208865Y-117779681D01*
X172296082Y-117608509D01*
X172355447Y-117425801D01*
X172385500Y-117236055D01*
X172385500Y-117043945D01*
X172355447Y-116854199D01*
X172325655Y-116762509D01*
X172296083Y-116671493D01*
X172208864Y-116500318D01*
X172185646Y-116468361D01*
X172095945Y-116344898D01*
X171960102Y-116209055D01*
X171804681Y-116096135D01*
X171633506Y-116008916D01*
X171450802Y-115949553D01*
X171355928Y-115934526D01*
X171261055Y-115919500D01*
X171068945Y-115919500D01*
X171005696Y-115929517D01*
X170879197Y-115949553D01*
X170696493Y-116008916D01*
X170525318Y-116096135D01*
X170436645Y-116160560D01*
X170369898Y-116209055D01*
X170369896Y-116209057D01*
X170369895Y-116209057D01*
X170234057Y-116344895D01*
X170234057Y-116344896D01*
X170234055Y-116344898D01*
X170185560Y-116411645D01*
X170121135Y-116500318D01*
X170033916Y-116671493D01*
X169974553Y-116854197D01*
X169944498Y-117043952D01*
X169944409Y-117045093D01*
X169944253Y-117045499D01*
X169943738Y-117048757D01*
X169943053Y-117048648D01*
X169919515Y-117110377D01*
X169908474Y-117123025D01*
X169068319Y-117963181D01*
X169006996Y-117996666D01*
X168980638Y-117999500D01*
X166924368Y-117999500D01*
X166857329Y-117979815D01*
X166836153Y-117960616D01*
X166835319Y-117961451D01*
X166706157Y-117832289D01*
X166706156Y-117832288D01*
X166556834Y-117740186D01*
X166390297Y-117685001D01*
X166390295Y-117685000D01*
X166287510Y-117674500D01*
X165512498Y-117674500D01*
X165512480Y-117674501D01*
X165409703Y-117685000D01*
X165409700Y-117685001D01*
X165243168Y-117740185D01*
X165243163Y-117740187D01*
X165093842Y-117832289D01*
X164969785Y-117956346D01*
X164968037Y-117959182D01*
X164966329Y-117960717D01*
X164965307Y-117962011D01*
X164965085Y-117961836D01*
X164916089Y-118005905D01*
X164847126Y-118017126D01*
X164783044Y-117989282D01*
X164756963Y-117959182D01*
X164755214Y-117956346D01*
X164631157Y-117832289D01*
X164631156Y-117832288D01*
X164481834Y-117740186D01*
X164315297Y-117685001D01*
X164315295Y-117685000D01*
X164212510Y-117674500D01*
X163437498Y-117674500D01*
X163437478Y-117674502D01*
X163346862Y-117683758D01*
X163278170Y-117670988D01*
X163246581Y-117648081D01*
X162624041Y-117025540D01*
X162624034Y-117025534D01*
X162476548Y-116926988D01*
X162312666Y-116859105D01*
X162312658Y-116859103D01*
X162138696Y-116824500D01*
X162138692Y-116824500D01*
X161961308Y-116824500D01*
X161961303Y-116824500D01*
X161787341Y-116859103D01*
X161787333Y-116859105D01*
X161623451Y-116926988D01*
X161475965Y-117025534D01*
X161475958Y-117025540D01*
X161350540Y-117150958D01*
X161350534Y-117150965D01*
X161251988Y-117298451D01*
X161184105Y-117462333D01*
X161184103Y-117462341D01*
X161149500Y-117636303D01*
X156716321Y-117636303D01*
X156691966Y-117602781D01*
X156632651Y-117543466D01*
X156628906Y-117538933D01*
X156617368Y-117512012D01*
X156603334Y-117486311D01*
X156602323Y-117476908D01*
X156601382Y-117474713D01*
X156601811Y-117472152D01*
X156600500Y-117459953D01*
X156600500Y-114611867D01*
X156620185Y-114544828D01*
X156639386Y-114523656D01*
X156638549Y-114522819D01*
X156737319Y-114424049D01*
X156798642Y-114390564D01*
X156868334Y-114395548D01*
X156912681Y-114424049D01*
X157006344Y-114517712D01*
X157155666Y-114609814D01*
X157322203Y-114664999D01*
X157424991Y-114675500D01*
X158225008Y-114675499D01*
X158225016Y-114675498D01*
X158225019Y-114675498D01*
X158281302Y-114669748D01*
X158327797Y-114664999D01*
X158494334Y-114609814D01*
X158643656Y-114517712D01*
X158749550Y-114411818D01*
X158810873Y-114378334D01*
X158837231Y-114375500D01*
X161200667Y-114375500D01*
X161267706Y-114395185D01*
X161277578Y-114402234D01*
X161281341Y-114405209D01*
X161281344Y-114405212D01*
X161430666Y-114497314D01*
X161597203Y-114552499D01*
X161699991Y-114563000D01*
X162750008Y-114562999D01*
X162750016Y-114562998D01*
X162750019Y-114562998D01*
X162806302Y-114557248D01*
X162852797Y-114552499D01*
X163019334Y-114497314D01*
X163168656Y-114405212D01*
X163292712Y-114281156D01*
X163384814Y-114131834D01*
X163439999Y-113965297D01*
X163450500Y-113862509D01*
X163450499Y-113087492D01*
X163439999Y-112984703D01*
X163384814Y-112818166D01*
X163292712Y-112668844D01*
X163168656Y-112544788D01*
X163165342Y-112542743D01*
X163163546Y-112540748D01*
X163162989Y-112540307D01*
X163163064Y-112540211D01*
X163118618Y-112490797D01*
X163107397Y-112421834D01*
X163135240Y-112357752D01*
X163165348Y-112331665D01*
X163168342Y-112329818D01*
X163292315Y-112205845D01*
X163384356Y-112056624D01*
X163384358Y-112056619D01*
X163415055Y-111963984D01*
X169945000Y-111963984D01*
X169945000Y-112156015D01*
X169975040Y-112345684D01*
X170034383Y-112528321D01*
X170121561Y-112699415D01*
X170142798Y-112728646D01*
X170765000Y-112106445D01*
X170765000Y-112112661D01*
X170792259Y-112214394D01*
X170844920Y-112305606D01*
X170919394Y-112380080D01*
X171010606Y-112432741D01*
X171112339Y-112460000D01*
X171118554Y-112460000D01*
X170496351Y-113082200D01*
X170496352Y-113082201D01*
X170525577Y-113103434D01*
X170696678Y-113190616D01*
X170879315Y-113249959D01*
X171068985Y-113280000D01*
X171261015Y-113280000D01*
X171450684Y-113249959D01*
X171633321Y-113190616D01*
X171804419Y-113103436D01*
X171833646Y-113082201D01*
X171833646Y-113082200D01*
X171211447Y-112460000D01*
X171217661Y-112460000D01*
X171319394Y-112432741D01*
X171410606Y-112380080D01*
X171485080Y-112305606D01*
X171537741Y-112214394D01*
X171565000Y-112112661D01*
X171565000Y-112106446D01*
X172187200Y-112728646D01*
X172187201Y-112728646D01*
X172208436Y-112699419D01*
X172295616Y-112528321D01*
X172354959Y-112345684D01*
X172385000Y-112156015D01*
X172385000Y-111963984D01*
X172354959Y-111774315D01*
X172295616Y-111591678D01*
X172208434Y-111420577D01*
X172187201Y-111391352D01*
X172187200Y-111391351D01*
X171565000Y-112013552D01*
X171565000Y-112007339D01*
X171537741Y-111905606D01*
X171485080Y-111814394D01*
X171410606Y-111739920D01*
X171319394Y-111687259D01*
X171217661Y-111660000D01*
X171211447Y-111660000D01*
X171833646Y-111037798D01*
X171804415Y-111016561D01*
X171633321Y-110929383D01*
X171450684Y-110870040D01*
X171261015Y-110840000D01*
X171068985Y-110840000D01*
X170879315Y-110870040D01*
X170696678Y-110929383D01*
X170525578Y-111016564D01*
X170496352Y-111037798D01*
X170496351Y-111037798D01*
X171118554Y-111660000D01*
X171112339Y-111660000D01*
X171010606Y-111687259D01*
X170919394Y-111739920D01*
X170844920Y-111814394D01*
X170792259Y-111905606D01*
X170765000Y-112007339D01*
X170765000Y-112013553D01*
X170142798Y-111391351D01*
X170142798Y-111391352D01*
X170121564Y-111420578D01*
X170034383Y-111591678D01*
X169975040Y-111774315D01*
X169945000Y-111963984D01*
X163415055Y-111963984D01*
X163429594Y-111920108D01*
X163429594Y-111920107D01*
X163439504Y-111890200D01*
X163439506Y-111890190D01*
X163449999Y-111787486D01*
X163450000Y-111787473D01*
X163450000Y-111650000D01*
X161000001Y-111650000D01*
X161000001Y-111787486D01*
X161010494Y-111890197D01*
X161065641Y-112056619D01*
X161065643Y-112056624D01*
X161157684Y-112205845D01*
X161281655Y-112329816D01*
X161281659Y-112329819D01*
X161284656Y-112331668D01*
X161286279Y-112333472D01*
X161287323Y-112334298D01*
X161287181Y-112334476D01*
X161307075Y-112356593D01*
X161330091Y-112381004D01*
X161330368Y-112382490D01*
X161331381Y-112383616D01*
X161336765Y-112416709D01*
X161342930Y-112449685D01*
X161342359Y-112451087D01*
X161342602Y-112452579D01*
X161329237Y-112483338D01*
X161316598Y-112514403D01*
X161315201Y-112515641D01*
X161314759Y-112516661D01*
X161290919Y-112538615D01*
X161287844Y-112540778D01*
X161281344Y-112544788D01*
X161279438Y-112546693D01*
X161272027Y-112551909D01*
X161242096Y-112562080D01*
X161212783Y-112573907D01*
X161206374Y-112574220D01*
X161205873Y-112574391D01*
X161205382Y-112574269D01*
X161200667Y-112574500D01*
X158837231Y-112574500D01*
X158770192Y-112554815D01*
X158749550Y-112538182D01*
X158699448Y-112488080D01*
X158643656Y-112432288D01*
X158494334Y-112340186D01*
X158327797Y-112285001D01*
X158327795Y-112285000D01*
X158225010Y-112274500D01*
X157424998Y-112274500D01*
X157424980Y-112274501D01*
X157322203Y-112285000D01*
X157322200Y-112285001D01*
X157155668Y-112340185D01*
X157155663Y-112340187D01*
X157006342Y-112432289D01*
X156937181Y-112501451D01*
X156875858Y-112534936D01*
X156806166Y-112529952D01*
X156750233Y-112488080D01*
X156725816Y-112422616D01*
X156725500Y-112413770D01*
X156725500Y-111012513D01*
X161000000Y-111012513D01*
X161000000Y-111150000D01*
X161975000Y-111150000D01*
X162475000Y-111150000D01*
X163449999Y-111150000D01*
X163449999Y-111012528D01*
X163449998Y-111012513D01*
X163439505Y-110909802D01*
X163384358Y-110743380D01*
X163384356Y-110743375D01*
X163292315Y-110594154D01*
X163168345Y-110470184D01*
X163019124Y-110378143D01*
X163019119Y-110378141D01*
X162852697Y-110322994D01*
X162852690Y-110322993D01*
X162749986Y-110312500D01*
X162475000Y-110312500D01*
X162475000Y-111150000D01*
X161975000Y-111150000D01*
X161975000Y-110312500D01*
X161700029Y-110312500D01*
X161700012Y-110312501D01*
X161597302Y-110322994D01*
X161430880Y-110378141D01*
X161430875Y-110378143D01*
X161281654Y-110470184D01*
X161157684Y-110594154D01*
X161065643Y-110743375D01*
X161065641Y-110743380D01*
X161010494Y-110909802D01*
X161010493Y-110909809D01*
X161000000Y-111012513D01*
X156725500Y-111012513D01*
X156725500Y-110374362D01*
X156745185Y-110307323D01*
X156761819Y-110286681D01*
X161974462Y-105074038D01*
X161974464Y-105074036D01*
X162017700Y-105009328D01*
X162064385Y-104939458D01*
X162117996Y-104894656D01*
X162187321Y-104885949D01*
X162250348Y-104916104D01*
G37*
%TD.AperFunction*%
%TA.AperFunction,Conductor*%
G36*
X143050701Y-116374648D02*
G01*
X143057180Y-116380680D01*
X145188181Y-118511681D01*
X145221666Y-118573004D01*
X145224500Y-118599362D01*
X145224500Y-118887500D01*
X145224501Y-118887519D01*
X145235000Y-118990296D01*
X145235001Y-118990299D01*
X145290185Y-119156831D01*
X145290186Y-119156834D01*
X145377265Y-119298013D01*
X145382289Y-119306157D01*
X145511451Y-119435319D01*
X145509559Y-119437210D01*
X145542774Y-119484083D01*
X145549500Y-119524367D01*
X145549500Y-122836071D01*
X145529815Y-122903110D01*
X145477011Y-122948865D01*
X145407853Y-122958809D01*
X145344297Y-122929784D01*
X145337819Y-122923752D01*
X142154012Y-119739945D01*
X142120527Y-119678622D01*
X142125511Y-119608930D01*
X142167383Y-119552997D01*
X142229094Y-119528906D01*
X142247696Y-119527006D01*
X142414119Y-119471858D01*
X142414124Y-119471856D01*
X142563345Y-119379815D01*
X142687315Y-119255845D01*
X142779356Y-119106624D01*
X142779358Y-119106619D01*
X142834505Y-118940197D01*
X142834506Y-118940190D01*
X142844999Y-118837486D01*
X142845000Y-118837473D01*
X142845000Y-118700000D01*
X141744000Y-118700000D01*
X141676961Y-118680315D01*
X141631206Y-118627511D01*
X141620000Y-118576000D01*
X141620000Y-118324000D01*
X141639685Y-118256961D01*
X141692489Y-118211206D01*
X141744000Y-118200000D01*
X142844999Y-118200000D01*
X142844999Y-118062528D01*
X142844998Y-118062513D01*
X142834505Y-117959802D01*
X142779358Y-117793380D01*
X142779356Y-117793375D01*
X142687315Y-117644154D01*
X142563344Y-117520183D01*
X142563341Y-117520181D01*
X142560339Y-117518329D01*
X142558713Y-117516521D01*
X142557677Y-117515702D01*
X142557817Y-117515524D01*
X142513617Y-117466380D01*
X142502397Y-117397417D01*
X142530243Y-117333336D01*
X142560344Y-117307254D01*
X142563656Y-117305212D01*
X142687712Y-117181156D01*
X142779814Y-117031834D01*
X142834999Y-116865297D01*
X142845500Y-116762509D01*
X142845499Y-116468359D01*
X142865183Y-116401322D01*
X142917987Y-116355567D01*
X142987146Y-116345623D01*
X143050701Y-116374648D01*
G37*
%TD.AperFunction*%
%TA.AperFunction,Conductor*%
G36*
X151525809Y-103020185D02*
G01*
X151571564Y-103072989D01*
X151581508Y-103142147D01*
X151552483Y-103205703D01*
X151546451Y-103212181D01*
X151502289Y-103256342D01*
X151410187Y-103405663D01*
X151410185Y-103405668D01*
X151405742Y-103419076D01*
X151355001Y-103572203D01*
X151355001Y-103572204D01*
X151355000Y-103572204D01*
X151344500Y-103674983D01*
X151344500Y-104475001D01*
X151344501Y-104475019D01*
X151355000Y-104577796D01*
X151355001Y-104577799D01*
X151391623Y-104688315D01*
X151410186Y-104744334D01*
X151497534Y-104885949D01*
X151502289Y-104893657D01*
X151608181Y-104999549D01*
X151641666Y-105060872D01*
X151644500Y-105087230D01*
X151644500Y-112880637D01*
X151624815Y-112947676D01*
X151608181Y-112968318D01*
X147875930Y-116700568D01*
X147814607Y-116734053D01*
X147744915Y-116729069D01*
X147700568Y-116700568D01*
X147675000Y-116675000D01*
X146574000Y-116675000D01*
X146506961Y-116655315D01*
X146461206Y-116602511D01*
X146450000Y-116551000D01*
X146450000Y-116425000D01*
X146324000Y-116425000D01*
X146256961Y-116405315D01*
X146211206Y-116352511D01*
X146200000Y-116301000D01*
X146200000Y-116175000D01*
X146700000Y-116175000D01*
X147674999Y-116175000D01*
X147674999Y-116037528D01*
X147674998Y-116037513D01*
X147664505Y-115934802D01*
X147609358Y-115768380D01*
X147609356Y-115768375D01*
X147517315Y-115619154D01*
X147393345Y-115495184D01*
X147244124Y-115403143D01*
X147244119Y-115403141D01*
X147077697Y-115347994D01*
X147077690Y-115347993D01*
X146974986Y-115337500D01*
X146700000Y-115337500D01*
X146700000Y-116175000D01*
X146200000Y-116175000D01*
X146200000Y-115337500D01*
X145925029Y-115337500D01*
X145925012Y-115337501D01*
X145822302Y-115347994D01*
X145655880Y-115403141D01*
X145655875Y-115403143D01*
X145506654Y-115495184D01*
X145382684Y-115619154D01*
X145290643Y-115768375D01*
X145290640Y-115768382D01*
X145279515Y-115801955D01*
X145239741Y-115859399D01*
X145175224Y-115886220D01*
X145106449Y-115873904D01*
X145074129Y-115850629D01*
X134880680Y-105657180D01*
X134847195Y-105595857D01*
X134852179Y-105526165D01*
X134894051Y-105470232D01*
X134959515Y-105445815D01*
X134968361Y-105445499D01*
X135480002Y-105445499D01*
X135480008Y-105445499D01*
X135582797Y-105434999D01*
X135749334Y-105379814D01*
X135898656Y-105287712D01*
X136022712Y-105163656D01*
X136114814Y-105014334D01*
X136141955Y-104932427D01*
X136181726Y-104874984D01*
X136246242Y-104848161D01*
X136315018Y-104860476D01*
X136359977Y-104898547D01*
X136406974Y-104963232D01*
X136428034Y-104992219D01*
X136572786Y-105136971D01*
X136693226Y-105224474D01*
X136738390Y-105257287D01*
X136854607Y-105316503D01*
X136920776Y-105350218D01*
X136920778Y-105350218D01*
X136920781Y-105350220D01*
X136996997Y-105374984D01*
X137115465Y-105413477D01*
X137216557Y-105429488D01*
X137317648Y-105445500D01*
X137317649Y-105445500D01*
X137522351Y-105445500D01*
X137522352Y-105445500D01*
X137724534Y-105413477D01*
X137919219Y-105350220D01*
X138101610Y-105257287D01*
X138197298Y-105187766D01*
X138267213Y-105136971D01*
X138267215Y-105136968D01*
X138267219Y-105136966D01*
X138411966Y-104992219D01*
X138411968Y-104992215D01*
X138411971Y-104992213D01*
X138532284Y-104826614D01*
X138532286Y-104826611D01*
X138532287Y-104826610D01*
X138579516Y-104733917D01*
X138627489Y-104683123D01*
X138695310Y-104666328D01*
X138761445Y-104688865D01*
X138800483Y-104733917D01*
X138815132Y-104762666D01*
X138847715Y-104826614D01*
X138968028Y-104992213D01*
X139023181Y-105047366D01*
X139056666Y-105108689D01*
X139059500Y-105135047D01*
X139059500Y-107773696D01*
X139094103Y-107947659D01*
X139094104Y-107947663D01*
X139094105Y-107947666D01*
X139105220Y-107974500D01*
X139105221Y-107974502D01*
X139161984Y-108111542D01*
X139161985Y-108111544D01*
X139221063Y-108199960D01*
X139260537Y-108259038D01*
X139260540Y-108259041D01*
X140350681Y-109349180D01*
X140384166Y-109410503D01*
X140387000Y-109436861D01*
X140387000Y-109725000D01*
X140387001Y-109725019D01*
X140397500Y-109827796D01*
X140397501Y-109827797D01*
X140452686Y-109994334D01*
X140544788Y-110143656D01*
X140668844Y-110267712D01*
X140818166Y-110359814D01*
X140984703Y-110414999D01*
X141087491Y-110425500D01*
X141862508Y-110425499D01*
X141862516Y-110425498D01*
X141862519Y-110425498D01*
X141918802Y-110419748D01*
X141965297Y-110414999D01*
X142131834Y-110359814D01*
X142281156Y-110267712D01*
X142405212Y-110143656D01*
X142406961Y-110140819D01*
X142408669Y-110139283D01*
X142409693Y-110137989D01*
X142409914Y-110138163D01*
X142458906Y-110094096D01*
X142527868Y-110082872D01*
X142591951Y-110110713D01*
X142618037Y-110140817D01*
X142619788Y-110143656D01*
X142743844Y-110267712D01*
X142893166Y-110359814D01*
X143059703Y-110414999D01*
X143162491Y-110425500D01*
X143937508Y-110425499D01*
X143937516Y-110425498D01*
X143937519Y-110425498D01*
X143993802Y-110419748D01*
X144040297Y-110414999D01*
X144206834Y-110359814D01*
X144356156Y-110267712D01*
X144480212Y-110143656D01*
X144572314Y-109994334D01*
X144627499Y-109827797D01*
X144638000Y-109725009D01*
X144637999Y-109154017D01*
X144657683Y-109086979D01*
X144674313Y-109066342D01*
X148489114Y-105251543D01*
X148565775Y-105136811D01*
X148572512Y-105120548D01*
X148602824Y-105047366D01*
X148618580Y-105009328D01*
X148632478Y-104939461D01*
X148645500Y-104873996D01*
X148645500Y-103424499D01*
X148665185Y-103357460D01*
X148717989Y-103311705D01*
X148769500Y-103300499D01*
X149345002Y-103300499D01*
X149345008Y-103300499D01*
X149447797Y-103289999D01*
X149614334Y-103234814D01*
X149763656Y-103142712D01*
X149869550Y-103036818D01*
X149930873Y-103003334D01*
X149957231Y-103000500D01*
X151458770Y-103000500D01*
X151525809Y-103020185D01*
G37*
%TD.AperFunction*%
%TA.AperFunction,Conductor*%
G36*
X177985000Y-105921606D02*
G01*
X178039421Y-105912988D01*
X178157181Y-105874725D01*
X178227022Y-105872730D01*
X178286855Y-105908810D01*
X178317684Y-105971510D01*
X178319500Y-105992656D01*
X178319500Y-113655638D01*
X178299815Y-113722677D01*
X178283181Y-113743319D01*
X177645384Y-114381115D01*
X177584061Y-114414600D01*
X177514369Y-114409616D01*
X177458436Y-114367744D01*
X177437698Y-114318662D01*
X177436583Y-114318930D01*
X177435447Y-114314200D01*
X177431085Y-114300776D01*
X177376194Y-114131836D01*
X177376083Y-114131493D01*
X177296349Y-113975008D01*
X177288865Y-113960319D01*
X177175945Y-113804898D01*
X177175940Y-113804893D01*
X177175202Y-113804028D01*
X177175024Y-113803632D01*
X177173081Y-113800957D01*
X177173643Y-113800548D01*
X177146638Y-113740264D01*
X177145500Y-113723505D01*
X177145500Y-107746308D01*
X177145499Y-107746304D01*
X177128203Y-107659348D01*
X177110895Y-107572334D01*
X177062895Y-107456452D01*
X177043013Y-107408453D01*
X176978565Y-107312000D01*
X176944465Y-107260966D01*
X176906372Y-107222873D01*
X176819035Y-107135536D01*
X175708204Y-106024705D01*
X175674720Y-105963383D01*
X175679704Y-105893691D01*
X175721576Y-105837758D01*
X175739592Y-105826540D01*
X175876347Y-105756861D01*
X176041894Y-105636582D01*
X176041895Y-105636582D01*
X176186582Y-105491895D01*
X176186582Y-105491894D01*
X176306859Y-105326349D01*
X176354515Y-105232820D01*
X176402489Y-105182024D01*
X176470310Y-105165229D01*
X176536445Y-105187766D01*
X176575485Y-105232820D01*
X176623140Y-105326349D01*
X176743417Y-105491894D01*
X176743417Y-105491895D01*
X176888104Y-105636582D01*
X177053650Y-105756859D01*
X177235968Y-105849754D01*
X177430578Y-105912988D01*
X177485000Y-105921607D01*
X177485000Y-104560686D01*
X177489394Y-104565080D01*
X177580606Y-104617741D01*
X177682339Y-104645000D01*
X177787661Y-104645000D01*
X177889394Y-104617741D01*
X177980606Y-104565080D01*
X177985000Y-104560686D01*
X177985000Y-105921606D01*
G37*
%TD.AperFunction*%
%TA.AperFunction,Conductor*%
G36*
X145999808Y-103020185D02*
G01*
X146020450Y-103036818D01*
X146126344Y-103142712D01*
X146275666Y-103234814D01*
X146442203Y-103289999D01*
X146544991Y-103300500D01*
X147120500Y-103300499D01*
X147187539Y-103320183D01*
X147233294Y-103372987D01*
X147244500Y-103424499D01*
X147244500Y-104463480D01*
X147224815Y-104530519D01*
X147208181Y-104551161D01*
X144564969Y-107194372D01*
X144503646Y-107227857D01*
X144433954Y-107222873D01*
X144378021Y-107181001D01*
X144362727Y-107154143D01*
X144342932Y-107106353D01*
X144342925Y-107106340D01*
X144263532Y-106987521D01*
X144263529Y-106987517D01*
X144162482Y-106886470D01*
X144162478Y-106886467D01*
X144043659Y-106807074D01*
X144043650Y-106807069D01*
X143911620Y-106752381D01*
X143911614Y-106752379D01*
X143771457Y-106724500D01*
X143771455Y-106724500D01*
X143628545Y-106724500D01*
X143628543Y-106724500D01*
X143488385Y-106752379D01*
X143488379Y-106752381D01*
X143356349Y-106807069D01*
X143356340Y-106807074D01*
X143237521Y-106886467D01*
X143237517Y-106886470D01*
X143136470Y-106987517D01*
X143136467Y-106987521D01*
X143057074Y-107106340D01*
X143057069Y-107106349D01*
X143002381Y-107238379D01*
X143002379Y-107238385D01*
X142974500Y-107378542D01*
X142974500Y-107378545D01*
X142974500Y-107521455D01*
X142974500Y-107521457D01*
X142974499Y-107521457D01*
X142997117Y-107635156D01*
X142999500Y-107659348D01*
X142999500Y-107915409D01*
X142979815Y-107982448D01*
X142927011Y-108028203D01*
X142914506Y-108033114D01*
X142893168Y-108040184D01*
X142743842Y-108132289D01*
X142619785Y-108256346D01*
X142618037Y-108259182D01*
X142616329Y-108260717D01*
X142615307Y-108262011D01*
X142615085Y-108261836D01*
X142566089Y-108305905D01*
X142497126Y-108317126D01*
X142433044Y-108289282D01*
X142406963Y-108259182D01*
X142405214Y-108256346D01*
X142281157Y-108132289D01*
X142281156Y-108132288D01*
X142131834Y-108040186D01*
X141965297Y-107985001D01*
X141965295Y-107985000D01*
X141862516Y-107974500D01*
X141862509Y-107974500D01*
X141574361Y-107974500D01*
X141507322Y-107954815D01*
X141486680Y-107938181D01*
X140896819Y-107348319D01*
X140863334Y-107286996D01*
X140860500Y-107260638D01*
X140860500Y-105135047D01*
X140880185Y-105068008D01*
X140896819Y-105047366D01*
X140923994Y-105020191D01*
X140951966Y-104992219D01*
X140951968Y-104992215D01*
X140951971Y-104992213D01*
X141072286Y-104826611D01*
X141072415Y-104826359D01*
X141119795Y-104733369D01*
X141167769Y-104682573D01*
X141235590Y-104665778D01*
X141301725Y-104688315D01*
X141340765Y-104733369D01*
X141388141Y-104826350D01*
X141388147Y-104826359D01*
X141420523Y-104870921D01*
X141420524Y-104870922D01*
X142100000Y-104191446D01*
X142100000Y-104197661D01*
X142127259Y-104299394D01*
X142179920Y-104390606D01*
X142254394Y-104465080D01*
X142345606Y-104517741D01*
X142447339Y-104545000D01*
X142453553Y-104545000D01*
X141774076Y-105224474D01*
X141818650Y-105256859D01*
X142000968Y-105349755D01*
X142195582Y-105412990D01*
X142397683Y-105445000D01*
X142602317Y-105445000D01*
X142804417Y-105412990D01*
X142999031Y-105349755D01*
X143181349Y-105256859D01*
X143225921Y-105224474D01*
X142546447Y-104545000D01*
X142552661Y-104545000D01*
X142654394Y-104517741D01*
X142745606Y-104465080D01*
X142820080Y-104390606D01*
X142872741Y-104299394D01*
X142900000Y-104197661D01*
X142900000Y-104191448D01*
X143579474Y-104870922D01*
X143579474Y-104870921D01*
X143611859Y-104826349D01*
X143704755Y-104644031D01*
X143767990Y-104449417D01*
X143800000Y-104247317D01*
X143800000Y-104042682D01*
X143767990Y-103840582D01*
X143704755Y-103645968D01*
X143611859Y-103463650D01*
X143579474Y-103419077D01*
X143579474Y-103419076D01*
X142900000Y-104098551D01*
X142900000Y-104092339D01*
X142872741Y-103990606D01*
X142820080Y-103899394D01*
X142745606Y-103824920D01*
X142654394Y-103772259D01*
X142552661Y-103745000D01*
X142546446Y-103745000D01*
X143254628Y-103036819D01*
X143315951Y-103003334D01*
X143342309Y-103000500D01*
X145932769Y-103000500D01*
X145999808Y-103020185D01*
G37*
%TD.AperFunction*%
%TA.AperFunction,Conductor*%
G36*
X177414920Y-103999394D02*
G01*
X177362259Y-104090606D01*
X177335000Y-104192339D01*
X177335000Y-104297661D01*
X177362259Y-104399394D01*
X177414920Y-104490606D01*
X177419314Y-104495000D01*
X175510686Y-104495000D01*
X175515080Y-104490606D01*
X175567741Y-104399394D01*
X175595000Y-104297661D01*
X175595000Y-104192339D01*
X175567741Y-104090606D01*
X175515080Y-103999394D01*
X175510686Y-103995000D01*
X177419314Y-103995000D01*
X177414920Y-103999394D01*
G37*
%TD.AperFunction*%
%TA.AperFunction,Conductor*%
G36*
X164425703Y-97523032D02*
G01*
X164441766Y-97539834D01*
X164444788Y-97543656D01*
X164568844Y-97667712D01*
X164718166Y-97759814D01*
X164884703Y-97814999D01*
X164987491Y-97825500D01*
X165762508Y-97825499D01*
X165762516Y-97825498D01*
X165762519Y-97825498D01*
X165818802Y-97819748D01*
X165865297Y-97814999D01*
X166031834Y-97759814D01*
X166181156Y-97667712D01*
X166305212Y-97543656D01*
X166305212Y-97543655D01*
X166310319Y-97538549D01*
X166312205Y-97540435D01*
X166359125Y-97507212D01*
X166399368Y-97500500D01*
X168821708Y-97500500D01*
X168888747Y-97520185D01*
X168932191Y-97568204D01*
X168966007Y-97634570D01*
X169002713Y-97706611D01*
X169123028Y-97872213D01*
X169267786Y-98016971D01*
X169422749Y-98129556D01*
X169433390Y-98137287D01*
X169549607Y-98196503D01*
X169615776Y-98230218D01*
X169615778Y-98230218D01*
X169615781Y-98230220D01*
X169720137Y-98264127D01*
X169810465Y-98293477D01*
X169911557Y-98309488D01*
X170012648Y-98325500D01*
X170012649Y-98325500D01*
X170217351Y-98325500D01*
X170217352Y-98325500D01*
X170419534Y-98293477D01*
X170614219Y-98230220D01*
X170796610Y-98137287D01*
X170889590Y-98069732D01*
X170962213Y-98016971D01*
X170962215Y-98016968D01*
X170962219Y-98016966D01*
X171106966Y-97872219D01*
X171106968Y-97872215D01*
X171106971Y-97872213D01*
X171227284Y-97706614D01*
X171227286Y-97706611D01*
X171227287Y-97706610D01*
X171274516Y-97613917D01*
X171322489Y-97563123D01*
X171390310Y-97546328D01*
X171456445Y-97568865D01*
X171495483Y-97613917D01*
X171526607Y-97675000D01*
X171542715Y-97706614D01*
X171663028Y-97872213D01*
X171807786Y-98016971D01*
X171962749Y-98129556D01*
X171973390Y-98137287D01*
X172089607Y-98196503D01*
X172155776Y-98230218D01*
X172155778Y-98230218D01*
X172155781Y-98230220D01*
X172260137Y-98264127D01*
X172350465Y-98293477D01*
X172451557Y-98309488D01*
X172552648Y-98325500D01*
X172552649Y-98325500D01*
X172757351Y-98325500D01*
X172757352Y-98325500D01*
X172959534Y-98293477D01*
X173154219Y-98230220D01*
X173336610Y-98137287D01*
X173429590Y-98069732D01*
X173502213Y-98016971D01*
X173502215Y-98016968D01*
X173502219Y-98016966D01*
X173646966Y-97872219D01*
X173646968Y-97872215D01*
X173646971Y-97872213D01*
X173767284Y-97706614D01*
X173767286Y-97706611D01*
X173767287Y-97706610D01*
X173814516Y-97613917D01*
X173862489Y-97563123D01*
X173930310Y-97546328D01*
X173996445Y-97568865D01*
X174035483Y-97613917D01*
X174066607Y-97675000D01*
X174082715Y-97706614D01*
X174203028Y-97872213D01*
X174347786Y-98016971D01*
X174502749Y-98129556D01*
X174513390Y-98137287D01*
X174629607Y-98196503D01*
X174695776Y-98230218D01*
X174695778Y-98230218D01*
X174695781Y-98230220D01*
X174800137Y-98264127D01*
X174890465Y-98293477D01*
X174991557Y-98309488D01*
X175092648Y-98325500D01*
X175092649Y-98325500D01*
X175297351Y-98325500D01*
X175297352Y-98325500D01*
X175499534Y-98293477D01*
X175499542Y-98293474D01*
X175504270Y-98292340D01*
X175504802Y-98294559D01*
X175565150Y-98292724D01*
X175621528Y-98325027D01*
X178283181Y-100986680D01*
X178316666Y-101048003D01*
X178319500Y-101074361D01*
X178319500Y-102497343D01*
X178299815Y-102564382D01*
X178247011Y-102610137D01*
X178177853Y-102620081D01*
X178157182Y-102615274D01*
X178039413Y-102577009D01*
X177985000Y-102568390D01*
X177985000Y-103929314D01*
X177980606Y-103924920D01*
X177889394Y-103872259D01*
X177787661Y-103845000D01*
X177682339Y-103845000D01*
X177580606Y-103872259D01*
X177489394Y-103924920D01*
X177485000Y-103929314D01*
X177485000Y-102568390D01*
X177430586Y-102577009D01*
X177235970Y-102640244D01*
X177053650Y-102733140D01*
X176888105Y-102853417D01*
X176888104Y-102853417D01*
X176743417Y-102998104D01*
X176743417Y-102998105D01*
X176623140Y-103163650D01*
X176575485Y-103257179D01*
X176527510Y-103307975D01*
X176459689Y-103324770D01*
X176393554Y-103302232D01*
X176354515Y-103257179D01*
X176306859Y-103163650D01*
X176186582Y-102998105D01*
X176186582Y-102998104D01*
X176041895Y-102853417D01*
X175876349Y-102733140D01*
X175694029Y-102640244D01*
X175499413Y-102577009D01*
X175445000Y-102568390D01*
X175445000Y-103929314D01*
X175440606Y-103924920D01*
X175349394Y-103872259D01*
X175247661Y-103845000D01*
X175142339Y-103845000D01*
X175040606Y-103872259D01*
X174949394Y-103924920D01*
X174945000Y-103929314D01*
X174945000Y-102568390D01*
X174890586Y-102577009D01*
X174695970Y-102640244D01*
X174513650Y-102733140D01*
X174348105Y-102853417D01*
X174348104Y-102853417D01*
X174203417Y-102998104D01*
X174203417Y-102998105D01*
X174083140Y-103163650D01*
X174035765Y-103256629D01*
X173987790Y-103307425D01*
X173919969Y-103324220D01*
X173853834Y-103301682D01*
X173814795Y-103256629D01*
X173799418Y-103226451D01*
X173767287Y-103163390D01*
X173740372Y-103126344D01*
X173646971Y-102997786D01*
X173502213Y-102853028D01*
X173336613Y-102732715D01*
X173336612Y-102732714D01*
X173336610Y-102732713D01*
X173276898Y-102702288D01*
X173154223Y-102639781D01*
X172959534Y-102576522D01*
X172784995Y-102548878D01*
X172757352Y-102544500D01*
X172552648Y-102544500D01*
X172528329Y-102548351D01*
X172350465Y-102576522D01*
X172155776Y-102639781D01*
X171973386Y-102732715D01*
X171807786Y-102853028D01*
X171663032Y-102997782D01*
X171663028Y-102997787D01*
X171594978Y-103091451D01*
X171539648Y-103134117D01*
X171470035Y-103140096D01*
X171408240Y-103107490D01*
X171376954Y-103057570D01*
X171376489Y-103056166D01*
X171349814Y-102975666D01*
X171257712Y-102826344D01*
X171133656Y-102702288D01*
X171032314Y-102639780D01*
X170984336Y-102610187D01*
X170984331Y-102610185D01*
X170982862Y-102609698D01*
X170817797Y-102555001D01*
X170817795Y-102555000D01*
X170715010Y-102544500D01*
X169514998Y-102544500D01*
X169514981Y-102544501D01*
X169412203Y-102555000D01*
X169412200Y-102555001D01*
X169245668Y-102610185D01*
X169245663Y-102610187D01*
X169096342Y-102702289D01*
X168972289Y-102826342D01*
X168880187Y-102975663D01*
X168880185Y-102975668D01*
X168868809Y-103010000D01*
X168825700Y-103140096D01*
X168825001Y-103142204D01*
X168825000Y-103142205D01*
X168820312Y-103188102D01*
X168793916Y-103252794D01*
X168736736Y-103292945D01*
X168696954Y-103299500D01*
X166332231Y-103299500D01*
X166265192Y-103279815D01*
X166244550Y-103263182D01*
X166193549Y-103212181D01*
X166138656Y-103157288D01*
X165989334Y-103065186D01*
X165822797Y-103010001D01*
X165822795Y-103010000D01*
X165720010Y-102999500D01*
X164919998Y-102999500D01*
X164919980Y-102999501D01*
X164817203Y-103010000D01*
X164817200Y-103010001D01*
X164650668Y-103065185D01*
X164650663Y-103065187D01*
X164501342Y-103157289D01*
X164432181Y-103226451D01*
X164370858Y-103259936D01*
X164301166Y-103254952D01*
X164245233Y-103213080D01*
X164220816Y-103147616D01*
X164220500Y-103138770D01*
X164220500Y-97616745D01*
X164240185Y-97549706D01*
X164292989Y-97503951D01*
X164362147Y-97494007D01*
X164425703Y-97523032D01*
G37*
%TD.AperFunction*%
%TA.AperFunction,Conductor*%
G36*
X179562539Y-78695185D02*
G01*
X179608294Y-78747989D01*
X179619500Y-78799500D01*
X179619500Y-99476638D01*
X179599815Y-99543677D01*
X179547011Y-99589432D01*
X179477853Y-99599376D01*
X179414297Y-99570351D01*
X179407819Y-99564319D01*
X178248577Y-98405078D01*
X178215092Y-98343755D01*
X178220076Y-98274063D01*
X178261948Y-98218130D01*
X178279963Y-98206912D01*
X178416610Y-98137287D01*
X178437770Y-98121913D01*
X178582213Y-98016971D01*
X178582215Y-98016968D01*
X178582219Y-98016966D01*
X178726966Y-97872219D01*
X178726968Y-97872215D01*
X178726971Y-97872213D01*
X178808632Y-97759814D01*
X178847287Y-97706610D01*
X178940220Y-97524219D01*
X179003477Y-97329534D01*
X179035500Y-97127352D01*
X179035500Y-96122648D01*
X179016656Y-96003671D01*
X179003477Y-95920465D01*
X178940218Y-95725776D01*
X178894515Y-95636080D01*
X178847287Y-95543390D01*
X178839221Y-95532288D01*
X178726971Y-95377786D01*
X178671819Y-95322634D01*
X178638334Y-95261311D01*
X178635500Y-95234953D01*
X178635500Y-89946308D01*
X178635499Y-89946307D01*
X178626287Y-89899991D01*
X178600895Y-89772334D01*
X178555283Y-89662218D01*
X178533013Y-89608453D01*
X178444821Y-89476465D01*
X178434464Y-89460964D01*
X174474036Y-85500536D01*
X174474035Y-85500535D01*
X174474030Y-85500531D01*
X174419622Y-85464178D01*
X174419616Y-85464175D01*
X174414959Y-85461063D01*
X174326547Y-85401987D01*
X174244606Y-85368046D01*
X174162666Y-85334105D01*
X174162658Y-85334103D01*
X173988696Y-85299500D01*
X173988692Y-85299500D01*
X173988691Y-85299500D01*
X169488692Y-85299500D01*
X169311308Y-85299500D01*
X169311303Y-85299500D01*
X169137341Y-85334103D01*
X169137329Y-85334106D01*
X169055392Y-85368045D01*
X169055393Y-85368046D01*
X168973455Y-85401985D01*
X168885040Y-85461063D01*
X168885039Y-85461064D01*
X168825961Y-85500537D01*
X166232180Y-88094318D01*
X166170857Y-88127803D01*
X166101165Y-88122819D01*
X166045232Y-88080947D01*
X166020815Y-88015483D01*
X166020499Y-88006637D01*
X166020499Y-87820830D01*
X166020498Y-87820808D01*
X166019344Y-87806138D01*
X166017665Y-87784796D01*
X165972869Y-87630607D01*
X165938869Y-87573117D01*
X165921688Y-87505398D01*
X165938869Y-87446882D01*
X165972869Y-87389393D01*
X165982197Y-87357288D01*
X166017664Y-87235208D01*
X166017664Y-87235206D01*
X166017665Y-87235204D01*
X166020500Y-87199181D01*
X166020499Y-86800820D01*
X166017665Y-86764796D01*
X165972869Y-86610607D01*
X165970680Y-86606906D01*
X165917768Y-86517434D01*
X165900500Y-86454314D01*
X165900500Y-83137486D01*
X170350001Y-83137486D01*
X170360494Y-83240197D01*
X170415641Y-83406619D01*
X170415643Y-83406624D01*
X170507684Y-83555845D01*
X170631654Y-83679815D01*
X170780875Y-83771856D01*
X170780880Y-83771858D01*
X170947302Y-83827005D01*
X170947309Y-83827006D01*
X171050019Y-83837499D01*
X171324999Y-83837499D01*
X171825000Y-83837499D01*
X172099972Y-83837499D01*
X172099986Y-83837498D01*
X172202697Y-83827005D01*
X172369119Y-83771858D01*
X172369124Y-83771856D01*
X172518345Y-83679815D01*
X172642315Y-83555845D01*
X172734356Y-83406624D01*
X172734358Y-83406619D01*
X172789505Y-83240197D01*
X172789506Y-83240190D01*
X172799999Y-83137486D01*
X172800000Y-83137473D01*
X172800000Y-83000000D01*
X171825000Y-83000000D01*
X171825000Y-83837499D01*
X171324999Y-83837499D01*
X171325000Y-83837498D01*
X171325000Y-83000000D01*
X170350001Y-83000000D01*
X170350001Y-83137486D01*
X165900500Y-83137486D01*
X165900500Y-83117215D01*
X165920185Y-83050176D01*
X165945810Y-83024553D01*
X165944327Y-83022841D01*
X165951026Y-83017034D01*
X165951032Y-83017031D01*
X166045254Y-82908294D01*
X166095413Y-82798460D01*
X166141166Y-82745659D01*
X166208205Y-82725974D01*
X166266660Y-82740616D01*
X166318331Y-82768235D01*
X166318334Y-82768236D01*
X166467555Y-82830045D01*
X166562300Y-82858786D01*
X166650000Y-82876229D01*
X166650000Y-81956050D01*
X166724377Y-81998992D01*
X166840098Y-82030000D01*
X166959902Y-82030000D01*
X167075623Y-81998992D01*
X167150000Y-81956050D01*
X167150000Y-82876229D01*
X167237699Y-82858786D01*
X167332444Y-82830046D01*
X167481665Y-82768236D01*
X167481668Y-82768235D01*
X167568975Y-82721568D01*
X167568985Y-82721562D01*
X167703288Y-82631824D01*
X167779814Y-82569020D01*
X167894020Y-82454814D01*
X167956824Y-82378288D01*
X168046562Y-82243985D01*
X168046568Y-82243975D01*
X168093235Y-82156668D01*
X168093236Y-82156665D01*
X168155045Y-82007444D01*
X168183785Y-81912701D01*
X168201231Y-81825000D01*
X167281050Y-81825000D01*
X167323992Y-81750623D01*
X167355000Y-81634902D01*
X167355000Y-81515098D01*
X167323992Y-81399377D01*
X167281050Y-81325000D01*
X168201231Y-81325000D01*
X168201230Y-81324999D01*
X168183785Y-81237298D01*
X168155045Y-81142555D01*
X168093236Y-80993334D01*
X168093235Y-80993331D01*
X168046568Y-80906024D01*
X168046562Y-80906014D01*
X167956824Y-80771711D01*
X167894020Y-80695185D01*
X167779814Y-80580979D01*
X167703286Y-80518173D01*
X167703281Y-80518169D01*
X167605151Y-80452602D01*
X167560345Y-80398990D01*
X167551638Y-80329665D01*
X167581792Y-80266638D01*
X167641235Y-80229918D01*
X167674041Y-80225500D01*
X169800638Y-80225500D01*
X169867677Y-80245185D01*
X169888319Y-80261819D01*
X170313181Y-80686681D01*
X170346666Y-80748004D01*
X170349500Y-80774362D01*
X170349500Y-81062500D01*
X170349501Y-81062519D01*
X170360000Y-81165296D01*
X170360001Y-81165299D01*
X170415185Y-81331831D01*
X170415187Y-81331836D01*
X170441619Y-81374689D01*
X170507288Y-81481156D01*
X170631344Y-81605212D01*
X170634628Y-81607237D01*
X170634653Y-81607253D01*
X170636445Y-81609246D01*
X170637011Y-81609693D01*
X170636934Y-81609789D01*
X170681379Y-81659199D01*
X170692603Y-81728161D01*
X170664761Y-81792244D01*
X170634665Y-81818326D01*
X170631660Y-81820179D01*
X170631655Y-81820183D01*
X170507684Y-81944154D01*
X170415643Y-82093375D01*
X170415641Y-82093380D01*
X170360494Y-82259802D01*
X170360493Y-82259809D01*
X170350000Y-82362513D01*
X170350000Y-82500000D01*
X172799999Y-82500000D01*
X172799999Y-82362528D01*
X172799998Y-82362513D01*
X172789506Y-82259804D01*
X172743212Y-82120101D01*
X172743211Y-82120098D01*
X172734359Y-82093382D01*
X172734356Y-82093375D01*
X172728924Y-82084568D01*
X173719500Y-82084568D01*
X173719500Y-82365431D01*
X173750942Y-82644494D01*
X173750945Y-82644512D01*
X173813439Y-82918317D01*
X173813443Y-82918329D01*
X173906200Y-83183411D01*
X174028053Y-83436442D01*
X174049436Y-83470472D01*
X174177477Y-83674248D01*
X174352584Y-83893825D01*
X174551175Y-84092416D01*
X174770752Y-84267523D01*
X175008555Y-84416945D01*
X175261592Y-84538801D01*
X175460680Y-84608465D01*
X175526670Y-84631556D01*
X175526682Y-84631560D01*
X175800491Y-84694055D01*
X175800497Y-84694055D01*
X175800505Y-84694057D01*
X175986547Y-84715018D01*
X176079569Y-84725499D01*
X176079572Y-84725500D01*
X176079575Y-84725500D01*
X176360428Y-84725500D01*
X176360429Y-84725499D01*
X176503055Y-84709429D01*
X176639494Y-84694057D01*
X176639499Y-84694056D01*
X176639509Y-84694055D01*
X176913318Y-84631560D01*
X177178408Y-84538801D01*
X177431445Y-84416945D01*
X177669248Y-84267523D01*
X177888825Y-84092416D01*
X178087416Y-83893825D01*
X178262523Y-83674248D01*
X178411945Y-83436445D01*
X178533801Y-83183408D01*
X178626560Y-82918318D01*
X178689055Y-82644509D01*
X178689056Y-82644499D01*
X178689057Y-82644494D01*
X178715705Y-82407979D01*
X178720500Y-82365425D01*
X178720500Y-82084575D01*
X178707787Y-81971740D01*
X178689057Y-81805505D01*
X178689054Y-81805487D01*
X178626560Y-81531682D01*
X178626556Y-81531670D01*
X178595369Y-81442544D01*
X178533801Y-81266592D01*
X178411945Y-81013555D01*
X178262523Y-80775752D01*
X178087416Y-80556175D01*
X177888825Y-80357584D01*
X177871984Y-80344154D01*
X177800940Y-80287498D01*
X177669248Y-80182477D01*
X177431445Y-80033055D01*
X177431442Y-80033053D01*
X177178411Y-79911200D01*
X176913329Y-79818443D01*
X176913317Y-79818439D01*
X176639512Y-79755945D01*
X176639494Y-79755942D01*
X176360431Y-79724500D01*
X176360425Y-79724500D01*
X176079575Y-79724500D01*
X176079568Y-79724500D01*
X175800505Y-79755942D01*
X175800487Y-79755945D01*
X175526682Y-79818439D01*
X175526670Y-79818443D01*
X175261588Y-79911200D01*
X175008557Y-80033053D01*
X174770753Y-80182476D01*
X174551175Y-80357583D01*
X174352583Y-80556175D01*
X174177476Y-80775753D01*
X174028053Y-81013557D01*
X173906200Y-81266588D01*
X173813443Y-81531670D01*
X173813439Y-81531682D01*
X173750945Y-81805487D01*
X173750942Y-81805505D01*
X173719500Y-82084568D01*
X172728924Y-82084568D01*
X172642315Y-81944154D01*
X172518344Y-81820183D01*
X172518341Y-81820181D01*
X172515339Y-81818329D01*
X172513713Y-81816521D01*
X172512677Y-81815702D01*
X172512817Y-81815524D01*
X172468617Y-81766380D01*
X172457397Y-81697417D01*
X172485243Y-81633336D01*
X172515344Y-81607254D01*
X172518656Y-81605212D01*
X172642712Y-81481156D01*
X172734814Y-81331834D01*
X172789999Y-81165297D01*
X172800500Y-81062509D01*
X172800499Y-80287492D01*
X172797876Y-80261819D01*
X172789999Y-80184703D01*
X172789998Y-80184700D01*
X172752982Y-80072994D01*
X172734814Y-80018166D01*
X172642712Y-79868844D01*
X172518656Y-79744788D01*
X172369334Y-79652686D01*
X172202797Y-79597501D01*
X172202795Y-79597500D01*
X172100016Y-79587000D01*
X172100009Y-79587000D01*
X171811861Y-79587000D01*
X171744822Y-79567315D01*
X171724180Y-79550681D01*
X171060681Y-78887181D01*
X171027196Y-78825858D01*
X171032180Y-78756166D01*
X171074052Y-78700233D01*
X171139516Y-78675816D01*
X171148362Y-78675500D01*
X179495500Y-78675500D01*
X179562539Y-78695185D01*
G37*
%TD.AperFunction*%
%TA.AperFunction,Conductor*%
G36*
X155642539Y-80245185D02*
G01*
X155688294Y-80297989D01*
X155699500Y-80349500D01*
X155699500Y-80676963D01*
X155679815Y-80744002D01*
X155673875Y-80752450D01*
X155602141Y-80845933D01*
X155602130Y-80845950D01*
X155542892Y-80948553D01*
X155542888Y-80948562D01*
X155492393Y-81070467D01*
X155461724Y-81184925D01*
X155444500Y-81315748D01*
X155444500Y-81434251D01*
X155461724Y-81565074D01*
X155492393Y-81679532D01*
X155542888Y-81801437D01*
X155542892Y-81801446D01*
X155602134Y-81904056D01*
X155603807Y-81906560D01*
X155604076Y-81907420D01*
X155604164Y-81907572D01*
X155604129Y-81907591D01*
X155624683Y-81973238D01*
X155606197Y-82040618D01*
X155603817Y-82044322D01*
X155602566Y-82046193D01*
X155543325Y-82148802D01*
X155543318Y-82148817D01*
X155492877Y-82270594D01*
X155478299Y-82324999D01*
X155478299Y-82325000D01*
X156298980Y-82325000D01*
X156340756Y-82330500D01*
X156459244Y-82330500D01*
X156501020Y-82325000D01*
X157321701Y-82325000D01*
X157321700Y-82324999D01*
X157307122Y-82270594D01*
X157256681Y-82148817D01*
X157256674Y-82148803D01*
X157197428Y-82046186D01*
X157196189Y-82044331D01*
X157195989Y-82043694D01*
X157195403Y-82042678D01*
X157195630Y-82042546D01*
X157175316Y-81977652D01*
X157193806Y-81910273D01*
X157196200Y-81906548D01*
X157197858Y-81904066D01*
X157197866Y-81904056D01*
X157257109Y-81801444D01*
X157307608Y-81679528D01*
X157338275Y-81565078D01*
X157355500Y-81434244D01*
X157355500Y-81315756D01*
X157338275Y-81184922D01*
X157307608Y-81070472D01*
X157257109Y-80948556D01*
X157197866Y-80845944D01*
X157164913Y-80803000D01*
X157126125Y-80752450D01*
X157100930Y-80687281D01*
X157100500Y-80676963D01*
X157100500Y-80349500D01*
X157120185Y-80282461D01*
X157172989Y-80236706D01*
X157224500Y-80225500D01*
X164245204Y-80225500D01*
X164312243Y-80245185D01*
X164357998Y-80297989D01*
X164367942Y-80367147D01*
X164361385Y-80392835D01*
X164355910Y-80407512D01*
X164355909Y-80407515D01*
X164355909Y-80407517D01*
X164349500Y-80467127D01*
X164349500Y-80467134D01*
X164349500Y-80467135D01*
X164349500Y-81132870D01*
X164349501Y-81132876D01*
X164355575Y-81189379D01*
X164355023Y-81220276D01*
X164345000Y-81289995D01*
X164345000Y-81325000D01*
X164346084Y-81326084D01*
X164373358Y-81334093D01*
X164404706Y-81341796D01*
X164407224Y-81344037D01*
X164409429Y-81344685D01*
X164432385Y-81363695D01*
X164437336Y-81368919D01*
X164492454Y-81442546D01*
X164542976Y-81480367D01*
X164550224Y-81488013D01*
X164561534Y-81510111D01*
X164576411Y-81529985D01*
X164577175Y-81540671D01*
X164582057Y-81550210D01*
X164579624Y-81574915D01*
X164581395Y-81599677D01*
X164576259Y-81609081D01*
X164575210Y-81619743D01*
X164559808Y-81639209D01*
X164547910Y-81661000D01*
X164533171Y-81672876D01*
X164531858Y-81674537D01*
X164530558Y-81674982D01*
X164527273Y-81677630D01*
X164518973Y-81682964D01*
X164518969Y-81682967D01*
X164474777Y-81733968D01*
X164432979Y-81782203D01*
X164374202Y-81819977D01*
X164345962Y-81824037D01*
X164345000Y-81825000D01*
X164345000Y-81860002D01*
X164350139Y-81931868D01*
X164351604Y-81936855D01*
X164355364Y-81989434D01*
X164344500Y-82064998D01*
X164344500Y-82635002D01*
X164349644Y-82706940D01*
X164376519Y-82798463D01*
X164387978Y-82837491D01*
X164390182Y-82844994D01*
X164440088Y-82922648D01*
X164467969Y-82966032D01*
X164467971Y-82966034D01*
X164469211Y-82967465D01*
X164470000Y-82969192D01*
X164472763Y-82973492D01*
X164472144Y-82973889D01*
X164498237Y-83031020D01*
X164499500Y-83048670D01*
X164499500Y-86454314D01*
X164482232Y-86517434D01*
X164427133Y-86610602D01*
X164427129Y-86610611D01*
X164382335Y-86764791D01*
X164382334Y-86764797D01*
X164379500Y-86800811D01*
X164379500Y-87199169D01*
X164379501Y-87199191D01*
X164382335Y-87235205D01*
X164427129Y-87389388D01*
X164427132Y-87389395D01*
X164461128Y-87446881D01*
X164478309Y-87514605D01*
X164469302Y-87556609D01*
X164465828Y-87565172D01*
X164427131Y-87630607D01*
X164396449Y-87736212D01*
X164394058Y-87742109D01*
X164376133Y-87764690D01*
X164360621Y-87788980D01*
X164354683Y-87791712D01*
X164350618Y-87796834D01*
X164323331Y-87806138D01*
X164297149Y-87818187D01*
X164285511Y-87819035D01*
X164284488Y-87819385D01*
X164283631Y-87819173D01*
X164279151Y-87819500D01*
X157519500Y-87819500D01*
X157452461Y-87799815D01*
X157406706Y-87747011D01*
X157395500Y-87695500D01*
X157395499Y-87300830D01*
X157395498Y-87300808D01*
X157392665Y-87264796D01*
X157347869Y-87110607D01*
X157266135Y-86972402D01*
X157266133Y-86972400D01*
X157266130Y-86972396D01*
X157152599Y-86858865D01*
X157148498Y-86855684D01*
X157107592Y-86799041D01*
X157100500Y-86757706D01*
X157100500Y-84473036D01*
X157120185Y-84405997D01*
X157126112Y-84397566D01*
X157197866Y-84304056D01*
X157257109Y-84201444D01*
X157307608Y-84079528D01*
X157338275Y-83965078D01*
X157355500Y-83834244D01*
X157355500Y-83715756D01*
X157338275Y-83584922D01*
X157307608Y-83470472D01*
X157257109Y-83348556D01*
X157197866Y-83245944D01*
X157196189Y-83243434D01*
X157195919Y-83242572D01*
X157195836Y-83242428D01*
X157195868Y-83242409D01*
X157175316Y-83176755D01*
X157193805Y-83109376D01*
X157196201Y-83105649D01*
X157197434Y-83103803D01*
X157256674Y-83001196D01*
X157256681Y-83001182D01*
X157307122Y-82879405D01*
X157321701Y-82825000D01*
X156501020Y-82825000D01*
X156459244Y-82819500D01*
X156340756Y-82819500D01*
X156298980Y-82825000D01*
X155478299Y-82825000D01*
X155492877Y-82879405D01*
X155543318Y-83001182D01*
X155543325Y-83001196D01*
X155602571Y-83103814D01*
X155603807Y-83105663D01*
X155604005Y-83106298D01*
X155604597Y-83107322D01*
X155604367Y-83107454D01*
X155624683Y-83172341D01*
X155606196Y-83239720D01*
X155603818Y-83243422D01*
X155602137Y-83245938D01*
X155542892Y-83348553D01*
X155542888Y-83348562D01*
X155492393Y-83470467D01*
X155461724Y-83584925D01*
X155444500Y-83715748D01*
X155444500Y-83834251D01*
X155461724Y-83965074D01*
X155492393Y-84079532D01*
X155534719Y-84181716D01*
X155542891Y-84201444D01*
X155602134Y-84304056D01*
X155673876Y-84397551D01*
X155699070Y-84462717D01*
X155699500Y-84473036D01*
X155699500Y-87256006D01*
X155699500Y-87393994D01*
X155699500Y-87393996D01*
X155699499Y-87393996D01*
X155726419Y-87529326D01*
X155726420Y-87529328D01*
X155745062Y-87574336D01*
X155754500Y-87621785D01*
X155754500Y-87699168D01*
X155754501Y-87699192D01*
X155757335Y-87735205D01*
X155802129Y-87889388D01*
X155802132Y-87889395D01*
X155836128Y-87946881D01*
X155853309Y-88014605D01*
X155836128Y-88073119D01*
X155802132Y-88130604D01*
X155802129Y-88130611D01*
X155757335Y-88284791D01*
X155757334Y-88284796D01*
X155755609Y-88306720D01*
X155730723Y-88372008D01*
X155719672Y-88384669D01*
X147400887Y-96703454D01*
X147324223Y-96818192D01*
X147291186Y-96897952D01*
X147278643Y-96913517D01*
X147270338Y-96931703D01*
X147257168Y-96940166D01*
X147247346Y-96952356D01*
X147228377Y-96958669D01*
X147211560Y-96969477D01*
X147183999Y-96973439D01*
X147181051Y-96974421D01*
X147176625Y-96974500D01*
X147069361Y-96974500D01*
X147002322Y-96954815D01*
X146981680Y-96938181D01*
X144986819Y-94943319D01*
X144953334Y-94881996D01*
X144950500Y-94855638D01*
X144950500Y-93437230D01*
X144970185Y-93370191D01*
X144986819Y-93349549D01*
X144992712Y-93343656D01*
X145084814Y-93194334D01*
X145139999Y-93027797D01*
X145150500Y-92925009D01*
X145150499Y-91924992D01*
X145139999Y-91822203D01*
X145084814Y-91655666D01*
X144992712Y-91506344D01*
X144868656Y-91382288D01*
X144736051Y-91300497D01*
X144719336Y-91290187D01*
X144719331Y-91290185D01*
X144713896Y-91288384D01*
X144552797Y-91235001D01*
X144552795Y-91235000D01*
X144450010Y-91224500D01*
X143649998Y-91224500D01*
X143649980Y-91224501D01*
X143547203Y-91235000D01*
X143547200Y-91235001D01*
X143380668Y-91290185D01*
X143380663Y-91290187D01*
X143231342Y-91382289D01*
X143137681Y-91475951D01*
X143076358Y-91509436D01*
X143006666Y-91504452D01*
X142962319Y-91475951D01*
X142868657Y-91382289D01*
X142868656Y-91382288D01*
X142736051Y-91300497D01*
X142719336Y-91290187D01*
X142719331Y-91290185D01*
X142713896Y-91288384D01*
X142552797Y-91235001D01*
X142552795Y-91235000D01*
X142450010Y-91224500D01*
X141649998Y-91224500D01*
X141649980Y-91224501D01*
X141547203Y-91235000D01*
X141547200Y-91235001D01*
X141380668Y-91290185D01*
X141380663Y-91290187D01*
X141231342Y-91382289D01*
X141107289Y-91506342D01*
X141015187Y-91655663D01*
X141015185Y-91655668D01*
X141011994Y-91665299D01*
X140960001Y-91822203D01*
X140960001Y-91822204D01*
X140960000Y-91822204D01*
X140949500Y-91924983D01*
X140949500Y-92925001D01*
X140949501Y-92925019D01*
X140960000Y-93027796D01*
X140960001Y-93027799D01*
X141015185Y-93194331D01*
X141015187Y-93194336D01*
X141107289Y-93343657D01*
X141113181Y-93349549D01*
X141146666Y-93410872D01*
X141149500Y-93437230D01*
X141149500Y-94010638D01*
X141129815Y-94077677D01*
X141113181Y-94098319D01*
X140023319Y-95188181D01*
X139961996Y-95221666D01*
X139935638Y-95224500D01*
X139857648Y-95224500D01*
X139833329Y-95228351D01*
X139655465Y-95256522D01*
X139460776Y-95319781D01*
X139278386Y-95412715D01*
X139112786Y-95533028D01*
X138968028Y-95677786D01*
X138847715Y-95843386D01*
X138800485Y-95936080D01*
X138752510Y-95986876D01*
X138684689Y-96003671D01*
X138618554Y-95981134D01*
X138579515Y-95936080D01*
X138571559Y-95920465D01*
X138532287Y-95843390D01*
X138504879Y-95805666D01*
X138411971Y-95677786D01*
X138356819Y-95622634D01*
X138323334Y-95561311D01*
X138320500Y-95534953D01*
X138320500Y-93044541D01*
X138340185Y-92977502D01*
X138379408Y-92939000D01*
X138380501Y-92938326D01*
X138393656Y-92930212D01*
X138517712Y-92806156D01*
X138609814Y-92656834D01*
X138664999Y-92490297D01*
X138675500Y-92387509D01*
X138675499Y-91612492D01*
X138664999Y-91509703D01*
X138609814Y-91343166D01*
X138517712Y-91193844D01*
X138393656Y-91069788D01*
X138390342Y-91067743D01*
X138388546Y-91065748D01*
X138387989Y-91065307D01*
X138388064Y-91065211D01*
X138343618Y-91015797D01*
X138332397Y-90946834D01*
X138360240Y-90882752D01*
X138390348Y-90856665D01*
X138393342Y-90854818D01*
X138517315Y-90730845D01*
X138609356Y-90581624D01*
X138609358Y-90581619D01*
X138664505Y-90415197D01*
X138664506Y-90415190D01*
X138674999Y-90312486D01*
X138675000Y-90312473D01*
X138675000Y-90175000D01*
X136225001Y-90175000D01*
X136225001Y-90312486D01*
X136235494Y-90415197D01*
X136290641Y-90581619D01*
X136290643Y-90581624D01*
X136382684Y-90730845D01*
X136506655Y-90854816D01*
X136506659Y-90854819D01*
X136509656Y-90856668D01*
X136511279Y-90858472D01*
X136512323Y-90859298D01*
X136512181Y-90859476D01*
X136556381Y-90908616D01*
X136567602Y-90977579D01*
X136539759Y-91041661D01*
X136509661Y-91067741D01*
X136506349Y-91069783D01*
X136506343Y-91069788D01*
X136382289Y-91193842D01*
X136290187Y-91343163D01*
X136290186Y-91343166D01*
X136235001Y-91509703D01*
X136235001Y-91509704D01*
X136235000Y-91509704D01*
X136224500Y-91612483D01*
X136224500Y-92387501D01*
X136224501Y-92387519D01*
X136235000Y-92490296D01*
X136235001Y-92490299D01*
X136290185Y-92656831D01*
X136290187Y-92656836D01*
X136382289Y-92806157D01*
X136483181Y-92907049D01*
X136516666Y-92968372D01*
X136519500Y-92994730D01*
X136519500Y-95534953D01*
X136499815Y-95601992D01*
X136483181Y-95622634D01*
X136428032Y-95677782D01*
X136428028Y-95677786D01*
X136307715Y-95843386D01*
X136260485Y-95936080D01*
X136212510Y-95986876D01*
X136144689Y-96003671D01*
X136078554Y-95981134D01*
X136039515Y-95936080D01*
X136031559Y-95920465D01*
X135992287Y-95843390D01*
X135964879Y-95805666D01*
X135871971Y-95677786D01*
X135727213Y-95533028D01*
X135561613Y-95412715D01*
X135561612Y-95412714D01*
X135561610Y-95412713D01*
X135486613Y-95374500D01*
X135379223Y-95319781D01*
X135184534Y-95256522D01*
X135009995Y-95228878D01*
X134982352Y-95224500D01*
X134777648Y-95224500D01*
X134753329Y-95228351D01*
X134575465Y-95256522D01*
X134380776Y-95319781D01*
X134198386Y-95412715D01*
X134032786Y-95533028D01*
X133888028Y-95677786D01*
X133767715Y-95843386D01*
X133674781Y-96025776D01*
X133611522Y-96220465D01*
X133579500Y-96422648D01*
X133579500Y-96627351D01*
X133611522Y-96829534D01*
X133674781Y-97024223D01*
X133729843Y-97132287D01*
X133761203Y-97193834D01*
X133767715Y-97206613D01*
X133888028Y-97372213D01*
X134032786Y-97516971D01*
X134137940Y-97593368D01*
X134198390Y-97637287D01*
X134314607Y-97696503D01*
X134380776Y-97730218D01*
X134380778Y-97730218D01*
X134380781Y-97730220D01*
X134575466Y-97793477D01*
X134594775Y-97796535D01*
X134596288Y-97796775D01*
X134659423Y-97826704D01*
X134696354Y-97886016D01*
X134695356Y-97955878D01*
X134664571Y-98006929D01*
X133112181Y-99559319D01*
X133050858Y-99592804D01*
X132981166Y-99587820D01*
X132925233Y-99545948D01*
X132900816Y-99480484D01*
X132900500Y-99471638D01*
X132900500Y-92274361D01*
X132920185Y-92207322D01*
X132936819Y-92186680D01*
X136411680Y-88711819D01*
X136473003Y-88678334D01*
X136499361Y-88675500D01*
X136587706Y-88675500D01*
X136654745Y-88695185D01*
X136700500Y-88747989D01*
X136710444Y-88817147D01*
X136681419Y-88880703D01*
X136652803Y-88905039D01*
X136506654Y-88995184D01*
X136382684Y-89119154D01*
X136290643Y-89268375D01*
X136290641Y-89268380D01*
X136235494Y-89434802D01*
X136235493Y-89434809D01*
X136225000Y-89537513D01*
X136225000Y-89675000D01*
X138674999Y-89675000D01*
X138674999Y-89537528D01*
X138674998Y-89537513D01*
X138664505Y-89434802D01*
X138609358Y-89268380D01*
X138609356Y-89268375D01*
X138517315Y-89119154D01*
X138393345Y-88995184D01*
X138247197Y-88905039D01*
X138200473Y-88853091D01*
X138189250Y-88784128D01*
X138217094Y-88720046D01*
X138275163Y-88681190D01*
X138312294Y-88675500D01*
X139751434Y-88675500D01*
X139751435Y-88675499D01*
X139925408Y-88640895D01*
X140043755Y-88591873D01*
X140089288Y-88573013D01*
X140236776Y-88474464D01*
X140362205Y-88349035D01*
X140362205Y-88349034D01*
X141049420Y-87661819D01*
X141110743Y-87628334D01*
X141137101Y-87625500D01*
X143925500Y-87625500D01*
X143992539Y-87645185D01*
X144038294Y-87697989D01*
X144049500Y-87749500D01*
X144049500Y-88273542D01*
X144058904Y-88320819D01*
X144059445Y-88323535D01*
X144087949Y-88466836D01*
X144091109Y-88474464D01*
X144095247Y-88484454D01*
X144095248Y-88484458D01*
X144163364Y-88648907D01*
X144163371Y-88648920D01*
X144272860Y-88812781D01*
X144272863Y-88812785D01*
X144416537Y-88956459D01*
X144416559Y-88956479D01*
X146394735Y-90934655D01*
X146394764Y-90934686D01*
X146537217Y-91077139D01*
X146599354Y-91118657D01*
X146701086Y-91186632D01*
X146792511Y-91224501D01*
X146883164Y-91262051D01*
X146979812Y-91281275D01*
X147015552Y-91288384D01*
X147056457Y-91304462D01*
X147105659Y-91334810D01*
X147105660Y-91334810D01*
X147105666Y-91334814D01*
X147272203Y-91389999D01*
X147374991Y-91400500D01*
X148375008Y-91400499D01*
X148375016Y-91400498D01*
X148375019Y-91400498D01*
X148431302Y-91394748D01*
X148477797Y-91389999D01*
X148644334Y-91334814D01*
X148793656Y-91242712D01*
X148917712Y-91118656D01*
X149009814Y-90969334D01*
X149064999Y-90802797D01*
X149075500Y-90700009D01*
X149075499Y-89899992D01*
X149064999Y-89797203D01*
X149009814Y-89630666D01*
X148917712Y-89481344D01*
X148824049Y-89387681D01*
X148790564Y-89326358D01*
X148795548Y-89256666D01*
X148824049Y-89212319D01*
X148842788Y-89193580D01*
X148917712Y-89118656D01*
X149009814Y-88969334D01*
X149064999Y-88802797D01*
X149075500Y-88700009D01*
X149075499Y-87899992D01*
X149074416Y-87889393D01*
X149064999Y-87797203D01*
X149064998Y-87797200D01*
X149052604Y-87759797D01*
X149009814Y-87630666D01*
X148917712Y-87481344D01*
X148793656Y-87357288D01*
X148650500Y-87268989D01*
X148644336Y-87265187D01*
X148644325Y-87265182D01*
X148596013Y-87249173D01*
X148538568Y-87209400D01*
X148511746Y-87144884D01*
X148513400Y-87107281D01*
X148525500Y-87046455D01*
X148525500Y-86903545D01*
X148525500Y-86903542D01*
X148497620Y-86763385D01*
X148497619Y-86763384D01*
X148497619Y-86763380D01*
X148442929Y-86631347D01*
X148442928Y-86631346D01*
X148442925Y-86631340D01*
X148363532Y-86512521D01*
X148363529Y-86512517D01*
X148262482Y-86411470D01*
X148262478Y-86411467D01*
X148143659Y-86332074D01*
X148143650Y-86332069D01*
X148011620Y-86277381D01*
X148011614Y-86277379D01*
X147871457Y-86249500D01*
X147871455Y-86249500D01*
X147728545Y-86249500D01*
X147728543Y-86249500D01*
X147588385Y-86277379D01*
X147588379Y-86277381D01*
X147456349Y-86332069D01*
X147456340Y-86332074D01*
X147337521Y-86411467D01*
X147337517Y-86411470D01*
X147236470Y-86512517D01*
X147236467Y-86512521D01*
X147157074Y-86631340D01*
X147157069Y-86631349D01*
X147102381Y-86763379D01*
X147102379Y-86763385D01*
X147074500Y-86903542D01*
X147074500Y-86903545D01*
X147074500Y-87046455D01*
X147074500Y-87046457D01*
X147074499Y-87046457D01*
X147097117Y-87160156D01*
X147099500Y-87184348D01*
X147099500Y-87199781D01*
X147079815Y-87266820D01*
X147040597Y-87305319D01*
X146956347Y-87357285D01*
X146956343Y-87357288D01*
X146832289Y-87481342D01*
X146740187Y-87630663D01*
X146740185Y-87630668D01*
X146729863Y-87661819D01*
X146685001Y-87797203D01*
X146685001Y-87797204D01*
X146685000Y-87797204D01*
X146674500Y-87899983D01*
X146674500Y-88085218D01*
X146654815Y-88152257D01*
X146602011Y-88198012D01*
X146532853Y-88207956D01*
X146469297Y-88178931D01*
X146462819Y-88172899D01*
X146086819Y-87796899D01*
X146053334Y-87735576D01*
X146050500Y-87709218D01*
X146050500Y-87049361D01*
X146070185Y-86982322D01*
X146086819Y-86961680D01*
X148499460Y-84549039D01*
X148499463Y-84549036D01*
X148535120Y-84495672D01*
X148598013Y-84401547D01*
X148665894Y-84237666D01*
X148665894Y-84237665D01*
X148668225Y-84232038D01*
X148669980Y-84232765D01*
X148703426Y-84181716D01*
X148718693Y-84170608D01*
X148743656Y-84155212D01*
X148867712Y-84031156D01*
X148871509Y-84025000D01*
X152171826Y-84025000D01*
X152176059Y-84040797D01*
X152176064Y-84040813D01*
X152226502Y-84162582D01*
X152226507Y-84162592D01*
X152272586Y-84242405D01*
X152352839Y-84346992D01*
X152352845Y-84346999D01*
X152418000Y-84412154D01*
X152418007Y-84412160D01*
X152522594Y-84492413D01*
X152602407Y-84538492D01*
X152602417Y-84538497D01*
X152724186Y-84588935D01*
X152724202Y-84588940D01*
X152740000Y-84593173D01*
X152740000Y-84025000D01*
X152171826Y-84025000D01*
X148871509Y-84025000D01*
X148959814Y-83881834D01*
X149014999Y-83715297D01*
X149025500Y-83612509D01*
X149025499Y-83324361D01*
X149045183Y-83257322D01*
X149061813Y-83236685D01*
X150673499Y-81625000D01*
X152171826Y-81625000D01*
X152176059Y-81640797D01*
X152176064Y-81640813D01*
X152226502Y-81762582D01*
X152226507Y-81762592D01*
X152272586Y-81842405D01*
X152352839Y-81946992D01*
X152352845Y-81946999D01*
X152418000Y-82012154D01*
X152418007Y-82012160D01*
X152451724Y-82038032D01*
X152492927Y-82094459D01*
X152497082Y-82164205D01*
X152494899Y-82172401D01*
X152476985Y-82231456D01*
X152458378Y-82324999D01*
X152458378Y-82325000D01*
X153289252Y-82325000D01*
X153267482Y-82362708D01*
X153230000Y-82502591D01*
X153230000Y-82647409D01*
X153267482Y-82787292D01*
X153289252Y-82825000D01*
X152458378Y-82825000D01*
X152476985Y-82918540D01*
X152494899Y-82977597D01*
X152495522Y-83047464D01*
X152458273Y-83106576D01*
X152451726Y-83111966D01*
X152418003Y-83137842D01*
X152352845Y-83203000D01*
X152352839Y-83203007D01*
X152272586Y-83307594D01*
X152226507Y-83387407D01*
X152226502Y-83387417D01*
X152176064Y-83509186D01*
X152176059Y-83509202D01*
X152171826Y-83525000D01*
X152866000Y-83525000D01*
X152933039Y-83544685D01*
X152978794Y-83597489D01*
X152990000Y-83649000D01*
X152990000Y-83775000D01*
X153116000Y-83775000D01*
X153183039Y-83794685D01*
X153228794Y-83847489D01*
X153240000Y-83899000D01*
X153240000Y-84593172D01*
X153255797Y-84588940D01*
X153255813Y-84588935D01*
X153377582Y-84538497D01*
X153377592Y-84538492D01*
X153457405Y-84492413D01*
X153561992Y-84412160D01*
X153561999Y-84412154D01*
X153627154Y-84346999D01*
X153627160Y-84346992D01*
X153707413Y-84242405D01*
X153753492Y-84162592D01*
X153753497Y-84162582D01*
X153803935Y-84040813D01*
X153803938Y-84040804D01*
X153813378Y-84005572D01*
X153849742Y-83945911D01*
X153912588Y-83915380D01*
X153921000Y-83914260D01*
X153961254Y-83910295D01*
X153961267Y-83910293D01*
X154123537Y-83878015D01*
X154218276Y-83849277D01*
X154371145Y-83785956D01*
X154458448Y-83739291D01*
X154458458Y-83739285D01*
X154596037Y-83647358D01*
X154672563Y-83584554D01*
X154789554Y-83467563D01*
X154852358Y-83391037D01*
X154944285Y-83253458D01*
X154944291Y-83253448D01*
X154990956Y-83166145D01*
X155054277Y-83013276D01*
X155083015Y-82918537D01*
X155101622Y-82825000D01*
X154270748Y-82825000D01*
X154292518Y-82787292D01*
X154330000Y-82647409D01*
X154330000Y-82502591D01*
X154292518Y-82362708D01*
X154270748Y-82325000D01*
X155101622Y-82325000D01*
X155101621Y-82324999D01*
X155083015Y-82231462D01*
X155054277Y-82136723D01*
X154990956Y-81983854D01*
X154944291Y-81896551D01*
X154944285Y-81896541D01*
X154852358Y-81758962D01*
X154789554Y-81682436D01*
X154672563Y-81565445D01*
X154596037Y-81502641D01*
X154458458Y-81410714D01*
X154458448Y-81410708D01*
X154371145Y-81364043D01*
X154218276Y-81300722D01*
X154123537Y-81271984D01*
X153961267Y-81239706D01*
X153961257Y-81239704D01*
X153920998Y-81235739D01*
X153856211Y-81209577D01*
X153815853Y-81152541D01*
X153813379Y-81144428D01*
X153803941Y-81109205D01*
X153803935Y-81109186D01*
X153753497Y-80987417D01*
X153753492Y-80987407D01*
X153707413Y-80907594D01*
X153627160Y-80803007D01*
X153627154Y-80803000D01*
X153561999Y-80737845D01*
X153561992Y-80737839D01*
X153457405Y-80657586D01*
X153377592Y-80611507D01*
X153377582Y-80611502D01*
X153255805Y-80561061D01*
X153255793Y-80561057D01*
X153240000Y-80556824D01*
X153240000Y-81251000D01*
X153220315Y-81318039D01*
X153167511Y-81363794D01*
X153116000Y-81375000D01*
X152990000Y-81375000D01*
X152990000Y-81501000D01*
X152970315Y-81568039D01*
X152917511Y-81613794D01*
X152866000Y-81625000D01*
X152171826Y-81625000D01*
X150673499Y-81625000D01*
X151173499Y-81125000D01*
X152171826Y-81125000D01*
X152740000Y-81125000D01*
X152740000Y-80556825D01*
X152739999Y-80556824D01*
X152724206Y-80561057D01*
X152724194Y-80561061D01*
X152602417Y-80611502D01*
X152602407Y-80611507D01*
X152522594Y-80657586D01*
X152418007Y-80737839D01*
X152418000Y-80737845D01*
X152352845Y-80803000D01*
X152352839Y-80803007D01*
X152272586Y-80907594D01*
X152226507Y-80987407D01*
X152226502Y-80987417D01*
X152176064Y-81109186D01*
X152176059Y-81109202D01*
X152171826Y-81125000D01*
X151173499Y-81125000D01*
X152036681Y-80261819D01*
X152098004Y-80228334D01*
X152124362Y-80225500D01*
X155575500Y-80225500D01*
X155642539Y-80245185D01*
G37*
%TD.AperFunction*%
%TA.AperFunction,Conductor*%
G36*
X173542677Y-87120185D02*
G01*
X173563319Y-87136819D01*
X176798181Y-90371681D01*
X176831666Y-90433004D01*
X176834500Y-90459362D01*
X176834500Y-95234953D01*
X176814815Y-95301992D01*
X176798181Y-95322634D01*
X176743032Y-95377782D01*
X176743028Y-95377786D01*
X176622715Y-95543386D01*
X176575485Y-95636080D01*
X176527510Y-95686876D01*
X176459689Y-95703671D01*
X176393554Y-95681134D01*
X176354515Y-95636080D01*
X176329158Y-95586315D01*
X176307287Y-95543390D01*
X176299221Y-95532288D01*
X176186971Y-95377786D01*
X176042213Y-95233028D01*
X175876613Y-95112715D01*
X175876612Y-95112714D01*
X175876610Y-95112713D01*
X175819653Y-95083691D01*
X175694223Y-95019781D01*
X175499534Y-94956522D01*
X175324995Y-94928878D01*
X175297352Y-94924500D01*
X175092648Y-94924500D01*
X175068329Y-94928351D01*
X174890465Y-94956522D01*
X174695776Y-95019781D01*
X174513386Y-95112715D01*
X174347786Y-95233028D01*
X174203028Y-95377786D01*
X174082715Y-95543386D01*
X174035485Y-95636080D01*
X173987510Y-95686876D01*
X173919689Y-95703671D01*
X173853554Y-95681134D01*
X173814515Y-95636080D01*
X173789158Y-95586315D01*
X173767287Y-95543390D01*
X173759221Y-95532288D01*
X173646971Y-95377786D01*
X173611819Y-95342634D01*
X173578334Y-95281311D01*
X173575500Y-95254953D01*
X173575500Y-92199367D01*
X173595185Y-92132328D01*
X173614386Y-92111156D01*
X173613549Y-92110319D01*
X173618656Y-92105212D01*
X173742712Y-91981156D01*
X173834814Y-91831834D01*
X173889999Y-91665297D01*
X173900500Y-91562509D01*
X173900499Y-90787492D01*
X173894712Y-90730845D01*
X173889999Y-90684703D01*
X173889998Y-90684700D01*
X173855840Y-90581619D01*
X173834814Y-90518166D01*
X173742712Y-90368844D01*
X173618656Y-90244788D01*
X173615342Y-90242743D01*
X173613546Y-90240748D01*
X173612989Y-90240307D01*
X173613064Y-90240211D01*
X173568618Y-90190797D01*
X173557397Y-90121834D01*
X173585240Y-90057752D01*
X173615348Y-90031665D01*
X173618342Y-90029818D01*
X173742315Y-89905845D01*
X173834356Y-89756624D01*
X173834358Y-89756619D01*
X173889505Y-89590197D01*
X173889506Y-89590190D01*
X173899999Y-89487486D01*
X173900000Y-89487473D01*
X173900000Y-89350000D01*
X171450001Y-89350000D01*
X171450001Y-89487486D01*
X171460494Y-89590197D01*
X171515641Y-89756619D01*
X171515643Y-89756624D01*
X171607684Y-89905845D01*
X171731655Y-90029816D01*
X171731659Y-90029819D01*
X171734656Y-90031668D01*
X171736279Y-90033472D01*
X171737323Y-90034298D01*
X171737181Y-90034476D01*
X171781381Y-90083616D01*
X171792602Y-90152579D01*
X171764759Y-90216661D01*
X171734661Y-90242741D01*
X171731349Y-90244783D01*
X171731343Y-90244788D01*
X171607289Y-90368842D01*
X171515187Y-90518163D01*
X171515186Y-90518166D01*
X171460001Y-90684703D01*
X171460001Y-90684704D01*
X171460000Y-90684704D01*
X171449500Y-90787483D01*
X171449500Y-91562501D01*
X171449501Y-91562519D01*
X171460000Y-91665296D01*
X171460001Y-91665299D01*
X171491816Y-91761309D01*
X171515186Y-91831834D01*
X171572645Y-91924991D01*
X171607289Y-91981157D01*
X171736451Y-92110319D01*
X171734559Y-92112210D01*
X171767774Y-92159083D01*
X171774500Y-92199367D01*
X171774500Y-95214953D01*
X171754815Y-95281992D01*
X171738181Y-95302634D01*
X171663032Y-95377782D01*
X171663028Y-95377786D01*
X171542715Y-95543386D01*
X171495485Y-95636080D01*
X171447510Y-95686876D01*
X171379689Y-95703671D01*
X171313554Y-95681134D01*
X171274515Y-95636080D01*
X171249158Y-95586315D01*
X171227287Y-95543390D01*
X171219221Y-95532288D01*
X171106971Y-95377786D01*
X170962213Y-95233028D01*
X170796613Y-95112715D01*
X170796612Y-95112714D01*
X170796610Y-95112713D01*
X170739653Y-95083691D01*
X170614223Y-95019781D01*
X170419534Y-94956522D01*
X170244995Y-94928878D01*
X170217352Y-94924500D01*
X170012648Y-94924500D01*
X169988329Y-94928351D01*
X169810465Y-94956522D01*
X169615776Y-95019781D01*
X169433386Y-95112715D01*
X169267786Y-95233028D01*
X169123028Y-95377786D01*
X169002715Y-95543386D01*
X168957668Y-95631795D01*
X168909693Y-95682591D01*
X168847183Y-95699500D01*
X166399368Y-95699500D01*
X166332329Y-95679815D01*
X166311153Y-95660616D01*
X166310319Y-95661451D01*
X166181157Y-95532289D01*
X166181156Y-95532288D01*
X166031834Y-95440186D01*
X165865297Y-95385001D01*
X165865295Y-95385000D01*
X165762510Y-95374500D01*
X164987498Y-95374500D01*
X164987480Y-95374501D01*
X164884703Y-95385000D01*
X164884700Y-95385001D01*
X164718168Y-95440185D01*
X164718163Y-95440187D01*
X164568842Y-95532289D01*
X164444785Y-95656346D01*
X164443037Y-95659182D01*
X164441329Y-95660717D01*
X164440307Y-95662011D01*
X164440085Y-95661836D01*
X164391089Y-95705905D01*
X164322126Y-95717126D01*
X164258044Y-95689282D01*
X164231963Y-95659182D01*
X164230214Y-95656346D01*
X164106157Y-95532289D01*
X164106156Y-95532288D01*
X163956834Y-95440186D01*
X163790297Y-95385001D01*
X163790295Y-95385000D01*
X163687510Y-95374500D01*
X162912498Y-95374500D01*
X162912480Y-95374501D01*
X162809703Y-95385000D01*
X162809700Y-95385001D01*
X162643168Y-95440185D01*
X162643163Y-95440187D01*
X162493842Y-95532289D01*
X162387181Y-95638951D01*
X162325858Y-95672436D01*
X162256166Y-95667452D01*
X162200233Y-95625580D01*
X162175816Y-95560116D01*
X162175500Y-95551270D01*
X162175500Y-94749362D01*
X162195185Y-94682323D01*
X162211819Y-94661681D01*
X168160987Y-88712513D01*
X171450000Y-88712513D01*
X171450000Y-88850000D01*
X172425000Y-88850000D01*
X172925000Y-88850000D01*
X173899999Y-88850000D01*
X173899999Y-88712528D01*
X173899998Y-88712513D01*
X173889505Y-88609802D01*
X173834358Y-88443380D01*
X173834356Y-88443375D01*
X173742315Y-88294154D01*
X173618345Y-88170184D01*
X173469124Y-88078143D01*
X173469119Y-88078141D01*
X173302697Y-88022994D01*
X173302690Y-88022993D01*
X173199986Y-88012500D01*
X172925000Y-88012500D01*
X172925000Y-88850000D01*
X172425000Y-88850000D01*
X172425000Y-88012500D01*
X172150029Y-88012500D01*
X172150012Y-88012501D01*
X172047302Y-88022994D01*
X171880880Y-88078141D01*
X171880875Y-88078143D01*
X171731654Y-88170184D01*
X171607684Y-88294154D01*
X171515643Y-88443375D01*
X171515641Y-88443380D01*
X171460494Y-88609802D01*
X171460493Y-88609809D01*
X171450000Y-88712513D01*
X168160987Y-88712513D01*
X169736681Y-87136819D01*
X169798004Y-87103334D01*
X169824362Y-87100500D01*
X173475638Y-87100500D01*
X173542677Y-87120185D01*
G37*
%TD.AperFunction*%
%TA.AperFunction,Conductor*%
G36*
X166476008Y-81399377D02*
G01*
X166445000Y-81515098D01*
X166445000Y-81634902D01*
X166476008Y-81750623D01*
X166518950Y-81825000D01*
X166128243Y-81825000D01*
X166061204Y-81805315D01*
X166038574Y-81786647D01*
X166030357Y-81778044D01*
X166002031Y-81733968D01*
X165922114Y-81664718D01*
X165918070Y-81660485D01*
X165904610Y-81634432D01*
X165888762Y-81609772D01*
X165888762Y-81603757D01*
X165886000Y-81598411D01*
X165888762Y-81569222D01*
X165888762Y-81539902D01*
X165892015Y-81534839D01*
X165892582Y-81528852D01*
X165910684Y-81505790D01*
X165926537Y-81481125D01*
X165933394Y-81475598D01*
X165977546Y-81442546D01*
X166028344Y-81374687D01*
X166084277Y-81332818D01*
X166127610Y-81325000D01*
X166518950Y-81325000D01*
X166476008Y-81399377D01*
G37*
%TD.AperFunction*%
%TD*%
M02*
