%TF.GenerationSoftware,KiCad,Pcbnew,10.0.1*%
%TF.CreationDate,2026-08-22T00:52:01+01:00*%
%TF.ProjectId,Microphone amp,4d696372-6f70-4686-9f6e-6520616d702e,rev?*%
%TF.SameCoordinates,Original*%
%TF.FileFunction,Soldermask,Top*%
%TF.FilePolarity,Negative*%
%FSLAX46Y46*%
G04 Gerber Fmt 4.6, Leading zero omitted, Abs format (unit mm)*
G04 Created by KiCad (PCBNEW 10.0.1) date 2026-08-22 00:52:01*
%MOMM*%
%LPD*%
G01*
G04 APERTURE LIST*
G04 Aperture macros list*
%AMRoundRect*
0 Rectangle with rounded corners*
0 $1 Rounding radius*
0 $2 $3 $4 $5 $6 $7 $8 $9 X,Y pos of 4 corners*
0 Add a 4 corners polygon primitive as box body*
4,1,4,$2,$3,$4,$5,$6,$7,$8,$9,$2,$3,0*
0 Add four circle primitives for the rounded corners*
1,1,$1+$1,$2,$3*
1,1,$1+$1,$4,$5*
1,1,$1+$1,$6,$7*
1,1,$1+$1,$8,$9*
0 Add four rect primitives between the rounded corners*
20,1,$1+$1,$2,$3,$4,$5,0*
20,1,$1+$1,$4,$5,$6,$7,0*
20,1,$1+$1,$6,$7,$8,$9,0*
20,1,$1+$1,$8,$9,$2,$3,0*%
%AMFreePoly0*
4,1,25,0.172208,0.415746,0.273943,0.357009,0.357009,0.273943,0.415746,0.172208,0.446150,0.058737,0.446150,-0.058737,0.415746,-0.172208,0.357009,-0.273943,0.273943,-0.357009,0.172208,-0.415746,0.058737,-0.446150,-0.058737,-0.446150,-0.172208,-0.415746,-0.273943,-0.357009,-0.357009,-0.273943,-0.415746,-0.172208,-0.446150,-0.058737,-0.446150,0.058737,-0.415746,0.172208,-0.357009,0.273943,
-0.273943,0.357009,-0.172208,0.415746,-0.058737,0.446150,0.058737,0.446150,0.172208,0.415746,0.172208,0.415746,$1*%
%AMFreePoly1*
4,1,25,0.133939,0.323358,0.213067,0.277674,0.277674,0.213067,0.323358,0.133939,0.347006,0.045684,0.347006,-0.045684,0.323358,-0.133939,0.277674,-0.213067,0.213067,-0.277674,0.133939,-0.323358,0.045684,-0.347006,-0.045684,-0.347006,-0.133939,-0.323358,-0.213067,-0.277674,-0.277674,-0.213067,-0.323358,-0.133939,-0.347006,-0.045684,-0.347006,0.045684,-0.323358,0.133939,-0.277674,0.213067,
-0.213067,0.277674,-0.133939,0.323358,-0.045684,0.347006,0.045684,0.347006,0.133939,0.323358,0.133939,0.323358,$1*%
%AMFreePoly2*
4,1,33,0.243839,0.803830,0.395973,0.740814,0.532890,0.649329,0.649329,0.532890,0.740814,0.395973,0.803830,0.243839,0.835955,0.082334,0.835955,-0.082334,0.803830,-0.243839,0.740814,-0.395973,0.649329,-0.532890,0.532890,-0.649329,0.395973,-0.740814,0.243839,-0.803830,0.082334,-0.835955,-0.082334,-0.835955,-0.243839,-0.803830,-0.395973,-0.740814,-0.532890,-0.649329,-0.649329,-0.532890,
-0.740814,-0.395973,-0.803830,-0.243839,-0.835955,-0.082334,-0.835955,0.082334,-0.803830,0.243839,-0.740814,0.395973,-0.649329,0.532890,-0.532890,0.649329,-0.395973,0.740814,-0.243839,0.803830,-0.082334,0.835955,0.082334,0.835955,0.243839,0.803830,0.243839,0.803830,$1*%
%AMFreePoly3*
4,1,5,0.385000,-0.285000,-0.385000,-0.285000,-0.385000,0.285000,0.385000,0.285000,0.385000,-0.285000,0.385000,-0.285000,$1*%
%AMFreePoly4*
4,1,33,0.238033,0.784691,0.386545,0.723175,0.520202,0.633869,0.633869,0.520202,0.723175,0.386545,0.784691,0.238033,0.816051,0.080374,0.816051,-0.080374,0.784691,-0.238033,0.723175,-0.386545,0.633869,-0.520202,0.520202,-0.633869,0.386545,-0.723175,0.238033,-0.784691,0.080374,-0.816051,-0.080374,-0.816051,-0.238033,-0.784691,-0.386545,-0.723175,-0.520202,-0.633869,-0.633869,-0.520202,
-0.723175,-0.386545,-0.784691,-0.238033,-0.816051,-0.080374,-0.816051,0.080374,-0.784691,0.238033,-0.723175,0.386545,-0.633869,0.520202,-0.520202,0.633869,-0.386545,0.723175,-0.238033,0.784691,-0.080374,0.816051,0.080374,0.816051,0.238033,0.784691,0.238033,0.784691,$1*%
G04 Aperture macros list end*
%ADD10R,1.700000X1.700000*%
%ADD11C,1.700000*%
%ADD12RoundRect,0.250000X0.450000X-0.350000X0.450000X0.350000X-0.450000X0.350000X-0.450000X-0.350000X0*%
%ADD13C,1.600000*%
%ADD14RoundRect,0.250000X0.337500X0.475000X-0.337500X0.475000X-0.337500X-0.475000X0.337500X-0.475000X0*%
%ADD15RoundRect,0.250000X0.350000X0.450000X-0.350000X0.450000X-0.350000X-0.450000X0.350000X-0.450000X0*%
%ADD16RoundRect,0.135000X0.185000X-0.135000X0.185000X0.135000X-0.185000X0.135000X-0.185000X-0.135000X0*%
%ADD17RoundRect,0.250000X-0.475000X0.337500X-0.475000X-0.337500X0.475000X-0.337500X0.475000X0.337500X0*%
%ADD18C,1.440000*%
%ADD19RoundRect,0.250000X0.550000X-0.550000X0.550000X0.550000X-0.550000X0.550000X-0.550000X-0.550000X0*%
%ADD20RoundRect,0.250000X-0.350000X-0.450000X0.350000X-0.450000X0.350000X0.450000X-0.350000X0.450000X0*%
%ADD21RoundRect,0.375000X0.375000X-0.625000X0.375000X0.625000X-0.375000X0.625000X-0.375000X-0.625000X0*%
%ADD22RoundRect,0.500000X1.400000X-0.500000X1.400000X0.500000X-1.400000X0.500000X-1.400000X-0.500000X0*%
%ADD23RoundRect,0.250000X0.475000X-0.337500X0.475000X0.337500X-0.475000X0.337500X-0.475000X-0.337500X0*%
%ADD24R,1.905000X2.000000*%
%ADD25O,1.905000X2.000000*%
%ADD26RoundRect,0.250000X-0.550000X-0.550000X0.550000X-0.550000X0.550000X0.550000X-0.550000X0.550000X0*%
%ADD27RoundRect,0.250000X-0.337500X-0.475000X0.337500X-0.475000X0.337500X0.475000X-0.337500X0.475000X0*%
%ADD28RoundRect,0.250000X-0.450000X0.350000X-0.450000X-0.350000X0.450000X-0.350000X0.450000X0.350000X0*%
%ADD29RoundRect,0.250000X0.550000X-0.950000X0.550000X0.950000X-0.550000X0.950000X-0.550000X-0.950000X0*%
%ADD30O,1.600000X2.400000*%
%ADD31FreePoly0,180.000000*%
%ADD32FreePoly1,180.000000*%
%ADD33FreePoly2,180.000000*%
%ADD34FreePoly3,0.000000*%
%ADD35R,0.770000X0.570000*%
%ADD36FreePoly4,0.000000*%
G04 APERTURE END LIST*
D10*
%TO.C,J1*%
X172125000Y-123650000D03*
D11*
X172125000Y-126190000D03*
%TD*%
D12*
%TO.C,R8*%
X152520000Y-98075000D03*
X152520000Y-96075000D03*
%TD*%
D13*
%TO.C,C6*%
X155700000Y-118450000D03*
X155700000Y-120950000D03*
%TD*%
D14*
%TO.C,C12*%
X157845000Y-97925000D03*
X155770000Y-97925000D03*
%TD*%
D15*
%TO.C,R5*%
X144050000Y-92425000D03*
X142050000Y-92425000D03*
%TD*%
D16*
%TO.C,R9*%
X165200000Y-88020000D03*
X165200000Y-87000000D03*
%TD*%
D15*
%TO.C,R6*%
X148945000Y-98175000D03*
X146945000Y-98175000D03*
%TD*%
D17*
%TO.C,C8*%
X141620000Y-116375000D03*
X141620000Y-118450000D03*
%TD*%
D18*
%TO.C,RV1*%
X171165000Y-117140000D03*
X176245000Y-114600000D03*
X171165000Y-112060000D03*
%TD*%
D14*
%TO.C,C9*%
X143550000Y-109200000D03*
X141475000Y-109200000D03*
%TD*%
D17*
%TO.C,C15*%
X147800000Y-81150000D03*
X147800000Y-83225000D03*
%TD*%
D19*
%TO.C,U2*%
X134880000Y-104145000D03*
D13*
X137420000Y-104145000D03*
X139960000Y-104145000D03*
X142500000Y-104145000D03*
X142500000Y-96525000D03*
X139960000Y-96525000D03*
X137420000Y-96525000D03*
X134880000Y-96525000D03*
%TD*%
D14*
%TO.C,C11*%
X157820000Y-102325000D03*
X155745000Y-102325000D03*
%TD*%
D20*
%TO.C,R3*%
X155825000Y-113475000D03*
X157825000Y-113475000D03*
%TD*%
D21*
%TO.C,U1*%
X132175000Y-118475000D03*
X134475000Y-118475000D03*
D22*
X134475000Y-112175000D03*
D21*
X136775000Y-118475000D03*
%TD*%
D17*
%TO.C,C3*%
X172675000Y-89100000D03*
X172675000Y-91175000D03*
%TD*%
D12*
%TO.C,R7*%
X152545000Y-104075000D03*
X152545000Y-102075000D03*
%TD*%
D14*
%TO.C,C4*%
X165375000Y-96600000D03*
X163300000Y-96600000D03*
%TD*%
D23*
%TO.C,C7*%
X146450000Y-118500000D03*
X146450000Y-116425000D03*
%TD*%
D24*
%TO.C,U3*%
X141720000Y-125362500D03*
D25*
X144260000Y-125362500D03*
X146800000Y-125362500D03*
%TD*%
D10*
%TO.C,LS1*%
X155875000Y-125650000D03*
D11*
X158415000Y-125650000D03*
%TD*%
D23*
%TO.C,C10*%
X137450000Y-92000000D03*
X137450000Y-89925000D03*
%TD*%
%TO.C,C5*%
X162225000Y-113475000D03*
X162225000Y-111400000D03*
%TD*%
D26*
%TO.C,MK3*%
X140150000Y-83025000D03*
D13*
X142150000Y-83025000D03*
%TD*%
D27*
%TO.C,C13*%
X163825000Y-118900000D03*
X165900000Y-118900000D03*
%TD*%
D28*
%TO.C,R11*%
X147875000Y-88300000D03*
X147875000Y-90300000D03*
%TD*%
D20*
%TO.C,R4*%
X146945000Y-102100000D03*
X148945000Y-102100000D03*
%TD*%
D15*
%TO.C,R2*%
X165320000Y-104200000D03*
X163320000Y-104200000D03*
%TD*%
D23*
%TO.C,C14*%
X171575000Y-82750000D03*
X171575000Y-80675000D03*
%TD*%
D29*
%TO.C,U4*%
X170115000Y-104245000D03*
D30*
X172655000Y-104245000D03*
X175195000Y-104245000D03*
X177735000Y-104245000D03*
X177735000Y-96625000D03*
X175195000Y-96625000D03*
X172655000Y-96625000D03*
X170115000Y-96625000D03*
%TD*%
D16*
%TO.C,R10*%
X133350000Y-87995000D03*
X133350000Y-86975000D03*
%TD*%
D31*
%TO.C,INMP1*%
X156400000Y-83775000D03*
D32*
X152990000Y-83775000D03*
D33*
X153780000Y-82575000D03*
D32*
X152990000Y-81375000D03*
D31*
X156400000Y-81375000D03*
X156400000Y-82575000D03*
%TD*%
D16*
%TO.C,R1*%
X156575000Y-88520000D03*
X156575000Y-87500000D03*
%TD*%
D34*
%TO.C,IM68A130V1*%
X165235000Y-82350000D03*
X165235000Y-81575000D03*
D35*
X165235000Y-80800000D03*
D36*
X166900000Y-81575000D03*
%TD*%
M02*
